<svg xmlns="http://www.w3.org/2000/svg" width="913.352" height="195.76" viewBox="0 0 913.352 195.76">
  <g id="Groupe_545" data-name="Groupe 545" transform="translate(1038.786 -105.025) rotate(85)">
    <path id="Tracé_1885" data-name="Tracé 1885" d="M136.829,483.038c19.662-23.024,28.936-59.585,29.261-89.445.055-4.893,5.417-29.787-1.54-31.567-5.161-1.2-23.391,16.323-28.368,19.467-29.825,18.787-55.251,49.746-50.079,87.436C90.442,500.54,117.845,505.27,136.829,483.038Zm-36.513,7.984c1.791-6.794,5.408-12.752,8.983-18.732,5.276-8.838,8.409-18.655,12.679-27.979.266-.576.548-1.148.812-1.721-2.7,2.856-5.762,5.432-8.25,7.6a59.9,59.9,0,0,1-22.606,12.576c-.429.125-2.116-.541-1.355-.843a80.418,80.418,0,0,0,21.638-12.855c5.934-4.9,9.757-11.792,15.5-16.657,3.7-7.353,7.595-14.622,11.456-21.906a31.69,31.69,0,0,1-4.156,2.827c-11.628,6.62-22.984,14.063-34.825,20.245-.629.321-3.142-.112-2.1-1,8.149-7.021,18.417-12.021,27.9-17,3.362-1.765,6.561-3.564,9.654-5.584,2.418-1.971,4.9-3.971,6.616-5.311,1.784-3.4,3.54-6.812,5.267-10.253,1.668-3.322,3.261-6.66,4.84-10.006-2.46,2.378-5.742,4.174-8.464,5.85-4.834,2.983-9.762,6.059-14.829,8.631-.3.156-2.09-.013-1.588-.541,3.417-3.679,8.094-6.09,12.382-8.622,4.8-2.851,9.166-6.475,14.026-9.172a.837.837,0,0,1,.317-.062q2.29-4.99,4.493-10.019c.521-1.2,1.03-2.4,1.553-3.608a15.775,15.775,0,0,1,1.188-2.1,5.686,5.686,0,0,1,1.142-1.679,1.032,1.032,0,0,1,1.036-.123.928.928,0,0,1,.486.541c.365,1.08-.684,2.37-1.091,3.307-.752,1.734-1.507,3.474-2.279,5.208-1.551,3.481-3.14,6.93-4.774,10.38a2.345,2.345,0,0,0-.295.614c-.015,5.3.132,10.532.541,15.814.466,6.028,1.784,12.354.684,18.338-.108.6-1.74.482-1.844-.062-1.712-8.946-2.876-19.931-1.6-29.468-2.5,5.087-5.1,10.127-7.738,15.146.264.033.539.161.367.249a4.639,4.639,0,0,1-.638.264c-.123.231-.242.455-.367.689-1.549,4.9-2.013,10.813-2.825,15.715a89.707,89.707,0,0,0-.33,26.069c.04.242-.867.169-.937-.07-2.64-8.7-2.537-17.376-1.221-26.322.275-1.879.535-4.589,1.03-7.346-3.881,7.245-7.775,14.474-11.546,21.772.37.075.66.271.515.552-2.84,5.742-2.475,14.479-3.188,20.769-1.019,8.919.581,17.288,1.109,26.135.035.581-1.542.35-1.72-.068-3.5-8.151-3.294-17.746-2.4-26.412.365-3.483.55-8.083,1.364-12.342-3.586,7.766-6.288,15.871-9.986,23.561-4.13,8.587-9.443,16.463-13.095,25.288C101.63,491.777,100.187,491.511,100.316,491.022Z" transform="translate(41.617 557.077)" fill="#bf8963" opacity="0.8"/>
    <path id="Tracé_1895" data-name="Tracé 1895" d="M65.481,239.051a4.325,4.325,0,0,1,4.3-4.341,4.265,4.265,0,0,1,3.793,2.328l16.47-.084L81.8,228.8a4.093,4.093,0,0,1-4.156-.992,4.172,4.172,0,0,1-.031-5.92,4.183,4.183,0,0,1,5.927-.037,4.037,4.037,0,0,1,1.212,2.889,4.34,4.34,0,0,1-.18,1.258l8.244,8.162-.086-16.47a4.264,4.264,0,0,1-2.365-3.773,4.32,4.32,0,0,1,8.64-.042,4.259,4.259,0,0,1-2.33,3.8l.084,16.47,8.158-8.244a4.339,4.339,0,0,1-.194-1.256,4.04,4.04,0,0,1,1.181-2.893,4.142,4.142,0,0,1,2.959-1.247,4.191,4.191,0,0,1,3,7.139,4.117,4.117,0,0,1-4.149,1.036l-8.16,8.235,16.466-.079a4.279,4.279,0,0,1,3.773-2.367,4.32,4.32,0,0,1,.042,8.64,4.262,4.262,0,0,1-3.8-2.33l-16.468.079,8.244,8.165a4.083,4.083,0,0,1,4.158.983,4.2,4.2,0,0,1-5.9,5.962,4.074,4.074,0,0,1-1.21-2.893,4.269,4.269,0,0,1,.183-1.252L96.8,243.653l.081,16.463a4.279,4.279,0,0,1,2.365,3.773,4.32,4.32,0,1,1-8.64.042,4.276,4.276,0,0,1,2.33-3.8l-.081-16.466L84.7,251.915a4.209,4.209,0,0,1,.194,1.252,4.073,4.073,0,0,1-1.181,2.906,4.194,4.194,0,0,1-5.958-5.905A4.09,4.09,0,0,1,81.9,249.14l8.162-8.244-16.468.079a4.259,4.259,0,0,1-3.769,2.372A4.323,4.323,0,0,1,65.481,239.051Z" transform="translate(17.675 155.163)" fill="#bf8963" opacity="0.8"/>
    <path id="Tracé_1896" data-name="Tracé 1896" d="M85.592,389.829c27.809,11.6,56.666-1.588,77.1-20.6,3.406-3.17,20.529-13.588,20.659-17.772.042-5.681-20.1-6.638-23.862-7.6-22.916-5.8-52.8-6.105-74.405,4.27C64.207,358.152,62.278,380.087,85.592,389.829ZM71.56,374.464c-.392,0-.306-1.157.1-1.223,7.5-1,14.609-3.474,22.019-4.884,6.64-1.287,13.39-1.712,20.063-2.88-3.421-.235-6.988-1.032-9.72-1.465-6.818-1.065-14.2-2.856-19.739-7.192-.29-.227-.136-1.474.295-1.338,6.671,2.215,12.752,5.133,19.79,6.167,4.961.733,11.57,2.785,16.547,1.771.24-.064.323.2.312.5,6.354-1.41,12.675-2.926,19-4.431-2.2-.176-4.33-.524-5.832-.7-7.106-.794-13.777-2.484-19.9-6.262-.169-.112-.046-.812.145-.73a70.622,70.622,0,0,0,20.017,5.029c3.921.367,8.536,1.214,12.613,1.027.2-.057.4-.106.592-.145.081-.11.183-.242.339-.429.1-.121.145.119.117.328,4.376-1.005,8.759-1.971,13.159-2.849-7.56-.964-15.729-4.086-22.236-7.205-.389-.194-.154-1.461.328-1.421,4.812.372,9.383,2.651,13.9,4.246,3.954,1.377,7.934,2.554,11.993,3.613a1.619,1.619,0,0,0,.53-.1q4.455-.822,8.917-1.536,2.221-.37,4.455-.686c.792-.136,2-.675,2.746-.174a.746.746,0,0,1,.315.486.775.775,0,0,1-.3.759,4.213,4.213,0,0,1-1.514.53,13.968,13.968,0,0,1-1.852.5c-1.03.152-2.055.295-3.071.455-2.869.438-5.722.909-8.585,1.4a.732.732,0,0,1-.108.231c-3.058,3.177-6.724,5.784-9.878,8.88-2.8,2.766-5.6,5.859-9.111,7.738-.5.273-.271-1.14-.095-1.335,3-3.364,6.354-6.5,9.623-9.6a38.156,38.156,0,0,1,6.2-5.3c-2.9.535-5.775,1.076-8.646,1.674q-4.468.941-8.919,1.965c-1.377,1.03-3.412,2.526-5.41,3.978-2.174,1.96-4.2,4.055-6.237,6.259-5.733,6.246-11.643,13.088-18.666,17.915-.9.607-.719-1.4-.345-1.813,7.135-7.81,15.139-15,22.569-22.555a24.618,24.618,0,0,1,3.01-2.607c-6.363,1.47-12.717,2.983-19.1,4.319-4.886,3.417-10.934,4.946-15.9,8.5a63.82,63.82,0,0,0-14.228,13.949c-.394.517-.554-.9-.37-1.21a47.573,47.573,0,0,1,14.2-14.756c2.167-1.459,4.77-3.287,7.511-4.765-.5.09-.992.183-1.489.268-8,1.373-16.16,1.784-23.981,4.024C82.42,372.9,77.124,374.459,71.56,374.464Z" transform="translate(21.613 460.736)" fill="#bf8963" opacity="0.8"/>
    <g id="Groupe_334" data-name="Groupe 334" transform="translate(135.505 146.825)" opacity="0.8">
      <g id="Groupe_333" data-name="Groupe 333">
        <path id="Tracé_1897" data-name="Tracé 1897" d="M189.459,248.075c-1.074-8.376-.829-14.043-6.046-21.568-2.02-2.948-3.87-6-6.011-8.869-2.55-3.395-5.8-4.284-7.1.708-.741,2.891-.128,6.107.717,8.891a38.4,38.4,0,0,0,5.221,11.047,26.345,26.345,0,0,0,3.6,4.081c1.012.92,2.858,2.007,3.188,3.45l-.009.57c-3.423-.255-7.309-2.537-10.241-4.169-7.973-4.449-16.239-9.084-21.9-16.461-.649-.845,5.509-8.75,6.547-14.466,1.272-6.911-3.943-22.764-8.583-21.128-2.308.814-4.092,15.667-3.718,18.4.631,4.671,4.422,9.009,4.394,10.184a24.985,24.985,0,0,1-1.4,4.675s-3.749-4.094-5.274-5.494A84.318,84.318,0,0,1,136.8,211.9c-3.311-3.624-7.39-7-8.048-12.1-1.067-8.268,8.424-10.785,10.235-17.935a16.642,16.642,0,0,0-.075-6.191c-.251-1.764-.9-11.168-4.1-6.1-1.892,3-4.8,5.694-5.725,9.216a36.107,36.107,0,0,0-1.452,7.557c-.079,1.709.084,3.437-.154,5.142-.244,1.85-1.2,3.3-1.76,5.021-3.351-2.328-5.183-7.364-7.056-10.864a26.524,26.524,0,0,1-3.558-11.405c-.152-4.3,7.454-29.055-5.927-29.066-6.167,0-5.221,10.2-5.221,10.2s-11.306-8.228-14.411,1.7c-1.274,4.024,1.877,8.836,8.679,12.472,2.97,1.588,11.515,4.057,12.653,6.354,1.355,2.689,2.583,6.356,5.782,12.1a152.079,152.079,0,0,0,8.49,13.249c.612.9,1.483,1.793,1.439,2.939-.044.772-4.937-1.294-5.412-1.619-3.5-2.394-6.284-5.41-10.213-7.221-.891-.431-11.782-3.346-11.713-1.657.378,8.226,7.17,16.688,15.79,16.65,5.01-.02,8.88-3.9,14.18-2.8,4.422,4.642,7.942,8.664,11.586,12.021,2.132,1.967,10.774,9.931,11.018,12.127.356,3.155-4.444.772-5.659.178a42.781,42.781,0,0,0-10.1-3.762c-6.779-1.5-14.34-1.379-20.644,1.813,2,4.325,13.564,11.018,18.208,11.54,10.846.766,17.843-9.848,27.629-3.228,5.564,3.681,11.535,6.642,17.194,10.14.838.519,12.237,8.14,5.348,7.373-6.812-.739-13.379-2.882-20.157-3.815a33.4,33.4,0,0,0-9.975-.1c-4.44.733-9.762,3.615-5.37,8.31,3.085,3.3,8.829,4.134,13.069,4.869a21.891,21.891,0,0,0,6.061.332c8.035-.889,17.612-4.752,24.3-9.124a2.84,2.84,0,0,0,.88-.766,1.143,1.143,0,0,0,.172-.645C192.8,253,189.679,249.851,189.459,248.075Z" transform="translate(-89.275 -145.181)" fill="#bf8963"/>
      </g>
    </g>
    <path id="Tracé_1898" data-name="Tracé 1898" d="M78.521,174.409a11.352,11.352,0,1,1-2.827,15.8A11.336,11.336,0,0,1,78.521,174.409Z" transform="translate(27.474 34.265)" fill="#bf8963" opacity="0.8"/>
    <path id="Tracé_1899" data-name="Tracé 1899" d="M106.571,219.79a11.353,11.353,0,1,1-2.827,15.8A11.339,11.339,0,0,1,106.571,219.79Z" transform="translate(61.137 169.264)" fill="#bf8963" opacity="0.8"/>
    <path id="Tracé_1900" data-name="Tracé 1900" d="M111.9,245.984a7.9,7.9,0,1,1-1.967,10.994A7.89,7.89,0,0,1,111.9,245.984Z" transform="translate(69.311 229.402)" fill="#bf8963" opacity="0.8"/>
    <path id="Tracé_1901" data-name="Tracé 1901" d="M54.145,303.466a7.9,7.9,0,1,1-1.969,10.994A7.891,7.891,0,0,1,54.145,303.466Z" transform="translate(0 360.285)" fill="#bf8963" opacity="0.8"/>
    <path id="Tracé_1902" data-name="Tracé 1902" d="M64.794,398.505A7.9,7.9,0,1,1,62.825,409.5,7.891,7.891,0,0,1,64.794,398.505Z" transform="translate(12.78 599.219)" fill="#bf8963" opacity="0.8"/>
    <path id="Tracé_1903" data-name="Tracé 1903" d="M73.943,320.134a13.327,13.327,0,1,1-3.318,18.551A13.315,13.315,0,0,1,73.943,320.134Z" transform="translate(20.961 399.441)" fill="#bf8963" opacity="0.8"/>
    <path id="Tracé_1904" data-name="Tracé 1904" d="M80.289,348.572a13.679,13.679,0,0,1-3.945-11.414,24.146,24.146,0,0,1,4.809-10.915,44.468,44.468,0,0,1,6-6.629,53.257,53.257,0,0,0-6.226,5.329c-5.951,6.059-11.68,15.266-5.758,23.244,5.073,6.833,14.114,8.321,21.946,6.411.4-.1.8-.24,1.2-.352a28.353,28.353,0,0,1-7.551.139A19.708,19.708,0,0,1,80.289,348.572Zm134.067,4.587a36.077,36.077,0,0,1,1.984,3.8l1.892,3.833,1.549,3.844c1.133,2.482,2.046,4.935,3.069,7.241,3.3,10.734,5.271,21.779,6.924,32.614A3.524,3.524,0,0,0,231.02,406c.194.158.425.3.64.449C229.089,389.069,225.005,367.994,214.357,353.159Zm-36.181-8.517c.744-.178,1.487-.326,2.231-.462l-.141-.425-.26.438-.029-.24C179.492,344.345,178.669,344.308,178.176,344.642ZM59.564,277.394a9.218,9.218,0,0,0,.651,2.323c.152.387.279.779.466,1.175a4.707,4.707,0,0,0,.838,1.08,10.427,10.427,0,0,0,2.686,1.727c-.031-.066-.042-.117-.077-.185-3.762-7.247,3.254-12.915,12.8-16.945a36.2,36.2,0,0,1,8.158-3.28c5.1-1.661,10.338-3.036,15.658-4.2,5.313-1.08,10.743-2.336,16.285-1.857a28.049,28.049,0,0,1,12.71,3.828,40.857,40.857,0,0,0-16.622-7.63c-5.357-1.184-16.133-.829-27.022,1.274-.431.117-.865.213-1.294.33-5.984,1.718-11.925,3.8-17.163,7.078a20.78,20.78,0,0,0-6.613,6.275A11.787,11.787,0,0,0,59.564,277.394Zm107.792,25.543a42.332,42.332,0,0,0-9.559-.656,60.846,60.846,0,0,0-6.47.73l-3.067.616c-.209.064-.5.046-.645.178l-.132.495c9.456-1.5,18.879-.642,26.619,5.758,7.375,6.1,11.289,14.73,12.516,23.88.227-.037.464-.073.64-.11l-.62.282.013.106,2.112-.119,1.85-.077c.125-.024.343.04.392-.055l-.077-.493-.141-.959c-.114-.682-.108-1.146-.293-1.982a48.592,48.592,0,0,0-2.475-9.317c-2.2-6.024-6.44-11.454-11.81-14.307l.026-.367a10.352,10.352,0,0,0-2.262-1.291c-.759-.359-1.492-.706-2.207-1.041C170.262,303.727,168.817,303.267,167.356,302.937ZM117,259.681c-1.32-.07-2.682-.128-4-.128,9.119,1.135,17.189,5.755,20.327,15.33,2.3,7.036,1.991,15.079.741,22.316l2.6-.818.669-.216a3.134,3.134,0,0,0,.176-.693l.387-2.574.3-2.757a46.735,46.735,0,0,0-.257-10.945,33.826,33.826,0,0,0-1.228-5.227,21.956,21.956,0,0,0-1.032-2.411,10.185,10.185,0,0,0-1.206-2.288,19.852,19.852,0,0,0-7.5-6.82A29.7,29.7,0,0,0,117,259.681ZM113.064,334.8c-.2.18-.4.352-.607.53a1.546,1.546,0,0,1,.563.231C112.481,335.2,112.921,335.059,113.064,334.8ZM89.607,317.845c-.194.13-.4.246-.592.376a.317.317,0,0,0,.334.033C89.42,318.107,89.523,317.984,89.607,317.845ZM64.534,285.361a12.032,12.032,0,0,1-1.551-.713,8.99,8.99,0,0,1-3.511-3.118,17.469,17.469,0,0,1-1.934-8.011,14.02,14.02,0,0,1,2.715-7.773,19.54,19.54,0,0,1,1.918-2.284c-6.906,4.686-10.305,10.992-6.09,19.112C57.289,284.9,63.934,287.534,64.534,285.361Zm112.517,59.579c.255-.068.51-.139.766-.2l-.024-.242A2.884,2.884,0,0,0,177.052,344.939Zm-61.264-12.721-.077.079C115.869,332.527,115.845,332.417,115.788,332.218Zm113.043,72.414c-.6-3.758-1.148-7.362-1.815-10.873-.123.651-.5.216-.757-.871.092-1.272-.53-3.742-1.221-6.385a59.494,59.494,0,0,1-1.577-7.449c-.07-.191-.1-.3,0-.086a.533.533,0,0,0,0,.086c.123.306.359.814.385.532a14.427,14.427,0,0,0-1.085-2.744c.121.282.268.343.385.618-1.056-2.486-1.6-5.278-2.528-7.824-.948-2.6-2-5.166-3.2-7.663a72.959,72.959,0,0,0-3.571-6.609c-1.01-1.644-1.294-4.108-2.7-5.443-.26-.249-.708-.306-.917-.548a4.813,4.813,0,0,1-.4-1.025,3.815,3.815,0,0,0-1.333-1.507,6.975,6.975,0,0,1-1.549-1.855c-.576-.977-.812-.649-1.6-.975-.673-.277-1.2-1.1-1.918-1.281-.392-.1-.977.262-1.25.123-.418-.213-.321-1.078-.616-1.4a13.243,13.243,0,0,0-2.625-1.551c-.31-.189-3.06-1.261-3.074-1.377a44.566,44.566,0,0,0-1.824-9.02,45.565,45.565,0,0,0-3.164-7.414c.647,1.558,1.1,3.173,1.61,4.774a49.866,49.866,0,0,1,1.166,6.792l.273,2.251.068.563.033.282c-.029.059-.178.013-.262.022l-1.195-.033-4.449-.13a32.774,32.774,0,0,0-5.289.235,48.363,48.363,0,0,0-20.2,6.64,27.639,27.639,0,0,0-4.433,3.14,26.926,26.926,0,0,0-3.94,3.786,20.547,20.547,0,0,0-5.115,9.526,19.482,19.482,0,0,0,.367,9.612,18.764,18.764,0,0,0,2.6,5.282,16.775,16.775,0,0,1,.1-9.465c1.687-5.954,6.437-11.181,12.5-15.04a.12.12,0,0,1,.07-.044c.134-.084.262-.176.4-.26,2.176-3.5,5.832-4.746,9.531-6.07,3.487-1.047,6.856-2.867,10.6-2.444l.4-.609a2.76,2.76,0,0,0,1.778-.541.251.251,0,0,0,.013.125,6.281,6.281,0,0,1,2.865-.022,4.912,4.912,0,0,0,2.275-.158l.5-.167.284-.108c.04.015.068.042.106.057-.108,1.01-.169,1.976-.216,2.968l-.132,2.908a17.256,17.256,0,0,1-.715,4.042c.4.165.284.348.484.6-.664.145-.222.924-.887.946.506.884.088,1.624-.033,2.4-.044.062-.11-.154-.392-.081-.482.253.5.242.207.537l-.262-.147c-.686.312.246,1.093-.293,1.509-.246-.262-.339-.037-.607-.2.755-1.542,1.652-3.17.9-5.056a.707.707,0,0,0,.548.037c-.009-1.005-.046-2.026,0-3.023.035-1.012.15-1.885.145-3.129-.24.13-.535.09-.6-.035.3-.222.176-.563.073-.858a.943.943,0,0,1,.216-1.085.274.274,0,0,0,.251-.095c.055-.178-.227-.112-.376-.1.048,0,.185-.1.231-.092-.057-.253.064-.658-.156-.728l-1.056.211-1.791.416a17.86,17.86,0,0,1-3.34.708l.037-.163c-.847.524-2.011-.11-2.689.887l-.053-.433c-.869.3-1.632.827-2.5,1.124a37.982,37.982,0,0,1,6.431-.649,52.644,52.644,0,0,1-3.122,14.943,45.017,45.017,0,0,1-6.981,12.717,2.248,2.248,0,0,1,.609.345,2.721,2.721,0,0,1,.917-2.13l.062.143c.1-.777,1.025-.924,1.463-1.184-.579-1.192.933-1.175.64-2.209.458-.594,1.412-1.137,1.866-1.932a1.4,1.4,0,0,0,.526.253c-.834-.845.667-.928-.128-1.49,1.437.231-.4-.911.843-.838-.051.022.026.077.092.123a1.434,1.434,0,0,1,1.56-.656c-.785-.143-.088-.515-.372-.812a10.523,10.523,0,0,0,.955-2.86c.9.524-.585-.537.013-.4l.293.042c.15-.128.614-.277.07-.728a.562.562,0,0,0-.134.073c.033-.026.042-.1.134-.073.416-.183,1.142.033,1.386-.37a2.881,2.881,0,0,0,.658.106l-.458-.246c.647-.141,1.144.286,1.8.581.647.18.486.77.286.832-.139-.528-.906-.279-.829-.46-1.483-.543-.209.829-1.531.354-.266.121.3.279.3.389-.231.2-.563-.268-.607.09l.3.172c-.827-.161,1.173,1.1.416,1.1l-.033-.079c-1.388-.231.37,1.285-.686,1.421l.3.075c-.372,1.575-2.955,1.923-2.805,3.549A10.944,10.944,0,0,0,182,367.746c-.361.64-.713,1.3-1.115,1.927a6.747,6.747,0,0,1-1.659,1.476,13.658,13.658,0,0,1-2.7,4.279,6.076,6.076,0,0,1-4.649,1.76c-.972-.2-1.652.458-2.471,1.071a2.826,2.826,0,0,1-2.231.84c-2.937,1.461-6.229,2.361-9.1,1.527-.136-.037-.253-.092-.385-.136a19.792,19.792,0,0,0,5.131,2.607,21.324,21.324,0,0,0,9.713,1.08,23.1,23.1,0,0,0,9.826-3.274c9.262-8.277,13.7-22.828,13.806-36.033,0-.018,4.033,2.048,4.336,2.207a15.857,15.857,0,0,1,4.3,3.588c11.9,14.486,15.8,38.117,18.322,56.041.473,3.366,9.614,7.258,9.179,4.174-.147-1.047-.306-2.128-.462-3.208a10.7,10.7,0,0,1-1.456-.975A4.075,4.075,0,0,1,228.831,404.633Zm-38.414-49c.161.108.645.37.323.488C190.171,355.975,190.791,355.841,190.417,355.634Zm.708,1.815-.178-.279.334.279Zm.1-.341-.913-.917c.079,0,.189.051.268.046C190.116,356.244,191.92,357.088,191.223,357.108Zm-19.546,28.749s-.755.174-1.518.271c-.77.037-1.542.07-1.542.07l.383-.213a20.536,20.536,0,0,1-9.68-2.512c-3.135-1.5-5.463-3.839-7.274-5.322a11.749,11.749,0,0,0,1.122.44,22.715,22.715,0,0,1-6.385-12.721,17.7,17.7,0,0,1,3.621-13.4,5.207,5.207,0,0,0-.31.81c.717-.8,1.388-1.967,2.271-3.1.942-1.085,1.907-2.281,2.8-3.41l-.282.711a15.507,15.507,0,0,1,2.715-2.722,17.574,17.574,0,0,1,2.843-2.178,34.188,34.188,0,0,1,5.863-2.97l2.884-1.151a13.746,13.746,0,0,1,1.432-.493c-9.359,2.374-18,7.388-23.462,14.419-12.873,16.576,2.2,38.112,22,34.935a25.4,25.4,0,0,0,4.528-1.208c-.629.084-1.252.189-1.892.222Zm-44.363-75.688c.257-.1.524-.191.781-.29A.876.876,0,0,0,127.314,310.169Zm14.164-1.186c.363-1.234.678-2.469.959-3.7,1.1-.262,2.207-.475,3.309-.684l.22-.953a5.464,5.464,0,0,1,.385-1.338l1.371-.326,2.227-.552,0,.123a38.431,38.431,0,0,1,21.154.871,46.346,46.346,0,0,0-22.936-5.553c-1.487.035-2.964.152-4.435.308.871-10.138-1.12-19.757-6.092-27.486a24.556,24.556,0,0,1,2.337,7.718,46.473,46.473,0,0,1,.064,15.559c-.246,1.324-.345,2.385-.772,4.07l-.136.576c-.02.218-.341.158-.5.253l-1.155.341-1.892.548c-2.416.748-4.9,1.292-7.271,2.2-4.792,1.661-9.592,3.36-14.323,5.287a98.547,98.547,0,0,0-13.869,6.638l-.066-.242a63.175,63.175,0,0,0-15.387,11.984,31.34,31.34,0,0,0-5.4,8.162,13.717,13.717,0,0,0-.869,9.41,11.612,11.612,0,0,0,2.246,4.18l1.608,1.782c.592.53,1.256.979,1.877,1.474a20.189,20.189,0,0,0,8.84,3.236c5.813.607,11.482-1.032,16.62-3.236C124.92,341.144,136.711,325.165,141.478,308.983ZM120.8,333.827l-.02-.354.165.414Zm.268-.3-.363-1.3c.075.031.147.13.22.158C120.5,332.205,121.724,333.783,121.07,333.523Zm.068-1.192c-.449-.378.2-.26-.042-.623C121.189,331.88,121.5,332.342,121.138,332.331Zm13.621-20.27a6.109,6.109,0,0,0-.909,2.693.242.242,0,0,0-.11-.059c-.537,1.732-2.708,2.506-2.4,4.418-.414.675-.792,1.375-1.157,2.084l-1.278,2a26.628,26.628,0,0,1-2.823,3.773c.273.339.086.482.139.829-.647-.112-.726.807-1.342.55-.035,1.08-.878,1.588-1.4,2.323-.07.044-.018-.2-.317-.244-.572.055.334.451-.092.627l-.163-.255c-.794.033-.348,1.2-1.06,1.4-.09-.367-.293-.178-.458-.447,1.474-1.292,3.234-2.48,3.654-4.627.169.18.332.29.471.266a43.532,43.532,0,0,1,3.366-5.949c-.242-.053-.444-.282-.409-.453.713.035.306-1.582,1.2-1.7.013.064.059.189.161.207.108-.108-.051-.385-.11-.579.02.062.119.143.136.2.565-1.278,1.014-2.559,1.511-3.8.24-.612.532-1.239.785-1.813a10.163,10.163,0,0,1,.669-1.54l.154.029a3.114,3.114,0,0,1,.594-1.327c.275-.469.508-.988.055-.918l.678-.449c.18-.759.506-1.545-.8-.759l.761-.8-.882.7.4-.4c-1.036.686-1.516.282-2.559,1.316l.524-.744a5,5,0,0,0-1.03.559,68.145,68.145,0,0,1-13.979,22.1c.46.066.959.442,1.368.167a2.583,2.583,0,0,0,.561.372l-.295-.431c.684.123.913.75,1.362,1.307a.523.523,0,0,1-.187.942c.161-.579-.7-.647-.526-.794-1.091-1.14-.651.741-1.632-.266-.317.013.128.4.066.508-.328.106-.383-.5-.62-.156l.185.293c-.693-.493.5,1.562-.213,1.261l.011-.092c-1.179-.788-.356,1.426-1.426,1.135l.238.2c-1.278,1.309-3.87.724-4.627,2.376a11.017,11.017,0,0,0-4.53,2.306A14.667,14.667,0,0,1,102,342.8c-.04.022-.075.048-.114.068a22.167,22.167,0,0,1-4.526,3.483,6.592,6.592,0,0,1-4.182.748c-2.073.869-4.328,1.61-6.143,1.366-6.869-.92-5.219-7.307-2.409-11.8,4.871-7.791,12.6-13.115,20.943-17.313a12.517,12.517,0,0,1,3.23-2.07,18.407,18.407,0,0,0,4.055-2.519l.048.112c1.023-.753,2.3-.845,3.4-1.621-.088.095-.026.143.015.253a17.159,17.159,0,0,1,5.758-3.428c1.021-.376,2.066-.7,3.133-1.016l1.621-.482q1.086-.343,2.2-.7c2.7-.794,5.287-1.872,7.989-2.906l.988-.372c.068-.02.189-.088.213-.066l-.117.26-.246.519-1.038,2.105a37.4,37.4,0,0,1-2.365,4.039A3.5,3.5,0,0,1,134.759,312.061Zm-7.716-1.789,0-.121a1.333,1.333,0,0,1-.2.2C126.9,310.323,126.975,310.3,127.044,310.273Zm-3.9,1.527.132-.051-.187-.084A1.234,1.234,0,0,1,123.145,311.8Zm-7.025,20.149c.2-.062.656-.051.517-.579-.18.189-.372.367-.554.554Zm7.544-20.353c.618-.246,1.252-.493,1.888-.739C124.806,310.882,124.082,310.787,123.664,311.595Z" transform="translate(4.176 284.655)" fill="#bf8963" opacity="0.8"/>
  </g>
</svg>
