<svg xmlns="http://www.w3.org/2000/svg" width="67.275" height="47.552" viewBox="0 0 67.275 47.552">
  <g id="Groupe_572" data-name="Groupe 572" transform="translate(-507.567 -528.151)">
    <g id="Groupe_571" data-name="Groupe 571">
      <path id="Tracé_6223" data-name="Tracé 6223" d="M574.842,550.515l-.373-.806c-1.407-3.008-5.073-11.693-5.144-15.7l-.025-1.323-1.164-.35c-2.532-.76-22.3-4.009-26.874-4.182l-.056,0-.06,0c-4.573.173-24.339,3.422-26.869,4.182l-1.167.35-.024,1.323c-.071,3.992-3.737,12.688-5.142,15.7l-.377.806h0l.377.8c1.4,3.013,5.071,11.709,5.142,15.7l.024,1.323,1.167.351c2.53.758,22.3,4.008,26.869,4.182l.06,0,.056,0c4.576-.174,24.342-3.424,26.874-4.182l1.164-.351.025-1.323c.071-4.006,3.737-12.691,5.144-15.7Z" fill="#e5521b"/>
    </g>
    <path id="Tracé_6224" data-name="Tracé 6224" d="M558.9,554.29a9.906,9.906,0,0,0-1.536.731c-.1-.738-.2-1.476-.28-2.169l-2.244-16.134a3.467,3.467,0,0,0-1.961.154,3.223,3.223,0,0,0-2.324,3.532l1.668,12.207a4.549,4.549,0,0,1-2.428,2.41c-1.254.448-1.89-.331-2.049-1.608l-1.623-11.74c-.229-1.548-1.212-1.91-2.583-1.416a7.321,7.321,0,0,0-3.588,3.355,1.476,1.476,0,0,0,.764,2.089c.23-.436.4-.666.588-.737.347-.128.652.147.727.8l1.042,8.393a18.18,18.18,0,0,0,.467,2.2,7.448,7.448,0,0,1-2.884,2.835c-1.028.365-1.77-.011-2.274-2.339l-4.85-22.9a4.708,4.708,0,0,0-2.263.256,3.584,3.584,0,0,0-2.384,3.607l-1.581,22.958-5.979-20.6.03-.007a1.455,1.455,0,0,0,.791-1.955,1.135,1.135,0,0,0-.889-.79c-1.291,1.5-5.136,1.005-8.287,2.138-4.474,1.623-5.3,5.008-4.433,7.384.693,1.894,2.455,3.186,4.383,2.478a3.947,3.947,0,0,0,1.5-.968,3.67,3.67,0,0,1-1.559-1.917c-.651-1.777-.1-4.16,3.351-5.414l.192-.064c1.2,20.449-.934,26.485-3.524,28.7l-.124-.331a10.8,10.8,0,0,1-.622-4.183,3.372,3.372,0,0,0-2.135.045c-1.7.621-2.986,1.815-2.191,4.007,1.235,3.369,3.261,4.687,5.158,3.987,4.515-1.631,6.541-8.442,5.713-26.584L520.1,551.2l4.763,17.235a3.616,3.616,0,0,0,2-.181,3.289,3.289,0,0,0,2.407-3.4l1.2-22.337,3.705,17.991c.738,3.672,3.351,3.886,5.437,3.126,1.977-.712,3.51-2.719,4.745-5.235.938,1.669,2.376,2.625,4.586,1.816,1.9-.693,3.152-2.553,3.95-4.948.072,1.009.147,1.917.222,2.839-4.443,3.709-9.041,9.474-7.331,14.158,1.148,3.148,3.678,3.938,5.8,3.163,6.416-2.316,6.842-10.088,6.129-17.457a13.412,13.412,0,0,1,4.026-1.325C561.692,555,560.456,553.722,558.9,554.29ZM550.4,572.048a1.791,1.791,0,0,1-2.206-1.2c-.945-2.583,1.532-6.638,5.1-9.816C553.615,567.933,553.016,571.1,550.4,572.048Z" fill="#fff"/>
  </g>
</svg>
