<svg xmlns="http://www.w3.org/2000/svg" width="435.475" height="121.167" viewBox="0 0 435.475 121.167" fill="#000">
  <path id="Tracé_6222" data-name="Tracé 6222" d="M-3964.95-665.615l-6.622-2.729c2.494-2.521.933-7.289-2.66-8.122l3.932-4.781-4.432-2.372a16.2,16.2,0,0,1,7.022-6.862q-1.5-7.225-2.989-14.45c-.432-2.085-.85-4.307.023-6.276s3.585-3.405,5.576-2.326c-2.811-3.477-2.483-8.216-2.415-12.55.073-4.615.071-9.987,4.046-12.834-.795-1.56-2.705-3.573-3.5-5.133.43-4.11,1.43-8.516,4.787-11.278-3.668-.5-5.667-5.183-3.347-7.84q.726-2.905,1.451-5.811c-24.192-.614-253.77-6.432-293.985-6.873-20.177-.221-37.9-1.611-58.6-1.232-18.247.333-58.775-2.124-68.133-2.712a2.4,2.4,0,0,1,.015,1.15l2.5.543a10.408,10.408,0,0,1-2.835,7.393l5.367,2.337c-2.157,1.882-1.048,5.645,1.888,6.409l-3.429,3.6,3.571,1.989a13.253,13.253,0,0,1-6.062,5.117l1.92,11.346c.277,1.637.538,3.381-.258,4.886s-3.09,2.535-4.7,1.631c2.191,2.8,1.739,6.477,1.519,9.849-.236,3.591-.439,7.773-3.83,9.862.6,1.239,2.1,2.868,2.7,4.108-.512,3.187-1.5,6.584-4.383,8.627,3.011.506,4.484,4.218,2.466,6.211l-2.475,7.812a12.2,12.2,0,0,1-6.843,4.162l9.49,2.815a3.843,3.843,0,0,0-1.613,5.6c-2.452,1.776-1.1,5.93,2.069,6.339l-9.482,1.87c.095-.019.331.175.656.494,102.325.694,170.264.921,203.68,2.048,39.914,1.347,6.962-.26,42.03,1.053,33.991,1.274,152.769,3.389,182.943,3.915A13.954,13.954,0,0,1-3964.95-665.615Z" transform="translate(4397.656 779.796)" fill="#e5521b"/>
</svg>
