<svg xmlns="http://www.w3.org/2000/svg" width="651.676" height="75.85" viewBox="0 0 651.676 75.85">
  <g id="Groupe_12" data-name="Groupe 12" transform="translate(1082.226 -488.115)">
    <g id="mc_hrz_pos" transform="translate(-760.942 488.115)">
      <rect id="Rectangle_1" data-name="Rectangle 1" width="330.392" height="75.85" fill="none"/>
      <path id="Tracé_1" data-name="Tracé 1" d="M357.3,307.716V297.351a6.147,6.147,0,0,0-6.495-6.564,6.4,6.4,0,0,0-5.8,2.937,6.065,6.065,0,0,0-5.459-2.937,5.461,5.461,0,0,0-4.837,2.453V291.2h-3.593v16.514h3.628V298.56c0-2.867,1.589-4.387,4.042-4.387,2.384,0,3.593,1.554,3.593,4.353v9.19H346V298.56c0-2.867,1.658-4.387,4.042-4.387,2.453,0,3.627,1.554,3.627,4.353v9.19ZM410.984,291.2h-5.873v-5.009h-3.627V291.2h-3.351v3.282h3.351v7.531c0,3.835,1.486,6.115,5.735,6.115a8.441,8.441,0,0,0,4.491-1.278l-1.036-3.075a6.633,6.633,0,0,1-3.179.933c-1.8,0-2.384-1.106-2.384-2.764v-7.463h5.873Zm30.644-.415a4.871,4.871,0,0,0-4.353,2.418v-2h-3.559v16.514h3.593v-9.259c0-2.729,1.175-4.249,3.524-4.249a5.853,5.853,0,0,1,2.246.415l1.105-3.386a7.679,7.679,0,0,0-2.557-.449ZM395.3,292.515a12.349,12.349,0,0,0-6.737-1.728c-4.18,0-6.875,2-6.875,5.286,0,2.695,2,4.353,5.7,4.872l1.693.242c1.969.276,2.9.794,2.9,1.727,0,1.278-1.313,2-3.766,2a8.8,8.8,0,0,1-5.493-1.727l-1.693,2.8a11.914,11.914,0,0,0,7.152,2.142c4.767,0,7.531-2.246,7.531-5.39,0-2.9-2.176-4.422-5.769-4.94l-1.693-.242c-1.555-.207-2.8-.518-2.8-1.623,0-1.209,1.174-1.935,3.144-1.935a10.645,10.645,0,0,1,5.148,1.417Zm96.251-1.728a4.871,4.871,0,0,0-4.353,2.418v-2h-3.559v16.514h3.593v-9.259c0-2.729,1.175-4.249,3.524-4.249a5.853,5.853,0,0,1,2.246.415l1.105-3.386a7.678,7.678,0,0,0-2.557-.449Zm-46.295,8.672c0,5.01,3.49,8.672,8.81,8.672a8.65,8.65,0,0,0,5.942-1.969l-1.727-2.9a7.259,7.259,0,0,1-4.319,1.485,5.3,5.3,0,0,1,0-10.571,7.259,7.259,0,0,1,4.319,1.485l1.727-2.9a8.65,8.65,0,0,0-5.942-1.969c-5.321,0-8.81,3.662-8.81,8.672Zm33.65,0V291.2h-3.593v2a6.266,6.266,0,0,0-5.217-2.418c-4.629,0-8.257,3.628-8.257,8.672s3.627,8.672,8.257,8.672a6.266,6.266,0,0,0,5.217-2.418v2h3.593Zm-13.37,0a5,5,0,1,1,5.01,5.286A4.954,4.954,0,0,1,465.535,299.459Zm-43.358-8.672c-4.837,0-8.222,3.524-8.222,8.672,0,5.252,3.524,8.672,8.464,8.672a10.038,10.038,0,0,0,6.771-2.315l-1.762-2.66a7.867,7.867,0,0,1-4.8,1.727,4.587,4.587,0,0,1-4.94-4.042h12.265c.035-.449.069-.9.069-1.382-.034-5.148-3.213-8.672-7.842-8.672ZM422.108,294c2.315,0,3.8,1.451,4.18,4.008h-8.568C418.1,295.624,419.552,294,422.108,294Zm90.136,5.458v-14.89h-3.593v8.637a6.265,6.265,0,0,0-5.217-2.418c-4.63,0-8.257,3.628-8.257,8.672s3.627,8.672,8.257,8.672a6.265,6.265,0,0,0,5.217-2.418v2h3.593Zm4.2,6.733a1.052,1.052,0,0,1,.415.082,1.079,1.079,0,0,1,.339.225,1.058,1.058,0,0,1,.228.334,1.03,1.03,0,0,1,0,.813,1.063,1.063,0,0,1-.228.333,1.1,1.1,0,0,1-.339.226,1.036,1.036,0,0,1-.415.084,1.068,1.068,0,0,1-.99-.642,1.033,1.033,0,0,1,0-.813,1.049,1.049,0,0,1,.568-.559,1.085,1.085,0,0,1,.422-.082Zm0,1.865a.782.782,0,0,0,.316-.064.834.834,0,0,0,.257-.175.817.817,0,0,0-.257-1.329.79.79,0,0,0-.316-.063.815.815,0,0,0-.322,1.567.815.815,0,0,0,.322.064Zm.062-1.308a.444.444,0,0,1,.289.084.278.278,0,0,1,.1.227.264.264,0,0,1-.081.2.387.387,0,0,1-.23.1l.318.367h-.249l-.3-.365h-.1v.365h-.208v-.973Zm-.242.182v.259h.239a.234.234,0,0,0,.131-.032.11.11,0,0,0,.049-.1.108.108,0,0,0-.049-.1.236.236,0,0,0-.131-.032Zm-17.389-7.473a5,5,0,1,1,5.009,5.286A4.954,4.954,0,0,1,498.875,299.459Zm-121.333,0V291.2h-3.593v2a6.265,6.265,0,0,0-5.217-2.418c-4.629,0-8.257,3.628-8.257,8.672s3.628,8.672,8.257,8.672a6.265,6.265,0,0,0,5.217-2.418v2h3.593Zm-13.37,0a5,5,0,1,1,5.009,5.286,4.954,4.954,0,0,1-5.009-5.286Z" transform="translate(-208.04 -261.426)" fill="#fff"/>
      <g id="Groupe_1" data-name="Groupe 1" transform="translate(26.186 13.093)">
        <rect id="Rectangle_2" data-name="Rectangle 2" width="21.728" height="39.045" transform="translate(29.313 5.309)" fill="#ccc"/>
        <path id="Tracé_2" data-name="Tracé 2" d="M221.343,294.831a24.788,24.788,0,0,1,9.484-19.523,24.832,24.832,0,1,0,0,39.045,24.789,24.789,0,0,1-9.484-19.523Z" transform="translate(-190.651 -269.999)" fill="#d1d1d1"/>
        <path id="Tracé_3" data-name="Tracé 3" d="M289.073,294.831A24.831,24.831,0,0,1,248.9,314.354a24.835,24.835,0,0,0,0-39.045,24.831,24.831,0,0,1,40.176,19.523Z" transform="translate(-208.721 -270)" fill="#e6e6e6"/>
        <path id="Tracé_4" data-name="Tracé 4" d="M303.484,327.874v-.8h.322v-.163h-.821v.163h.322v.8Zm1.594,0v-.964h-.252l-.289.663-.289-.663H304v.964h.178v-.727l.271.627h.184l.271-.628v.729Z" transform="translate(-225.501 -287.655)" fill="#fff"/>
      </g>
    </g>
    <g id="symbols" transform="translate(-915.873 489.49)">
      <g id="Groupe_3" data-name="Groupe 3" transform="translate(45.417 17.219)">
        <g id="Groupe_2" data-name="Groupe 2">
          <path id="Tracé_5" data-name="Tracé 5" d="M23.325,16.8l-6.6,38.747h10.56L33.89,16.8Z" transform="translate(-16.722 -16.799)" fill="#fff"/>
        </g>
      </g>
      <g id="Groupe_5" data-name="Groupe 5" transform="translate(10.489 17.255)">
        <g id="Groupe_4" data-name="Groupe 4">
          <path id="Tracé_6" data-name="Tracé 6" d="M29.936,16.82,19.593,43.244l-1.1-3.99c-2.04-4.807-7.83-11.711-14.628-16.063L13.319,55.5l11.174-.019,16.63-38.673Z" transform="translate(-3.862 -16.812)" fill="#fff"/>
        </g>
      </g>
      <g id="Groupe_7" data-name="Groupe 7" transform="translate(0 16.888)">
        <g id="Groupe_6" data-name="Groupe 6">
          <path id="Tracé_7" data-name="Tracé 7" d="M21.109,19.825c-.614-2.36-2.393-3.064-4.6-3.148H.136L0,17.448c12.741,3.091,21.171,10.538,24.67,19.493Z" transform="translate(0 -16.677)" fill="#fff"/>
        </g>
      </g>
      <g id="Groupe_9" data-name="Groupe 9" transform="translate(62.585 16.554)">
        <g id="Groupe_8" data-name="Groupe 8">
          <path id="Tracé_8" data-name="Tracé 8" d="M44.445,24.648a19.5,19.5,0,0,1,7.9,1.483l.953.448,1.429-8.4a27.258,27.258,0,0,0-9.46-1.627c-10.435,0-17.79,5.255-17.847,12.787-.068,5.565,5.239,8.672,9.248,10.527,4.115,1.9,5.495,3.11,5.475,4.807-.033,2.594-3.281,3.783-6.315,3.783a22.166,22.166,0,0,1-9.943-2.029l-1.361-.619-1.486,8.672a33.444,33.444,0,0,0,11.766,2.064c11.1,0,18.314-5.193,18.39-13.241.046-4.4-2.77-7.762-8.873-10.519-3.694-1.8-5.954-2.993-5.932-4.807C38.394,26.37,40.311,24.648,44.445,24.648Z" transform="translate(-23.043 -16.554)" fill="#fff"/>
        </g>
      </g>
      <g id="Groupe_11" data-name="Groupe 11" transform="translate(92.002 17.263)">
        <g id="Groupe_10" data-name="Groupe 10">
          <path id="Tracé_9" data-name="Tracé 9" d="M63.245,16.815H55.086c-2.534,0-4.419.69-5.533,3.216L33.874,55.54h11.09s1.809-4.775,2.219-5.82c1.214,0,11.989.016,13.523.016.315,1.353,1.287,5.8,1.287,5.8h9.8ZM50.222,41.789c.869-2.224,4.207-10.829,4.207-10.829-.057.106.861-2.241,1.407-3.7l.712,3.341,2.447,11.187Z" transform="translate(-33.874 -16.815)" fill="#fff"/>
        </g>
      </g>
    </g>
    <g id="logo-carte-bleue" transform="translate(-1082.226 455.725)">
      <path id="Tracé_10" data-name="Tracé 10" d="M0,192.756Z" transform="translate(0 -97.431)" fill="#fff" fill-rule="evenodd"/>
      <path id="Tracé_15" data-name="Tracé 15" d="M122,60.343a10.2,10.2,0,0,0-10.357-10.022v0H73.9V70.376h37.747v-.011A10.2,10.2,0,0,0,122,60.343Zm0,21.272a10.2,10.2,0,0,0-10.357-10.022H73.9V91.649h37.747v-.013A10.2,10.2,0,0,0,122,81.614ZM45.458,71.591V70.376H73.173v-1.69c0-10.07-8.448-18.233-18.872-18.233H36.688c-10.423,0-18.874,8.163-18.874,18.233v4.863c0,10.069,8.45,18.233,18.874,18.233H54.3c10.423,0,18.872-8.163,18.872-18.233V71.591Z" transform="translate(-5.473)" fill="#fff" fill-rule="evenodd"/>
    </g>
  </g>
</svg>
