<svg xmlns="http://www.w3.org/2000/svg" width="45.388" height="41.111" viewBox="0 0 45.388 41.111">
  <g id="Groupe_559" data-name="Groupe 559" transform="translate(-242.853 145.498)">
    <path id="Tracé_2553" data-name="Tracé 2553" d="M287.194-119.781a8.57,8.57,0,0,0-2.575-3.341,6.285,6.285,0,0,0-2.255-.949c-.085-.023-.229.031-.216-.153a5.147,5.147,0,0,0-.538-2.558,14.877,14.877,0,0,0-2.964-4.1,17.376,17.376,0,0,0-4.843-3.59,9.249,9.249,0,0,0-4.16-1.022.591.591,0,0,1-.692-.549,8.626,8.626,0,0,0-2.107-3.73,22.036,22.036,0,0,0-3.037-2.858,22.442,22.442,0,0,0-2.3-1.533,7.328,7.328,0,0,0-3.352-.879,9.035,9.035,0,0,0-1.783-.118c-1.119.153-2.254.188-3.361.43a7.328,7.328,0,0,0-2.973,1.034c-.508.381-1.158.493-1.62,1-.143-.777-.251-1.486-.406-2.185-.152-.676-.609-.8-1.126-.338a.712.712,0,0,1-.433.239.934.934,0,0,0-.9.751.943.943,0,0,1-.526.691,1.376,1.376,0,0,0-.69.8,1.854,1.854,0,0,1-.843.968.419.419,0,0,0-.242.42c.026.213.209.255.386.269a23.381,23.381,0,0,0,2.45.227.769.769,0,0,1,.433.08c-.193.134-.363.234-.51.36s-.309.236-.449.38a11.013,11.013,0,0,0-2.381,4.673,6.573,6.573,0,0,0-.153,3.52,9.9,9.9,0,0,0,.615,1.938,15.246,15.246,0,0,0,1.922,3.195,15.57,15.57,0,0,0,3.49,3.174c.546.362,1.185.524,1.754.832a4.414,4.414,0,0,0,1.54.5,1.085,1.085,0,0,1,1.034.759,8.844,8.844,0,0,0,.7,1.537,14.92,14.92,0,0,0,.948,1.765,19.59,19.59,0,0,0,5.055,5.009,7.766,7.766,0,0,0,3.274,1.537c.355.046.706.124,1.056.2a1.31,1.31,0,0,1,1,.815,11.523,11.523,0,0,0,.554,1.254,6.736,6.736,0,0,0,3.293,3.129,17.278,17.278,0,0,0,5.753,1.751,17.152,17.152,0,0,0,3.474-.1c.6-.061,1.157-.315,1.755-.343a3.272,3.272,0,0,0,1.624-.548c.123-.077.256-.138.381-.211a12.864,12.864,0,0,0,2.432-1.475,13.8,13.8,0,0,0,2.5-3.149c.67-1.134.613-2.408,1-3.586a3.655,3.655,0,0,0,.018-1.165A11.735,11.735,0,0,0,287.194-119.781Zm-16.163-15.327a14.2,14.2,0,0,1,4.545,2,21.816,21.816,0,0,1,4.1,3.815,9.863,9.863,0,0,1,2.03,3.613c.1.338.13.694.2,1.041.023.122-.013.169-.145.156-.076-.008-.158.03-.234.02a9.489,9.489,0,0,0-4.092.5,25.077,25.077,0,0,0-2.718,1.2,14.036,14.036,0,0,0-2.074,1.064,6.649,6.649,0,0,0-.629.476.286.286,0,0,1-.471-.048,1.179,1.179,0,0,0-.576-.455c-.289-.111-.6-.274-.586-.712-.153.161.089.217-.027.343-.7-.738-1.7-1.214-2.029-2.281-.012.245.144.416.23.667-1.259-1.063-2.4-2.168-3.514-3.292q-1.821-1.833-3.787-3.51c-.249-.213-.469-.46-.713-.681-.135-.123-.07-.181.042-.265a12.488,12.488,0,0,1,4.052-2.327,20.439,20.439,0,0,0,2.084-.823,7.859,7.859,0,0,1,1.967-.555A5.992,5.992,0,0,1,271.031-135.108Zm8.322,10.779c-.442.5-1.026.274-1.432.532C278.3-124.16,278.792-124.165,279.353-124.329Zm-2.516.81-1.1.622c.221-.431.679-.491,1.038-.7Zm-8.9-.479-.065.068-.9-.819.082-.084Zm-4.661-4.375c-.337-.135-.337-.135-.56-.7A2.666,2.666,0,0,1,263.274-128.373Zm1.623-5.689a1.449,1.449,0,0,1,.874-.525C265.439-134.385,265.326-134.037,264.9-134.062Zm.908-.377a1.3,1.3,0,0,1,1.009-.471A2.263,2.263,0,0,1,265.8-134.439Zm-17.563-7.26c.009-.184.029-.371.225-.465a4.313,4.313,0,0,1,1.927-.559,4.617,4.617,0,0,1,.983.206.7.7,0,0,0,.58-.005c-1.634-.469-1.466-.648-3.569.147a2.865,2.865,0,0,1,.529-.381c.642-.273,1.209-.684,1.857-.958.272-.116.571-.147.812-.278a6.816,6.816,0,0,1,2.918-.642,12.353,12.353,0,0,1,2.694-.172c1.58.244,3.224.2,4.635,1.162a25.23,25.23,0,0,1,3.268,2.5,13.467,13.467,0,0,1,3.022,3.72,7.151,7.151,0,0,1,.567,1.5c.043.183.018.251-.155.308-.574.188-1.179.268-1.738.505-.093.04-.2.026-.145-.127.028-.088.052-.176-.064-.22,0,.286-.127.42-.432.526a17.1,17.1,0,0,0-4.871,2.424c-.342.26-.725.474-1.046.765-.065.059-.128.106-.205.039-.1-.084-.221-.148-.21-.31.024-.337-.18-.634-.151-.981-.208.085.013.232-.121.333-.212-.21-.175-.527-.372-.814.005.428.294.719.261,1.1-.32-.736-1.038-1.233-1.153-2.127-.189.225.1.319-.021.473-.745-.845-1.369-1.792-2.16-2.6a35.71,35.71,0,0,0-3.263-3.045,6.061,6.061,0,0,0-3.308-1.514,3.544,3.544,0,0,1-1-.257C248.406-141.495,248.232-141.5,248.242-141.7Zm9.747,7.759a1.5,1.5,0,0,1-.509-.82A2.174,2.174,0,0,1,257.989-133.94Zm-1.275-1.507c-.288-.239-.356-.582-.568-.833A.945.945,0,0,1,256.714-135.447Zm-2.073-2.192a4.6,4.6,0,0,1-1.109-1.181A5.075,5.075,0,0,1,254.641-137.639Zm-2.12-1.787c-.581-.124-.84-.583-1.17-1.02.478.1.707.486,1.024.749a1.045,1.045,0,0,1,.847.818c-.325-.21-.467-.585-.8-.759Zm-2.168-1.444c.448.061.567.467.841.687a12.454,12.454,0,0,1-1.786-.807c.579-.059.873.325,1.277.49C250.631-140.692,250.437-140.694,250.353-140.87Zm-5.432-1.986c.192-.211.344-.457.524-.68.232-.286.278-.254.48.05a9.048,9.048,0,0,0,.988,1.468c.055.056.1.138.2.092s.061-.138.026-.205a1.963,1.963,0,0,1-.133-.491c-.032-.128-.158-.25-.253-.135-.194.237-.2-.05-.192-.067.186-.33-.193-.639.016-.954-.224-.042-.062.194-.26.149a2.62,2.62,0,0,1-.1-.651c-.11.071-.1.174-.108.265s.112.271-.092.258c-.112-.007-.213-.154-.224-.294a.72.72,0,0,1,.645-.593c.293.024.383.232.389.5a4.581,4.581,0,0,0,.5,1.683,4.751,4.751,0,0,0,.019-1.735l.011.013c-.311-.459-.291-.51.159-.643.215-.063.287,0,.315.2.092.686.2,1.371.286,2.058.043.351-.332.14-.481.29l.069-1.033c-.284.644-.012,1.486-.816,1.924-.137-.167,0-.452-.193-.63-.137.12-.044.259-.088.4-.045-.2-.085-.386-.13-.592-.147.126,0,.261-.09.359-.343-.084-.594-.241-.581-.647,0-.1-.119-.156-.206-.133-.108.028-.052.13-.03.2.1.322-.042.369-.315.283-.05-.015-.106-.016-.155-.034-.188-.07-.47-.014-.531-.261S244.8-142.72,244.921-142.856Zm3.15,1.323c-.17-.045-.338.087-.523-.03.161-.058.233-.3.436-.214C248.037-141.755,248.043-141.618,248.071-141.533Zm-1.981.475c-.841,0-1.654-.258-2.582-.206.423-.37.6-.411.845-.247a.2.2,0,0,0,.029-.062c.014-.158-.1-.432.07-.446.233-.018,0,.288.144.4.121-.121-.083-.266.039-.406.275.11-.1.508.272.573-.006-.11-.011-.187-.014-.265,0-.1-.056-.241.113-.227.122.01.1.137.069.22-.084.194.162.205.2.342.01.041.072-.1.124-.139.141-.1.255-.065.279.114.033.25.107.249.242.056a.119.119,0,0,1,.169-.052c.137.087.441-.043.413.237S246.227-141.059,246.09-141.058Zm7.193,18.151a1.8,1.8,0,0,0-.023.584,3.014,3.014,0,0,0-1.033-.174,2.84,2.84,0,0,1-1.67-.734c-.12-.126-.227.068-.347-.042s-.311-.066-.418-.2a4.2,4.2,0,0,1-1.294-.783c-.377-.33-.816-.6-1.194-.938-.076-.067-.185-.112-.2-.233a9.452,9.452,0,0,1-1.764-1.987,11.742,11.742,0,0,1-2.122-4.919,2.609,2.609,0,0,1,.082-1.112c-.114.006-.2-.022-.181-.165a9.96,9.96,0,0,1,.862-3.191c.01-.018.043-.024.1-.056a44.872,44.872,0,0,0-.222,5.773l.113,0q-.009-.752-.019-1.5c.47,1.041.3,2.17.6,3.232l-.15-1.521c.483.749.35,1.651.7,2.452.053-.312-.176-.571-.119-.874.169.018.079.24.218.27v0l.008,0c.093-.264-.076-.462-.173-.681a1.917,1.917,0,0,1-.208-1.152,6.657,6.657,0,0,1,.661,2.158c-.182-.036-.114-.282-.28-.325v0l-.007,0c.1.593.537,1.057.679,1.643.031.131.258.236.387.369.4.412.49.992.854,1.415-.046-.159-.178-.29-.164-.46.064-.071.1-.018.137.011a10.3,10.3,0,0,0,1.347,1.05c.44.267.95.508,1.081,1.1a.4.4,0,0,0,.275.264c-.126-.212-.252-.425-.431-.725.269.133.519.182.633.332.15.2.351.209.535.279.462.177.973.273,1.16.921.06-.258-.106-.331-.11-.483a.6.6,0,0,1,.479.06.479.479,0,0,0,.436.036c.16-.076.277.047.344.179s.133.191.212.057c.045-.076.015-.185.157-.127C253.32-123.067,253.3-122.981,253.283-122.907Zm-9.076-10.269a4.5,4.5,0,0,1,.371,2.183A11.06,11.06,0,0,1,244.207-133.176Zm1.418,4.287a.618.618,0,0,1,.269.411,1.048,1.048,0,0,0,.339.623c.2.154-.015.27-.1.413A2.334,2.334,0,0,1,245.625-128.889Zm.926,1.66c.375.246.373.562.5.929C246.709-126.565,246.7-126.875,246.551-127.229Zm.5.6a1.38,1.38,0,0,1,.568.793C247.227-125.975,247.214-126.289,247.05-126.633Zm.756.8c.377.355.986.438,1.17,1.023C248.646-125.219,248.026-125.3,247.806-125.836Zm2.288,1.4c.274.159.617.238.758.631A1.236,1.236,0,0,1,250.094-124.435Zm1.442-1.741c.279.311.055.666.077,1a3.2,3.2,0,0,0,.233,1.167c-.154.061-.17-.1-.262-.12a1.169,1.169,0,0,0-.09-.4,3.058,3.058,0,0,1-.184-1.948C251.425-126.4,251.414-126.238,251.536-126.176Zm.5,2.674c-.421.035-.666-.046-.767-.453A3.448,3.448,0,0,1,252.04-123.5Zm1.307-.277a2.127,2.127,0,0,1-.652-.015v0h0l0-.006,0,0v.006c-.406.089-.586-.087-.728-.47a5.049,5.049,0,0,1-.032-2.277,1.665,1.665,0,0,0-.1-.89,2.512,2.512,0,0,1-.228-1.45c.014-.088.045-.253.021-.246-.144.045-.166-.021-.175-.131a2.966,2.966,0,0,0-.052-.385,6,6,0,0,1-.066,1.942c.148-.043.072-.246.217-.306a3.151,3.151,0,0,1,.185,1.971c-.1.059-.094-.154-.2-.139-.064-.312-.267-.594-.212-.932-.265.128-.086.372-.124.551a3.422,3.422,0,0,0,.373,2.43l-.008,0c-.01.009-.019.025-.03.025a.948.948,0,0,1-.854-.606,1.83,1.83,0,0,0-.225-.672,1,1,0,0,0,.066.489,4.408,4.408,0,0,0,.151.435c-.277-.008-.277-.008-.529-.322l0,0,0-.007v.008c-.264.1-.778-.242-.847-.557-.118-.532-.238-1.063-.368-1.647a9.557,9.557,0,0,0,.29,1.763,1.512,1.512,0,0,1-.636-.307l0,0a2.107,2.107,0,0,1-1.213-1.539,12.675,12.675,0,0,1-.3-2.009c-.01-.278-.15-.534-.164-.811a1.579,1.579,0,0,0,.115,1.039.348.348,0,0,1,.026.153,6.94,6.94,0,0,0,.354,2.116,1.866,1.866,0,0,1-.609-.663,17.668,17.668,0,0,1-.926-1.568,4.642,4.642,0,0,1-.284-1.771c-.043-.489-.066-.979-.1-1.468a17.373,17.373,0,0,0-.031,2.178,5.779,5.779,0,0,1-.649-1.839,4.657,4.657,0,0,0-.228-.928,3.731,3.731,0,0,1-.151-2.052c.183-1.142.21-2.3.4-3.444a3.419,3.419,0,0,1,1.312-2.054c.1-.088.2-.221.373-.2,0,.138-.113.206-.192.272a3.248,3.248,0,0,0-.826,1.821,2.171,2.171,0,0,0,.106.56.087.087,0,0,0,.119.068c.083-.024.088-.085.064-.154a1.51,1.51,0,0,1,.072-.923,4.427,4.427,0,0,1,1.236-1.9c.058-.06.125-.12.2-.071s.057.141.041.216a1.351,1.351,0,0,0,.031.852c.028-.343.059-.687.083-1.031.008-.108.009-.224.125-.264a.277.277,0,0,1,.229.021c.1.087.01.2-.026.285a2.352,2.352,0,0,0-.184,1.814c.052.132.063.284.216.391.137-.227.012-.427-.054-.618a2.179,2.179,0,0,1,.259-1.729.53.53,0,0,1,.125-.139c.372.295.9-.2,1.239.243l.011,0,.009.008a1.986,1.986,0,0,1,.974.362c.076.037.135.1.074.186s-.106-.008-.161-.025a2.143,2.143,0,0,1-.887-.523h-.016l0,0c-.179.09-.316-.079-.512-.094.064.216.019.443.2.611.366-.385.557-.326.789.235.317-.222.566-.089.738.414.186-.171-.082-.355.055-.525a.358.358,0,0,1,.21.352c0,.289.216.277.387.263.243-.021-.064-.216.078-.3.27.078.142.4.321.541.132-.061-.009-.193.077-.261.134.044.062.258.237.282.064-.151-.114-.215-.125-.4.247.125.454.172.528.492a3.966,3.966,0,0,0,.437.856c.151-.383-.125-.607-.229-.943.6.328.515.989.9,1.4.017-.337-.241-.567-.283-.909a5.854,5.854,0,0,1,1.175,1.007c.78.781,1.532,1.587,2.273,2.4.661.729,1.245,1.511,1.855,2.272.345.43.705.859,1.028,1.312.138.195.13.276-.054.437a29.525,29.525,0,0,0-3.968,3.921c-.193.245-.373.5-.623.837-.045-.463-.082-.835-.119-1.208l-.1.009a2.8,2.8,0,0,1,.062,1.268c-.127-.058-.089-.187-.152-.293-.135.161.092.384-.128.492-.148-.21-.1-.491-.228-.785-.049.481.181.858.159,1.251-.012.209-.213.407-.347.641-.266-.307-.147-.7-.381-.993a3.02,3.02,0,0,0,.127.758,1.222,1.222,0,0,1-.2,1.268,15.82,15.82,0,0,0-.872-3.136,5.467,5.467,0,0,0,.491,1.83c.2.45.16.945.347,1.394C253.575-123.85,253.462-123.771,253.347-123.779Zm3.039-4.3a1.409,1.409,0,0,1-.539.912A1.4,1.4,0,0,1,256.386-128.079Zm-1.249,1.592c-.179.347-.174.785-.538,1.057C254.765-125.786,254.748-126.218,255.137-126.487Zm9.9,14.743c0,.069-.021.157-.091.149a.9.9,0,0,1-.549-.173,2,2,0,0,1-.17-.206l0,0c.007.113.1.248-.16.219a7.6,7.6,0,0,1-3.373-1.294,21.4,21.4,0,0,1-2.9-2.264,23.863,23.863,0,0,1-1.861-1.993,11.95,11.95,0,0,1-1.916-3.266,3.189,3.189,0,0,1-.3-1.82,3.22,3.22,0,0,1,.78,2.178c.151-.24.018-.4.11-.615.32.662.21,1.393.6,2.032-.006-.427-.234-.753-.223-1.168a5.784,5.784,0,0,1,1.092,2.33c.094-.268-.054-.427-.075-.672a2.486,2.486,0,0,1,.763,1.386c.144-.115-.005-.241.109-.343a3.192,3.192,0,0,1,.714,1.039c.108-.1-.052-.181.035-.291.154.138.3.269.445.4s.167.291.414.392a1.22,1.22,0,0,1,.767.881,1.407,1.407,0,0,0,.408.672c-.012-.393-.3-.623-.305-.949.8.174.64,1.011,1.078,1.459a3.946,3.946,0,0,0-.3-.951c.738.143.663.842,1.007,1.311a4.222,4.222,0,0,0-.284-.859c.655.067.446.792.875,1.068-.1-.268-.191-.506-.282-.744.372.3.378.813.8,1.2a8.626,8.626,0,0,1-.444-1.018.747.747,0,0,1,.627.547,1.335,1.335,0,0,0,.505.741c-.107-.254-.215-.508-.348-.824a6.433,6.433,0,0,0,1.124.485c.195.042.223.231.294.389a.737.737,0,0,0,.229.343h0l0,0,.007.006c.054-.173-.19-.3-.044-.5a2.545,2.545,0,0,1,.567.255A.453.453,0,0,1,265.035-111.744Zm-11.183-11.623c.071.445.467.8.4,1.282A2.985,2.985,0,0,1,253.852-123.367Zm3.033,5.119c-.7-.445-.738-1.185-.475-2.3A3.509,3.509,0,0,1,256.885-118.248Zm.1.911a5.783,5.783,0,0,1-.49-1.049C256.769-118.12,257.125-117.9,256.987-117.337Zm.2-.277a1.4,1.4,0,0,1,.5.96A1.9,1.9,0,0,1,257.192-117.614Zm8.023,4.007a.673.673,0,0,1,.012.118c-.016.216.026.51-.185.6-.24.1-.47-.128-.683-.249-.175-.1.081-.193.056-.256a13.861,13.861,0,0,1-.42-1.735c.053.532.1,1.063.158,1.594.011.117.134.278-.046.329a.346.346,0,0,1-.373-.17.984.984,0,0,1-.13-.284,10.994,10.994,0,0,1-.379-3.222c.194.1.181.309.247.469.08.193.118.4.2.6s-.075.4.087.564a1.27,1.27,0,0,0,.027-1.237c-.1.054,0,.211-.138.246-.018-.015-.048-.028-.053-.047-.2-.861-.531-1.691-.661-2.569-.015-.1-.057-.19-.168-.173s-.074.121-.063.193c.013.091.043.179-.025.26.1-.1.157-.165.219.044a4.875,4.875,0,0,1,.255,1.884,7.638,7.638,0,0,0,.342,2.821,1.637,1.637,0,0,1,.056.227,1.917,1.917,0,0,1-.007.248c-.791-.4-.482-1.148-.672-1.723a4.451,4.451,0,0,0,.1,1.366c-.612-.056-.755-.5-.915-.944.017.18.035.36.053.541a2.1,2.1,0,0,1-1.79-1.61c-.076.287.116.517.216.79-.619-.215-.652-.278-.959-1.759a7.984,7.984,0,0,0,.077,1.126c-.352-.186-.575-.378-.567-.77a8.9,8.9,0,0,1-.06-1.482c.034-.194-.208-.414-.171-.654.123-.781-.283-1.532-.144-2.313a7.231,7.231,0,0,0,.147,2.9,3.748,3.748,0,0,1,.074.7,3.312,3.312,0,0,0,.112,1.05,1.051,1.051,0,0,1-.59-.866,9.892,9.892,0,0,1-.2-1.189,7.209,7.209,0,0,0,.079,1.434,1.629,1.629,0,0,1-.516-2.017.189.189,0,0,0,.124.221c-.005-.49,0-.959-.019-1.427a1.745,1.745,0,0,0-.13-.831,5.372,5.372,0,0,1,.04.818c-.038.411.128.824-.022,1.229h0c-.021-.1-.041-.193-.078-.362a5.972,5.972,0,0,0-.143,1.686,1.026,1.026,0,0,1-.494-.725,9.331,9.331,0,0,1-.077-1.293c0-.058-.025-.147.076-.138.037,0,.069.07.153.162a11.908,11.908,0,0,1-.045-2.327c.013-.2-.183-.443.117-.605.04-.021.035-.233-.02-.293-.372-.4-.1-.853-.116-1.279,0-.063.005-.127.013-.287a2.989,2.989,0,0,0-.186,1.215,21.822,21.822,0,0,0,.05,2.847.509.509,0,0,1,0,.195c-.023.068-.068.163-.124.18-.1.028-.122-.081-.148-.15a4.891,4.891,0,0,1-.365-1.956,15.947,15.947,0,0,1,.18-2.5,6.978,6.978,0,0,0-.3,1.278c-.154-.071-.091-.259-.253-.392a10.922,10.922,0,0,1,.092,4.354c-.727-.589-.351-1.344-.35-2.1-.243.426-.082.851-.214,1.25-.433-.266-.188-.714-.347-1.038-.11.08,0,.259-.144.337a10.883,10.883,0,0,1-.618-1.795l.008.006c0-.008,0-.018,0-.026l-.009.02c-.3-.193-.205-.577-.406-.813-.284-.332-.016-.579.117-.846a18.742,18.742,0,0,1,4.011-5.354.411.411,0,0,0,.068-.122l-.008.006c0-.005,0-.009,0-.014-.175,0-.21.219-.375.236.071-.328.115-.383.532-.669.069.192-.147.279-.157.433h.01l0,.009a13.334,13.334,0,0,0,1.435-1.136c.253-.217.413-.26.678.011,1.762,1.8,3.763,3.351,5.525,5.149,1.082,1.1,2.292,2.071,3.379,3.164.54.542,1.193.943,1.722,1.492.16.166.183.216-.008.372a21.781,21.781,0,0,0-2.728,2.5,14.165,14.165,0,0,0-2.43,3.507,4.37,4.37,0,0,1-.531.865l-.119-1.207c.138.1.121.33.345.387a3.708,3.708,0,0,1-.42-1.627c.005-.149-.17.035-.236-.051A17.2,17.2,0,0,1,265.215-113.607Zm-7.4-5.171,0,0,0,0Zm9.627,1.945q-.6.975-1.195,1.95A5.279,5.279,0,0,1,267.438-116.833Zm1.6,10a5.129,5.129,0,0,1-1.064-.753c-.158-.172-.37.008-.557-.183a7.275,7.275,0,0,1-1.772-3.055,2.261,2.261,0,0,1-.164-.868c.473.259.5.7.491,1.209.148-.211,0-.378.14-.563.24.515.941.765.775,1.438a1.25,1.25,0,0,0,.235,1.02,2.652,2.652,0,0,1-.135-.982c.007-.121-.1-.322.057-.345.2-.029.156.2.19.327a4.15,4.15,0,0,0,.67,1.644c-.146-.525-.55-.9-.212-1.436.472.66.442,1.544,1.055,2.1a3.624,3.624,0,0,1-.54-1.6c.4.593.678,1.245,1.15,1.908a9.981,9.981,0,0,1-.529-1.325l.1-.058,1.09,1.947.091-.051a13.4,13.4,0,0,1-.7-1.44c.518.023.327.548.566.782.094-.122-.04-.245.035-.4.322.391.244.964.676,1.268-.166-.271-.079-.583-.211-.877.436.027.44.383.58.621s.192.566.481.734a3.9,3.9,0,0,1-.429-1.009c.784.14.626.886,1.019,1.39A12.663,12.663,0,0,1,269.039-106.829Zm4.463,1.307c.03.631,0,.669-.584.421-.383-.163-.817-.256-.946-.774-.048-.189.148-.357-.062-.491.587-.087.444.583.857.726.025-.237-.16-.319-.193-.482.22-.082.249.074.317.22.061.13.038.315.227.387.032-.2-.149-.334-.141-.523C273.408-106.112,273.486-105.865,273.5-105.522Zm-1-2.586a3.872,3.872,0,0,1-.279-1.09C272.494-108.884,272.505-108.843,272.5-108.108Zm.641.806c.053.1-.058.433.287.3.036-.014.1.154.056.2-.076.076-.077.242-.228.226-.241-.024-.479-.06-.555-.352a2.026,2.026,0,0,1-.027-.708,8.993,8.993,0,0,0-.075-1.129c-.009-.237-.176-.394-.249-.585a13.263,13.263,0,0,1-.38-1.431c-.051-.2.08-.373.094-.668a.8.8,0,0,0-.182.877,5.009,5.009,0,0,1,.271,1.811,2.435,2.435,0,0,0,.16.663,10.331,10.331,0,0,1,.3,1.23c.048.251-.134.124-.219.087-.408-.175-.878-.291-.882-.964-.13.265.037.385,0,.524a.958.958,0,0,1-.787-1.009c-.011-.2-.154-.325-.242-.483a2.2,2.2,0,0,1-.287-1.32c.083-.7.017-1.391.039-2.091a3.117,3.117,0,0,0-.239,1.159,10.874,10.874,0,0,0,.173,1.865,1.05,1.05,0,0,0,.39.691c.115.071.078.213.1.327.019.1.01.2-.087.238-.125.053-.211-.053-.255-.135a1.791,1.791,0,0,1-.11-.373c-.1.034.005.218-.117.193a.441.441,0,0,1-.351-.286,2.792,2.792,0,0,1-.17-.8,9.516,9.516,0,0,0-.243-1.489,12.829,12.829,0,0,1,0-1.387,4.256,4.256,0,0,0-.073-.989c-.084.205.058.42-.12.588-.232-.471-.084-1-.283-1.465a1.858,1.858,0,0,0,.074,1.028,3.6,3.6,0,0,1,.2,1.653,4.559,4.559,0,0,0,.3,1.615c.064.362.111.727.169,1.117-.727-.209-.549-.826-.678-1.338-.173.246.039.5-.093.756-.625-.514-.259-1.254-.5-1.779-.1.4.121.836.063,1.338-.631-.351-.357-.99-.553-1.5-.121.322.062.608-.037.9-.512-.27-.34-.738-.37-1.138-.008-.105.071-.241-.137-.2v0h0c.123.126.014.274.039.412a3.07,3.07,0,0,1,.023.433c-.389-.19-.429-.243-.5-.668-.059.051-.018.338-.176.134a9.934,9.934,0,0,0-1.042-1.127.52.52,0,0,1-.106-.643,13.393,13.393,0,0,1,1.172-2.305,19.449,19.449,0,0,1,1.323-2.049,19.7,19.7,0,0,1,1.767-1.909,12.331,12.331,0,0,1,1.445-1.036.45.45,0,0,1,.513-.027c.827.429,1.549,1.014,2.333,1.507.918.578,1.813,1.193,2.714,1.8a13.76,13.76,0,0,1,2.376,2.138,5.068,5.068,0,0,1,.523.533c.117.17.066.213-.085.281a10.553,10.553,0,0,0-4.645,3.838,7.92,7.92,0,0,0-1.038,1.819c-.167-.108-.041-.3-.22-.427a2.719,2.719,0,0,1-.206,1.669c-.037-.662-.6-1.113-.66-1.758A2.883,2.883,0,0,0,273.145-107.3Zm.53-12.113a1.839,1.839,0,0,1,.886.653A1.941,1.941,0,0,1,273.675-119.415Zm2.52,1.544c.319.157.558.3.627.63C276.649-117.455,276.285-117.485,276.2-117.871Zm.854.54c.218.264.61.232.578.616C277.514-116.961,277.071-116.891,277.049-117.331Zm1.044.686c.492.247.483.685.721,1.064C278.357-115.825,278.3-116.222,278.093-116.645Zm.949.844c.321.159.26.433.264.674A.81.81,0,0,1,279.042-115.8Zm3.056,2.9c-.041.206-.195.252-.281.353a.9.9,0,0,0-.265.555c-.024.268-.3.514-.478.782-.212-.33.183-.39.229-.6-.289.012-.4.253-.578.445,0-.824.608-1.216,1.148-1.738-.044.327-.321.422-.449.707C281.722-112.514,281.786-112.835,282.1-112.9Zm.58,1.087a9.515,9.515,0,0,0,1.358.874c.237.14.348.18.088.454a1.182,1.182,0,0,1-.936.446c-.3-.015-.272.286-.438.346-.3-.246.208-.65-.266-.836-.077.194.04.393.026.625-.307-.246-.232-.567-.257-.872-.126.065.013.21-.126.266-.26-.241-.305-.656-.651-.846-.064-.035.012-.138.058-.2a3.23,3.23,0,0,1,.836-.766c.073-.048.182-.111.253-.029s-.058.106-.094.16C282.409-112.01,282.564-111.911,282.678-111.813Zm1.591.649c-.1-.081-.035-.216-.1-.31-.127.062.014.215-.116.292-.163-.107-.067-.312-.162-.451-.066.091.057.239-.088.3a.093.093,0,0,1-.089-.113c.059-.3-.248-.418-.327-.649-.011-.031-.125-.052-.181-.038-.086.021-.051.1-.037.162s.068.175-.051.187-.1-.112-.13-.2c-.1-.328.007-.459.344-.351a5.569,5.569,0,0,0,1.955.13,1.177,1.177,0,0,0-.651,1.175c-.225-.184-.127-.384-.3-.453C284.226-111.39,284.364-111.256,284.269-111.164Zm-2.1,1.923c.14-.031,0-.172.123-.236.142.206-.051.44.038.645.012.028-.085.145-.172.123a.2.2,0,0,1-.113-.145c-.1-.612-.641-1.043-.692-1.691-.013-.17-.231-.334-.031-.562.34.233.331.615.461.931.1-.01.046-.173.2-.17C281.815-109.937,282.09-109.609,282.173-109.241Zm.253.531a2.7,2.7,0,0,1,.984-.578c-.2.373-.6.479-.842.753a.139.139,0,0,1-.211.018C282.285-108.6,282.371-108.663,282.426-108.71Zm-1.761-3.811a2.693,2.693,0,0,1-1.423.78,4.562,4.562,0,0,1-1.8.176c-.14-.039-.335-.029-.383-.168-.054-.157.139-.227.24-.322a6.925,6.925,0,0,1,2.354-1.627l.3-.107c.133-.035.192.054.261.138.217.268.276.63.553.868C280.842-112.717,280.756-112.6,280.665-112.521Zm-3.7.305c-.142.273-.177.616-.512.79A.87.87,0,0,1,276.962-112.216Zm-1.724,2.3a1.792,1.792,0,0,1,.4-.965c.077-.08.141-.135.188.019.119-.265.159-.577.475-.75a1.066,1.066,0,0,1-.441.87s-.03-.006-.032-.013a.316.316,0,0,1-.009-.069C275.53-110.6,275.6-110.16,275.238-109.918Zm-.441.565a.517.517,0,0,0-.218.389.964.964,0,0,1-.289.544c-.191-.736.619-1.011.72-1.618C275.1-109.666,275.057-109.543,274.8-109.353Zm12.847-3.1c-.146-.035-.04-.207-.222-.247.033.331.064.645.1.958l-.122.017a1.764,1.764,0,0,1-.124-.9.371.371,0,0,0-.164.463,4.469,4.469,0,0,1-.084,1.587.31.31,0,0,1-.241.315,2.591,2.591,0,0,0-.09-1.16c0,.307.009.614,0,.921a1.887,1.887,0,0,1-.832,1.639c-.11.074-.056.227-.134.309a7.859,7.859,0,0,1-2.878,2.253c.292-.8.922-1.43.872-2.334a1.1,1.1,0,0,0-.272.583c-.15.55-.5,1.012-.671,1.534-.14.433-.468.511-.76.7-.322.205-.633.537-.977.574a17.928,17.928,0,0,0-1.852.326,8.317,8.317,0,0,0,.972-1.392c-.442.3-.564.847-.961,1.18-.085.071-.125.259-.258.194-.185-.091.08-.206.009-.381-.5.819-1.334.577-2.047.664a8.711,8.711,0,0,1-2.715-.179c-.138-.027-.306-.084-.274-.23.091-.416-.306-.86.092-1.264.082-.083-.059-.294.059-.429l.014.01-.008-.019-.007.008a.8.8,0,0,1,.055-.716,6.385,6.385,0,0,1,.517-1.069c.127.133.078.327.336.485-.505-.721-.01-1.119.314-1.574a15.5,15.5,0,0,1,1.331-1.7c.175-.185.327-.26.536-.07a.556.556,0,0,0,.445.135c.713-.074,1.425-.157,2.137-.232a1.1,1.1,0,0,0,.518-.266c.115.348-.144.536-.257.763-.2.392-.2.861-.582,1.187a2.543,2.543,0,0,1-.985.633,8.5,8.5,0,0,0-1.758.673c-.244.119-.438-.076-.666-.021-.118.028-.253-.014-.239.161s.154.082.246.089a4.739,4.739,0,0,0,2.019-.585,1.091,1.091,0,0,1,.417-.116c.464.029.687-.295.945-.575.08-.086.149-.182.229-.269.492-.534.514-.578.576-1.168l.034.008c-.084.762.4,1.6-.146,2.277-.4.492-.252,1.126-.615,1.589-.038.049-.09.355-.219.053a.821.821,0,0,1-.425.327h0c.408-.254.228-.647.236-1a3.71,3.71,0,0,0-.339.969.3.3,0,0,0-.137.3c.093-.02.11-.1.14-.173l.081-.025c.432.1-.013.289.046.427a3,3,0,0,0,1.748-2.622,5.988,5.988,0,0,0,.109-1.44c.635.155.877.688.72,1.557.247.036.205.239.229.4a9.736,9.736,0,0,1-.05,1.195c.457-.646.219-1.336.071-2.061a.86.86,0,0,1,.207.51c.116.48.306.576.783.385a2.069,2.069,0,0,0,.33-.211c.256-.166.394-.49.806-.453.193.017.321-.254.34-.476.013-.156.071-.194.227-.169a.385.385,0,0,0,.393-.51c-.114-.422.026-.579.463-.53a1.464,1.464,0,0,0,1.1-.231,4.833,4.833,0,0,1-.133,1.48,3.884,3.884,0,0,0,.311-1.722,2.865,2.865,0,0,1-.919.206c-.167.009-.328.066-.435-.152s.065-.284.156-.391c.2-.234.462-.41.273-.805-.088-.185-.122-.241-.322-.2a7.911,7.911,0,0,1-.868.107c-.137.011-.3.048-.383-.122l-.008.009v0a.358.358,0,0,1-.429.029c-.16-.084-.09-.222-.026-.328.047-.078.16-.143.23-.065.124.139-.147.149-.125.241.086.182.318-.2.35.123l.008-.006h0a.789.789,0,0,1,.455-.32,3.121,3.121,0,0,0,1.183-.865c.1-.092-.025-.237,0-.358a2.087,2.087,0,0,1-1.088.852c-.068-.1.126-.164.047-.267-.057-.036-.061.024-.079.047-.19.244-.279.641-.758.409-.118-.057-.263.16-.435.139-.1.064-.194.122-.285.191a.215.215,0,0,1-.34-.039,1.637,1.637,0,0,0-.648-.646c-.069-.038-.076-.184-.111-.28-.422.18-.5.69-.926.889a3.317,3.317,0,0,1-.531-1.108c-.033-.084-.061-.2.05-.242.534-.211.9-.7,1.459-.86.1-.027.193-.155.283-.057s.018.22-.01.335c-.07.3-.315.551-.251.888a.352.352,0,0,0,.365-.294,1.829,1.829,0,0,0,.141-.6c-.026-.484.26-.545.625-.483a2.473,2.473,0,0,0,.938-.073c.046.193-.093.324-.08.475a3.733,3.733,0,0,1-.367,1.438,2.908,2.908,0,0,0,.6-1.464.744.744,0,0,1,.9-.681,1.768,1.768,0,0,0,.7-.064.827.827,0,0,1,1.035.782l-.276-.356c-.291.1-.142.65-.61.541a1.629,1.629,0,0,0,.557.574c-.164-.237-.325-.464-.124-.771.11-.166.155-.205.292-.023a1.663,1.663,0,0,1,.232.775,1.417,1.417,0,0,0,.533.815A.608.608,0,0,1,287.644-112.453Zm-2.958-3.117a.464.464,0,0,1,.165-.046c.145-.1.322-.274.563-.112.012.009.075-.028.091-.057.178-.312.177-.312.513-.23-.265.573-.8.354-1.167.4A.194.194,0,0,1,284.686-115.57Zm3.194-.034c.007.13.051.288-.184.208.345.546.15,1.132.195,1.807-.353-.327-.563-.561-.548-.985a3.16,3.16,0,0,0-.36-1.381c-.075-.166-.248-.312-.263-.477-.048-.525-.488-.791-.733-1.183-.259-.411-.513-.825-.785-1.227-.105-.156-.123-.23.089-.22.374.64.906,1.166,1.323,1.775.013.019.043.027.066.041.188-.293-.1-.418-.224-.6-.022-.032-.063-.055-.076-.089a1.985,1.985,0,0,0-1.089-1.129h.014l-.186-.2a.146.146,0,0,0-.181-.031c-.119.063-.006.124.01.187a2.987,2.987,0,0,0,.62,1,1.6,1.6,0,0,1,.265.459c-.493-.194-.776-.72-1.465-.64a11.5,11.5,0,0,0,1.4.805.937.937,0,0,1,.493.482c.17.277.321.565.5.876-.363-.041-.69-.1-1.018-.108a1.122,1.122,0,0,0-.655.264,2.082,2.082,0,0,1-1.38.169,1.413,1.413,0,0,0-.662.083c-.264.119-.472.144-.446-.288.011.347-.153.456-.449.5a1.651,1.651,0,0,0-1.27.773.3.3,0,0,1-.3.163c-.144-.024-.077-.168-.1-.259-.016-.054.032-.132-.078-.162-.151.185.222.421-.059.592a1.4,1.4,0,0,1-.228-.807c-.013-.142-.079-.252-.189-.259-.194-.011-.018.183-.119.292a2.223,2.223,0,0,1-.238-.946c-.155.218.049.347-.036.446a13.58,13.58,0,0,0-1.729-1.379c-1.417-.879-2.822-1.779-4.224-2.681a9.136,9.136,0,0,1-1.389-.988c-.163-.154-.123-.188.046-.3a43.888,43.888,0,0,1,4.539-2.247,10.313,10.313,0,0,1,3.053-.707,7.766,7.766,0,0,1,3.413.474,4.484,4.484,0,0,1,2,1.308A10.178,10.178,0,0,1,287.88-115.6Z" fill="#282522" fill-rule="evenodd"/>
    <path id="Tracé_2554" data-name="Tracé 2554" d="M266.584-135.466l0-.008-.01.01v.005h0l.009,0c0-.007,0-.012,0-.019Z" fill="#282522" fill-rule="evenodd"/>
    <path id="Tracé_2555" data-name="Tracé 2555" d="M245.481-132.114l0,.059c0-.017.005-.033.009-.049Z" fill="#282522" fill-rule="evenodd"/>
    <path id="Tracé_2556" data-name="Tracé 2556" d="M264.851-116.237a.067.067,0,0,0,.016.025l-.009-.035Z" fill="#282522" fill-rule="evenodd"/>
    <path id="Tracé_2557" data-name="Tracé 2557" d="M285.658-114.048c.018-.029.036-.056.053-.086A.146.146,0,0,0,285.658-114.048Z" fill="#282522" fill-rule="evenodd"/>
    <path id="Tracé_2558" data-name="Tracé 2558" d="M275.346-132l-.009,0,0,.007Z" fill="#282522" fill-rule="evenodd"/>
    <path id="Tracé_2559" data-name="Tracé 2559" d="M275.691-130.933c-.033-.005-.065-.013-.1-.02a.658.658,0,0,0,.089.032Z" fill="#282522" fill-rule="evenodd"/>
    <path id="Tracé_2560" data-name="Tracé 2560" d="M275.346-132.491l.171-.05-2.217-.385a2.033,2.033,0,0,0,.644.205c.248.046.5.091.746.127a.248.248,0,0,1,.234.3c-.03.2-.186.055-.283.062-.342.027-.655-.158-.99-.159a1.137,1.137,0,0,0,.978.269.391.391,0,0,1,.464.325c.045.178.158.384.069.527-.1.168-.286-.108-.479-.023a2.7,2.7,0,0,0,.91.335c-.4-.172-.347-.594-.443-.926-.038-.131.109-.1.187-.122-.008-.061-.064-.061-.107-.081a.315.315,0,0,1-.2-.352C275.073-132.594,275.241-132.461,275.346-132.491Z" fill="#282522" fill-rule="evenodd"/>
    <path id="Tracé_2561" data-name="Tracé 2561" d="M277.459-130.3l-.007-.011-.006.008Z" fill="#282522" fill-rule="evenodd"/>
    <path id="Tracé_2562" data-name="Tracé 2562" d="M277.7-130.133a.738.738,0,0,1,.548.762c0,.16.063.324-.1.444.248.272.145.576.1.88-.015.094.043.171.192.121a1.551,1.551,0,0,1-.024-1c.023-.21-.356-.529.127-.656.032-.009,0-.1-.041-.132a2.438,2.438,0,0,0-1.035-.585C277.5-130.2,277.612-130.167,277.7-130.133Z" fill="#282522" fill-rule="evenodd"/>
    <path id="Tracé_2563" data-name="Tracé 2563" d="M270.644-134.383a11.574,11.574,0,0,1,2.539.2A4.435,4.435,0,0,0,270.644-134.383Z" fill="#282522" fill-rule="evenodd"/>
    <path id="Tracé_2564" data-name="Tracé 2564" d="M272.407-133.443a.318.318,0,0,0,.289-.041,3.861,3.861,0,0,0-1.667-.274C271.5-133.7,271.944-133.53,272.407-133.443Z" fill="#282522" fill-rule="evenodd"/>
    <path id="Tracé_2565" data-name="Tracé 2565" d="M275.692-130.933l-.01.012a.958.958,0,0,0,.21.032A1.1,1.1,0,0,0,275.692-130.933Z" fill="#282522" fill-rule="evenodd"/>
    <path id="Tracé_2566" data-name="Tracé 2566" d="M276.56-130.573h0l0,0Z" fill="#282522" fill-rule="evenodd"/>
    <path id="Tracé_2567" data-name="Tracé 2567" d="M276.568-129.616a1.477,1.477,0,0,0-.075-.8c-.017-.047-.132-.18.063-.16-.131-.326-.406-.3-.664-.316C276.478-130.707,276.448-130.115,276.568-129.616Z" fill="#282522" fill-rule="evenodd"/>
    <path id="Tracé_2568" data-name="Tracé 2568" d="M275.346-132l-.007.009.039.006C275.368-131.995,275.356-132,275.346-132Z" fill="#282522" fill-rule="evenodd"/>
    <path id="Tracé_2569" data-name="Tracé 2569" d="M275.378-131.989c.64.328,1.382.366,2.018.7A6.131,6.131,0,0,0,275.378-131.989Z" fill="#282522" fill-rule="evenodd"/>
    <path id="Tracé_2570" data-name="Tracé 2570" d="M272.706-133.491l-.01.007h.037l-.027-.008Z" fill="#282522" fill-rule="evenodd"/>
    <path id="Tracé_2571" data-name="Tracé 2571" d="M274.6-133.191a6.546,6.546,0,0,0-1.866-.293C273.339-133.291,273.983-133.322,274.6-133.191Z" fill="#282522" fill-rule="evenodd"/>
    <path id="Tracé_2572" data-name="Tracé 2572" d="M278.447-127.317l.508.227c-.439-.254.013-.669-.184-.961C278.526-127.853,278.9-127.436,278.447-127.317Z" fill="#282522" fill-rule="evenodd"/>
    <path id="Tracé_2573" data-name="Tracé 2573" d="M276.561-130.574l0,.005.016,0Z" fill="#282522" fill-rule="evenodd"/>
    <path id="Tracé_2574" data-name="Tracé 2574" d="M276.892-130.35a.93.93,0,0,0,.05.118c.1-.45.352.059.5-.073-.2-.2-.59-.209-.652-.566a.255.255,0,0,1-.218.3A.3.3,0,0,1,276.892-130.35Z" fill="#282522" fill-rule="evenodd"/>
    <path id="Tracé_2575" data-name="Tracé 2575" d="M277.452-130.312l-.008.007,0,0Z" fill="#282522" fill-rule="evenodd"/>
    <path id="Tracé_2576" data-name="Tracé 2576" d="M278.15-128.166c-.433-.1-.643-.4-.982-.474C277.748-128.148,277.748-128.148,278.15-128.166Z" fill="#282522" fill-rule="evenodd"/>
    <path id="Tracé_2577" data-name="Tracé 2577" d="M280.252-125.446l.852.63A1.53,1.53,0,0,0,280.252-125.446Z" fill="#282522" fill-rule="evenodd"/>
    <path id="Tracé_2578" data-name="Tracé 2578" d="M274.143-131.806c-.155.214.329.812-.408.634l.606.213C274.153-131.27,274.239-131.541,274.143-131.806Z" fill="#282522" fill-rule="evenodd"/>
    <path id="Tracé_2579" data-name="Tracé 2579" d="M259.972-119.189a7.357,7.357,0,0,0-.012-1.7c-.021.518-.042,1.038-.066,1.639a8.034,8.034,0,0,1-.392-1.1,4.919,4.919,0,0,1,.027.849,8,8,0,0,1,.075,1.995,1.373,1.373,0,0,0,.222.881,20.712,20.712,0,0,1-.138-2.7,14.227,14.227,0,0,0,.612,1.822A5.877,5.877,0,0,1,259.972-119.189Z" fill="#282522" fill-rule="evenodd"/>
    <path id="Tracé_2580" data-name="Tracé 2580" d="M259.5-120.352a.72.72,0,0,0-.062-.158C259.463-120.458,259.483-120.4,259.5-120.352Z" fill="#282522" fill-rule="evenodd"/>
    <path id="Tracé_2581" data-name="Tracé 2581" d="M260.95-118.979a1,1,0,0,0-.071-.562,7.39,7.39,0,0,0-.007,1.615,13.682,13.682,0,0,1,.653,2.5.374.374,0,0,0,.228.337c-.281-.68-.135-1.4-.525-2.05A3.146,3.146,0,0,1,260.95-118.979Z" fill="#282522" fill-rule="evenodd"/>
    <path id="Tracé_2582" data-name="Tracé 2582" d="M264.851-116.238l.007-.009-.006-.008C264.851-116.249,264.852-116.243,264.851-116.238Z" fill="#282522" fill-rule="evenodd"/>
    <path id="Tracé_2583" data-name="Tracé 2583" d="M264.662-117.41a4.814,4.814,0,0,0-.279,1.962,6.225,6.225,0,0,0,.4,1.88c-.019-.549-.134-1.078-.2-1.613a6.469,6.469,0,0,1,.033-1.748c.088.3.083.517.233.674C264.88-116.629,264.682-116.958,264.662-117.41Z" fill="#282522" fill-rule="evenodd"/>
    <path id="Tracé_2584" data-name="Tracé 2584" d="M260.462-118.59a6.63,6.63,0,0,0,.376,2.88A24.057,24.057,0,0,1,260.462-118.59Z" fill="#282522" fill-rule="evenodd"/>
    <path id="Tracé_2585" data-name="Tracé 2585" d="M263.714-118.021c.017.381.033.762.053,1.143,0,.061.01.143.105.124a.109.109,0,0,0,.085-.15,5.315,5.315,0,0,1-.048-1.364C263.889-118.158,263.709-118.143,263.714-118.021Z" fill="#282522" fill-rule="evenodd"/>
    <path id="Tracé_2586" data-name="Tracé 2586" d="M263.909-118.268a.147.147,0,0,0-.008-.075C263.906-118.318,263.906-118.293,263.909-118.268Z" fill="#282522" fill-rule="evenodd"/>
    <path id="Tracé_2587" data-name="Tracé 2587" d="M262.15-116.525l-.012-.015.006.024.007.014c0-.007,0-.014,0-.021Z" fill="#282522" fill-rule="evenodd"/>
    <path id="Tracé_2588" data-name="Tracé 2588" d="M261.761-117.546a2.028,2.028,0,0,0,.377,1.006,16.292,16.292,0,0,0-.6-2.311A6.843,6.843,0,0,0,261.761-117.546Z" fill="#282522" fill-rule="evenodd"/>
    <path id="Tracé_2589" data-name="Tracé 2589" d="M262.281-116.217l-.13-.285c.011.562.3,1.063.339,1.618a5.249,5.249,0,0,0-.2-1.686C262.289-116.478,262.286-116.381,262.281-116.217Z" fill="#282522" fill-rule="evenodd"/>
    <path id="Tracé_2590" data-name="Tracé 2590" d="M254.474-122.518a8.057,8.057,0,0,0,.44-1.738A4.571,4.571,0,0,0,254.474-122.518Z" fill="#282522" fill-rule="evenodd"/>
    <path id="Tracé_2591" data-name="Tracé 2591" d="M257.785-120.819h0Z" fill="#282522" fill-rule="evenodd"/>
    <path id="Tracé_2592" data-name="Tracé 2592" d="M258.043-120.948c-.009-.322-.056-.642-.088-.963l-.079.005c-.03.362-.06.725-.091,1.087C257.916-120.778,258.046-120.809,258.043-120.948Z" fill="#282522" fill-rule="evenodd"/>
    <path id="Tracé_2593" data-name="Tracé 2593" d="M257.784-120.819l0,0h0Z" fill="#282522" fill-rule="evenodd"/>
    <path id="Tracé_2594" data-name="Tracé 2594" d="M255.418-121.649a3.378,3.378,0,0,0-.063-1C255.342-122.317,254.938-121.975,255.418-121.649Z" fill="#282522" fill-rule="evenodd"/>
    <path id="Tracé_2595" data-name="Tracé 2595" d="M262.672-118.58h0a7.628,7.628,0,0,0,.023,1.843c-.091-.614.171-1.229-.022-1.843v0Z" fill="#282522" fill-rule="evenodd"/>
    <path id="Tracé_2596" data-name="Tracé 2596" d="M257.668-119.22a6.888,6.888,0,0,0-.356-1.577A6.021,6.021,0,0,0,257.668-119.22Z" fill="#282522" fill-rule="evenodd"/>
    <path id="Tracé_2597" data-name="Tracé 2597" d="M257.978-122.412a2.968,2.968,0,0,0,.028-1.083A2.085,2.085,0,0,0,257.978-122.412Z" fill="#282522" fill-rule="evenodd"/>
    <path id="Tracé_2598" data-name="Tracé 2598" d="M250.14-124.978a12.2,12.2,0,0,1-.4-3.892c0-.212.092-.428-.016-.637v0a2.658,2.658,0,0,1,.147-.959,9.789,9.789,0,0,0,.421,1.614,18.7,18.7,0,0,1-.433-2.836,9.517,9.517,0,0,1-.144,1.217,1.725,1.725,0,0,0,.009.966c-.209.128-.059.415-.249.551.057.694.1,1.388.175,2.08a5.522,5.522,0,0,0,.5,2.08A.578.578,0,0,0,250.14-124.978Z" fill="#282522" fill-rule="evenodd"/>
    <path id="Tracé_2599" data-name="Tracé 2599" d="M248.545-132.509c.224.582.183,1.209.366,1.809.173.57.36,1.134.552,1.7q-.409-1.767-.818-3.53Z" fill="#282522" fill-rule="evenodd"/>
    <path id="Tracé_2600" data-name="Tracé 2600" d="M249.463-129l.011.048v0l0,0v-.005Z" fill="#282522" fill-rule="evenodd"/>
    <path id="Tracé_2601" data-name="Tracé 2601" d="M247.869-128.733a12.024,12.024,0,0,0,.169-1.5c.035-.47-.033-.97.007-1.459A7.325,7.325,0,0,0,247.869-128.733Z" fill="#282522" fill-rule="evenodd"/>
    <path id="Tracé_2602" data-name="Tracé 2602" d="M245.525-136.4a11.335,11.335,0,0,0-.707,3.09C245-134.35,245.278-135.37,245.525-136.4Z" fill="#282522" fill-rule="evenodd"/>
    <path id="Tracé_2603" data-name="Tracé 2603" d="M245.9-131.774c.013.585.176,1.149.186,1.737.073-.874.088-1.749.224-2.614-.216.474-.166,1-.35,1.486Z" fill="#282522" fill-rule="evenodd"/>
    <path id="Tracé_2604" data-name="Tracé 2604" d="M247.33-132.413a.16.16,0,0,0,0,.022l.008-.014Z" fill="#282522" fill-rule="evenodd"/>
    <path id="Tracé_2605" data-name="Tracé 2605" d="M247.192-130.762c-.006-.553.152-1.084.138-1.629-.231.323-.167.733-.315,1.1a2.4,2.4,0,0,0-.1,1.268A1.019,1.019,0,0,0,247.192-130.762Z" fill="#282522" fill-rule="evenodd"/>
    <path id="Tracé_2606" data-name="Tracé 2606" d="M246.918-130.008l0-.017-.009.009.006,0-.006,0a.842.842,0,0,0,0,.123l.013-.115Z" fill="#282522" fill-rule="evenodd"/>
    <path id="Tracé_2607" data-name="Tracé 2607" d="M246.983-133.775c.115.439-.364.792-.153,1.208.575-.812.108-1.645.011-2.506A8.313,8.313,0,0,0,246.983-133.775Z" fill="#282522" fill-rule="evenodd"/>
    <path id="Tracé_2608" data-name="Tracé 2608" d="M247.444-132.593a7.763,7.763,0,0,0,.337,1.117,8.707,8.707,0,0,1-.262-2.188,3.859,3.859,0,0,0-.182,1.242C247.385-132.469,247.332-132.58,247.444-132.593Z" fill="#282522" fill-rule="evenodd"/>
    <path id="Tracé_2609" data-name="Tracé 2609" d="M247.329-132.413l.009.008v-.017Z" fill="#282522" fill-rule="evenodd"/>
    <path id="Tracé_2610" data-name="Tracé 2610" d="M245.761-132.375a3.608,3.608,0,0,1,.167-1.112c.008-.026-.017-.063-.028-.1-.1.048-.018.238-.224.2l-.043-.437a3.817,3.817,0,0,1-.136,1.709C245.642-132.147,245.764-132.217,245.761-132.375Z" fill="#282522" fill-rule="evenodd"/>
    <path id="Tracé_2611" data-name="Tracé 2611" d="M245.481-132.114l.012.01,0-.013Z" fill="#282522" fill-rule="evenodd"/>
    <path id="Tracé_2612" data-name="Tracé 2612" d="M248.686-130.416a.3.3,0,0,0-.1.318c0,.323.2.618.156.943a.816.816,0,0,0,.033.528c-.155-.071-.127-.243-.2-.351-.211.118-.2.276-.137.483a2.535,2.535,0,0,1,.224,1.022,4.886,4.886,0,0,0,.115,1.345.363.363,0,0,0,.02-.148,18.837,18.837,0,0,1-.024-2.352c-.078-.287.221-.524.063-.851A3.479,3.479,0,0,1,248.686-130.416Z" fill="#282522" fill-rule="evenodd"/>
    <path id="Tracé_2613" data-name="Tracé 2613" d="M252.913-127.878c.261.543.152,1.186.526,1.691A7.059,7.059,0,0,0,252.913-127.878Z" fill="#282522" fill-rule="evenodd"/>
    <path id="Tracé_2614" data-name="Tracé 2614" d="M252.637-125.3a2.732,2.732,0,0,0,.061,1.492A4.787,4.787,0,0,0,252.637-125.3Z" fill="#282522" fill-rule="evenodd"/>
    <path id="Tracé_2615" data-name="Tracé 2615" d="M252.783-125.377c.211.188.169.45.208.689a.783.783,0,0,0,.16.5c-.038-.389-.091-.7-.091-1.007C253.059-125.441,252.949-125.432,252.783-125.377Z" fill="#282522" fill-rule="evenodd"/>
    <path id="Tracé_2616" data-name="Tracé 2616" d="M252.774-125.374l.009,0,0,0Z" fill="#282522" fill-rule="evenodd"/>
    <path id="Tracé_2617" data-name="Tracé 2617" d="M250.636-125.347l.1.034a6.843,6.843,0,0,0-.051-1.539Z" fill="#282522" fill-rule="evenodd"/>
    <path id="Tracé_2618" data-name="Tracé 2618" d="M248.1-127.265a3.752,3.752,0,0,0,.482,1.731l0,0C248.467-126.123,248.182-126.666,248.1-127.265Z" fill="#282522" fill-rule="evenodd"/>
    <path id="Tracé_2619" data-name="Tracé 2619" d="M248.038-127.53c-.063-.311.1-.654-.151-1.027A1.533,1.533,0,0,0,248.038-127.53Z" fill="#282522" fill-rule="evenodd"/>
    <path id="Tracé_2620" data-name="Tracé 2620" d="M252.775-125.376l0,0-.006-.006Z" fill="#282522" fill-rule="evenodd"/>
    <path id="Tracé_2621" data-name="Tracé 2621" d="M252.441-126.292c.216.264.042.668.332.906C252.709-125.705,252.86-126.1,252.441-126.292Z" fill="#282522" fill-rule="evenodd"/>
    <path id="Tracé_2622" data-name="Tracé 2622" d="M252.091-124.847q.046-.663.094-1.325A2.6,2.6,0,0,0,252.091-124.847Z" fill="#282522" fill-rule="evenodd"/>
    <path id="Tracé_2623" data-name="Tracé 2623" d="M245.26-134.089c.068-.385.326-.729.24-1.137A3.794,3.794,0,0,0,245.26-134.089Z" fill="#282522" fill-rule="evenodd"/>
    <path id="Tracé_2624" data-name="Tracé 2624" d="M252.3-126.634c.006-.557.006-.557-.252-.925C252.218-127.27,252.13-126.917,252.3-126.634Z" fill="#282522" fill-rule="evenodd"/>
    <path id="Tracé_2625" data-name="Tracé 2625" d="M244.738-136.5a1.8,1.8,0,0,0,.395-1.078Q244.937-137.037,244.738-136.5Z" fill="#282522" fill-rule="evenodd"/>
    <path id="Tracé_2626" data-name="Tracé 2626" d="M246.6-135.6q-.116.522-.23,1.042l.09.015.213-1.041Z" fill="#282522" fill-rule="evenodd"/>
    <path id="Tracé_2627" data-name="Tracé 2627" d="M246.295-135.321a2.271,2.271,0,0,0-.232,1.1Q246.178-134.771,246.295-135.321Z" fill="#282522" fill-rule="evenodd"/>
    <path id="Tracé_2628" data-name="Tracé 2628" d="M248.376-131.863c-.058-.247-.106-.453-.154-.659C248.156-132.286,247.961-132.016,248.376-131.863Z" fill="#282522" fill-rule="evenodd"/>
    <path id="Tracé_2629" data-name="Tracé 2629" d="M264.339-139.531c.012-.168-.071-.28-.239-.243-.23.05-.261-.059-.281-.238-.016-.147-.02-.323-.222-.365a7.534,7.534,0,0,1-1.347-.483.323.323,0,0,0-.373-.018c.235.109.426.191.61.286.291.149.7.113.827.523.013.044.049.056.109,0,.15-.136.25-.116.26.058a.819.819,0,0,0,.265.506l-.008.011.009.01a.12.12,0,0,1,0-.019C264.062-139.659,264.216-139.453,264.339-139.531Z" fill="#282522" fill-rule="evenodd"/>
    <path id="Tracé_2630" data-name="Tracé 2630" d="M266.619-135.767a.483.483,0,0,0,.042-.65c.071.345-.13.375-.407.316.24.118.239.312.178.528-.02.071-.054.136-.131.088-.183-.113-.441-.149-.484-.418a1.463,1.463,0,0,1,0-.229c.165-.073.294.138.453.042-.442-.11-.567-.463-.642-.86.013.19.152.366.02.519-.065.076-.2.074-.021.166.136.069.116.195.1.31-.026.169-.19-.019-.247.084a7.984,7.984,0,0,0,.718.471c.177.139.277.052.386-.064C266.584-135.567,266.512-135.691,266.619-135.767Z" fill="#282522" fill-rule="evenodd"/>
    <path id="Tracé_2631" data-name="Tracé 2631" d="M266.654-136.426l.007.009,0-.02Z" fill="#282522" fill-rule="evenodd"/>
    <path id="Tracé_2632" data-name="Tracé 2632" d="M264.536-139.411c.482.1.562.446.533.877-.243-.032-.4-.26-.642-.286a5.389,5.389,0,0,0,.619.463.523.523,0,0,0,.682.052c-.505-.034-.6-.359-.6-.709,0-.124.082-.189-.072-.308-.217-.168-.467-.122-.692-.2A.5.5,0,0,0,264.536-139.411Z" fill="#282522" fill-rule="evenodd"/>
    <path id="Tracé_2633" data-name="Tracé 2633" d="M264.368-139.518l-.022-.017-.007,0v0C264.348-139.523,264.359-139.521,264.368-139.518Z" fill="#282522" fill-rule="evenodd"/>
    <path id="Tracé_2634" data-name="Tracé 2634" d="M260.365-143.109a2.369,2.369,0,0,0,.679.933c-.077-.223-.156-.4.1-.321a8.736,8.736,0,0,1,1.6.393c.039-.215-.153-.155-.255-.2C261.816-142.59,260.957-142.347,260.365-143.109Z" fill="#282522" fill-rule="evenodd"/>
    <path id="Tracé_2635" data-name="Tracé 2635" d="M262.752-142.1h0v.007Z" fill="#282522" fill-rule="evenodd"/>
    <path id="Tracé_2636" data-name="Tracé 2636" d="M266.547-137.019l.569.245c-.2-.327-.69-.278-.66-.772-.083.159.02.392-.244.3a.4.4,0,0,1,.231.48c-.213.017-.292-.252-.5-.23.173.191.355.376.518.576.089.11.137.069.193-.008A.753.753,0,0,1,266.547-137.019Z" fill="#282522" fill-rule="evenodd"/>
    <path id="Tracé_2637" data-name="Tracé 2637" d="M266.654-136.426l0-.011-.006.008Z" fill="#282522" fill-rule="evenodd"/>
    <path id="Tracé_2638" data-name="Tracé 2638" d="M259.462-143.575a4.307,4.307,0,0,0,1.71.333A13.184,13.184,0,0,0,259.462-143.575Z" fill="#282522" fill-rule="evenodd"/>
    <path id="Tracé_2639" data-name="Tracé 2639" d="M263.166-139.434l-1.373-.508A3.328,3.328,0,0,0,263.166-139.434Z" fill="#282522" fill-rule="evenodd"/>
    <path id="Tracé_2640" data-name="Tracé 2640" d="M265.4-137.772c.069.27-.135.671.377.713-.136-.162-.228-.31.106-.32A.71.71,0,0,1,265.4-137.772Z" fill="#282522" fill-rule="evenodd"/>
    <path id="Tracé_2641" data-name="Tracé 2641" d="M264.408-138.825l0,0,.016,0-.015-.015Z" fill="#282522" fill-rule="evenodd"/>
    <path id="Tracé_2642" data-name="Tracé 2642" d="M263.949-139.483c.013.151.23.378-.229.363a1.071,1.071,0,0,1,.6.531l.088-.236C264.154-138.975,264.137-139.287,263.949-139.483Z" fill="#282522" fill-rule="evenodd"/>
    <path id="Tracé_2643" data-name="Tracé 2643" d="M262.754-142.1l-.006.008.018-.005Z" fill="#282522" fill-rule="evenodd"/>
    <path id="Tracé_2644" data-name="Tracé 2644" d="M262.766-142.1a5.753,5.753,0,0,1,1.1.389C263.51-141.876,263.237-142.259,262.766-142.1Z" fill="#282522" fill-rule="evenodd"/>
    <path id="Tracé_2645" data-name="Tracé 2645" d="M262.086-141.316c.05.06.064-.077.128-.094s.024-.05-.016-.06c-.256-.062-.462-.285-.8-.236C261.593-141.47,261.914-141.522,262.086-141.316Z" fill="#282522" fill-rule="evenodd"/>
    <path id="Tracé_2646" data-name="Tracé 2646" d="M264.743-140.464a1.55,1.55,0,0,0-.975-.485A5.038,5.038,0,0,1,264.743-140.464Z" fill="#282522" fill-rule="evenodd"/>
    <path id="Tracé_2647" data-name="Tracé 2647" d="M271.442-109.708c-.316-.506-.112-1.074-.175-1.616-.27.5-.087,1.039-.128,1.555,0,.038,0,.1.026.111.429.245.418.675.486,1.076a6.173,6.173,0,0,0,.5,1.507c.038-.407-.268-.751-.278-1.1A2.91,2.91,0,0,0,271.442-109.708Z" fill="#282522" fill-rule="evenodd"/>
    <path id="Tracé_2648" data-name="Tracé 2648" d="M266.385-112.275c.15-.1.051-.28.2-.351.12.36-.146.714.088,1.045-.079-.862.155-1.714.008-2.581C266.586-113.546,266.489-112.929,266.385-112.275Z" fill="#282522" fill-rule="evenodd"/>
    <path id="Tracé_2649" data-name="Tracé 2649" d="M268.842-110.307c-.243-.951-.254-1.934-.408-2.9A5.77,5.77,0,0,0,268.842-110.307Z" fill="#282522" fill-rule="evenodd"/>
    <path id="Tracé_2650" data-name="Tracé 2650" d="M270.81-110.422c0-.072.013-.188-.1-.176s-.13.113-.094.216c.108.312.109.643.185.959a6.028,6.028,0,0,0,.42,1.536c-.1-.418-.151-.839-.214-1.262A11.311,11.311,0,0,1,270.81-110.422Z" fill="#282522" fill-rule="evenodd"/>
    <path id="Tracé_2651" data-name="Tracé 2651" d="M267.394-113.081c-.105-.036.014-.2-.146-.219a9.869,9.869,0,0,0,.027,1.753,16.854,16.854,0,0,0,.224-1.69C267.377-113.218,267.478-113.1,267.394-113.081Z" fill="#282522" fill-rule="evenodd"/>
    <path id="Tracé_2652" data-name="Tracé 2652" d="M268.21-111.1a24.576,24.576,0,0,1-.222-2.676A5.7,5.7,0,0,0,268.21-111.1Z" fill="#282522" fill-rule="evenodd"/>
    <path id="Tracé_2653" data-name="Tracé 2653" d="M273.207-108.422c-.026-.558.231-1.154-.322-1.717A5.179,5.179,0,0,1,273.207-108.422Z" fill="#282522" fill-rule="evenodd"/>
    <path id="Tracé_2654" data-name="Tracé 2654" d="M272.9-111.548a1.284,1.284,0,0,0,.115,1.31A4.316,4.316,0,0,1,272.9-111.548Z" fill="#282522" fill-rule="evenodd"/>
    <path id="Tracé_2655" data-name="Tracé 2655" d="M284.733-122.021l.006.005.006-.01Z" fill="#282522" fill-rule="evenodd"/>
    <path id="Tracé_2656" data-name="Tracé 2656" d="M283.784-122.515a3.651,3.651,0,0,1,1.157,1.223c-.287-.045-.393-.275-.613-.249-.09-.105-.157-.258-.309-.261-.3,0-.478-.228-.71-.352-.036-.308.3.134.277-.155-.2-.114-.485-.133-.63-.369a8.31,8.31,0,0,1-1.473-.292c.108.107.13.148.158.153a2.885,2.885,0,0,1,1.66.663c.209.418.624.506,1.023.62l.392.585c-.257-.019-.373-.271-.651-.448.083.3.271.36.392.479a1.721,1.721,0,0,1,.2.22c-.217.233.1.182.15.266.032.056.131.076.2.112.039.265.424.225.464.5.006.034.128.014.147-.094a.612.612,0,0,0-.533-.614.384.384,0,0,0-.327-.347c.1-.113-.087-.216,0-.346a1.046,1.046,0,0,1,.456.279c.107.115.237.209.354.317.084.077.189.084.243,0s-.056-.126-.115-.168a6.841,6.841,0,0,1-.991-1.158c-.028-.031,0-.062.036-.077C284.456-122.259,284.21-122.556,283.784-122.515Z" fill="#282522" fill-rule="evenodd"/>
    <path id="Tracé_2657" data-name="Tracé 2657" d="M282.361-115.938a2.318,2.318,0,0,0-.258-2.277A4.267,4.267,0,0,1,282.361-115.938Z" fill="#282522" fill-rule="evenodd"/>
    <path id="Tracé_2658" data-name="Tracé 2658" d="M284.356-117.419c-.2-.015-.288-.234-.5-.258-.024.14.093.181.176.21.35.123.4.348.323.682a.742.742,0,0,0,.025.633c-.015-.577.307-1.134.087-1.756C284.287-117.749,284.486-117.556,284.356-117.419Z" fill="#282522" fill-rule="evenodd"/>
    <path id="Tracé_2659" data-name="Tracé 2659" d="M285.551-119.467c.107.22.269.52.421.568.4.126.539.443.762.706.046.055.038.207.163.128s.067-.166-.021-.255A6.659,6.659,0,0,0,285.551-119.467Z" fill="#282522" fill-rule="evenodd"/>
    <path id="Tracé_2660" data-name="Tracé 2660" d="M284.28-120.782a5.606,5.606,0,0,0-2.033-.858C282.926-121.362,283.594-121.061,284.28-120.782Z" fill="#282522" fill-rule="evenodd"/>
    <path id="Tracé_2661" data-name="Tracé 2661" d="M286.429-119.4a2.757,2.757,0,0,1-.542-.883C285.7-119.775,286.169-119.652,286.429-119.4Z" fill="#282522" fill-rule="evenodd"/>
    <path id="Tracé_2662" data-name="Tracé 2662" d="M284.739-122.016l.012-.008,0,0Z" fill="#282522" fill-rule="evenodd"/>
    <path id="Tracé_2663" data-name="Tracé 2663" d="M284.865-122.093c-.012-.009-.071.04-.114.069a3.51,3.51,0,0,1,.792.787c.019-.116.051-.179.031-.207A3.42,3.42,0,0,0,284.865-122.093Z" fill="#282522" fill-rule="evenodd"/>
    <path id="Tracé_2664" data-name="Tracé 2664" d="M283.207-120.212c-.023,0-.069.081-.061.091a.7.7,0,0,0,.6.235C283.591-120.042,283.452-120.219,283.207-120.212Z" fill="#282522" fill-rule="evenodd"/>
    <path id="Tracé_2665" data-name="Tracé 2665" d="M283.056-119.03a1.466,1.466,0,0,0,.973.46Z" fill="#282522" fill-rule="evenodd"/>
    <path id="Tracé_2666" data-name="Tracé 2666" d="M285.544-117.063l-.761-.573A1.3,1.3,0,0,0,285.544-117.063Z" fill="#282522" fill-rule="evenodd"/>
    <path id="Tracé_2667" data-name="Tracé 2667" d="M276.717-104.965c.475-.069,1.581-1.044,1.451-1.185-.115-.046-.158.176-.312.076l.3-.5A6.709,6.709,0,0,1,276.717-104.965Z" fill="#282522" fill-rule="evenodd"/>
    <path id="Tracé_2668" data-name="Tracé 2668" d="M281.208-107.544a5.476,5.476,0,0,0-.5,1.4,2.955,2.955,0,0,0,.743-2.291C281.3-108.153,281.365-107.805,281.208-107.544Z" fill="#282522" fill-rule="evenodd"/>
    <path id="Tracé_2669" data-name="Tracé 2669" d="M280.345-106.64c.173.13.052.277-.008.381a3.466,3.466,0,0,1-.576.968c.276-.051.32-.331.494-.478a6.865,6.865,0,0,0,.523-1.556A2.919,2.919,0,0,0,280.345-106.64Z" fill="#282522" fill-rule="evenodd"/>
    <path id="Tracé_2670" data-name="Tracé 2670" d="M275.005-104.878a2.409,2.409,0,0,0-.558-.984,1,1,0,0,0-.365-.885c.141.318.07.7.325.984A1.145,1.145,0,0,0,275.005-104.878Z" fill="#282522" fill-rule="evenodd"/>
    <path id="Tracé_2671" data-name="Tracé 2671" d="M279.26-107.094l-.01.013.005.012,0-.006A.06.06,0,0,1,279.26-107.094Z" fill="#282522" fill-rule="evenodd"/>
    <path id="Tracé_2672" data-name="Tracé 2672" d="M279.26-107.094c.332-.4.225-.907.309-1.367A6.971,6.971,0,0,0,279.26-107.094Z" fill="#282522" fill-rule="evenodd"/>
    <path id="Tracé_2673" data-name="Tracé 2673" d="M278.051-109.994l-.958,1.1A12.6,12.6,0,0,0,278.051-109.994Z" fill="#282522" fill-rule="evenodd"/>
    <path id="Tracé_2674" data-name="Tracé 2674" d="M278.491-106.3c.084-.034.118-.085.1-.165C278.495-106.445,278.5-106.374,278.491-106.3Z" fill="#282522" fill-rule="evenodd"/>
    <path id="Tracé_2675" data-name="Tracé 2675" d="M278.586-106.462l.007,0,0-.009-.007,0Z" fill="#282522" fill-rule="evenodd"/>
    <path id="Tracé_2676" data-name="Tracé 2676" d="M281.572-105.926a3.823,3.823,0,0,0,1.45-1.69C282.593-107.025,281.846-106.7,281.572-105.926Z" fill="#282522" fill-rule="evenodd"/>
    <path id="Tracé_2677" data-name="Tracé 2677" d="M284.224-107.99c.514-.426.228-.877.164-1.331C284.052-108.913,284.306-108.465,284.224-107.99Z" fill="#282522" fill-rule="evenodd"/>
    <path id="Tracé_2678" data-name="Tracé 2678" d="M285.222-108.389c.036.011.063.027.071.021a.764.764,0,0,0,.27-.755C285.3-108.9,285.363-108.6,285.222-108.389Z" fill="#282522" fill-rule="evenodd"/>
    <path id="Tracé_2679" data-name="Tracé 2679" d="M243.4-134.163c-.038.227-.226.445-.1.694q.222-.836.448-1.668A2.166,2.166,0,0,0,243.4-134.163Z" fill="#282522" fill-rule="evenodd"/>
    <path id="Tracé_2680" data-name="Tracé 2680" d="M243.306-133.469l0,.01h0l0,.009h.012A.109.109,0,0,1,243.306-133.469Z" fill="#282522" fill-rule="evenodd"/>
    <path id="Tracé_2681" data-name="Tracé 2681" d="M285.1-114.677l-.392.951A1.546,1.546,0,0,0,285.1-114.677Z" fill="#282522" fill-rule="evenodd"/>
  </g>
</svg>
