<svg xmlns="http://www.w3.org/2000/svg" xmlns:xlink="http://www.w3.org/1999/xlink" width="313.241" height="313.241" viewBox="0 0 313.241 313.241">
  <defs>
    <filter id="Tracé_1719" x="0" y="0" width="313.241" height="313.241" filterUnits="userSpaceOnUse">
      <feOffset dy="3" input="SourceAlpha"/>
      <feGaussianBlur stdDeviation="25" result="blur"/>
      <feFlood flood-opacity="0.059"/>
      <feComposite operator="in" in2="blur"/>
      <feComposite in="SourceGraphic"/>
    </filter>
  </defs>
  <g id="Groupe_550" data-name="Groupe 550" transform="translate(-862.46 -2465.577)">
    <g id="Groupe_531" data-name="Groupe 531" transform="translate(937.46 2537.577)">
      <g transform="matrix(1, 0, 0, 1, -75, -72)" filter="url(#Tracé_1719)">
        <path id="Tracé_1719-2" data-name="Tracé 1719" d="M81.62,0A81.62,81.62,0,1,1,0,81.62,81.62,81.62,0,0,1,81.62,0Z" transform="translate(75 72)" fill="#fff"/>
      </g>
    </g>
    <g id="Groupe_532" data-name="Groupe 532" transform="translate(978.786 2507.951)">
      <g id="Groupe_182" data-name="Groupe 182" transform="translate(0 0)">
        <g id="Tracé_1713" data-name="Tracé 1713" fill="#202020">
          <path d="M 66.69352722167969 159.2866058349609 L 13.89449024200439 159.2866058349609 C 10.31669044494629 159.2866058349609 6.953030109405518 157.8933410644531 4.423150062561035 155.3634643554688 C 1.893270134925842 152.8335876464844 0.5000101327896118 149.4699249267578 0.5000101327896118 145.8921203613281 L 0.5000101327896118 13.89450263977051 C 0.5000101327896118 10.3167028427124 1.893270134925842 6.953042984008789 4.423150062561035 4.423162937164307 C 6.953050136566162 1.893282890319824 10.31669044494629 0.500002920627594 13.89449024200439 0.500002920627594 L 66.69352722167969 0.500002920627594 C 70.27133178710938 0.500002920627594 73.63498687744141 1.893282890319824 76.16487121582031 4.423162937164307 C 78.69474792480469 6.953042984008789 80.08802795410156 10.3167028427124 80.08802795410156 13.89450263977051 L 80.08802795410156 145.8921203613281 C 80.08802795410156 149.4699249267578 78.69474792480469 152.8335571289062 76.16487121582031 155.3634643554688 C 73.63498687744141 157.8933410644531 70.27133178710938 159.2866058349609 66.69352722167969 159.2866058349609 Z" stroke="none"/>
          <path d="M 13.89449310302734 0.9999847412109375 C 10.45024108886719 0.9999847412109375 7.212158203125 2.341262817382812 4.776695251464844 4.776702880859375 C 2.341262817382812 7.212158203125 0.9999923706054688 10.45024108886719 0.9999923706054688 13.89448547363281 L 0.9999923706054688 145.8921203613281 C 0.9999923706054688 149.3363647460938 2.341262817382812 152.5744476318359 4.776695251464844 155.0098876953125 C 7.212135314941406 157.4453430175781 10.45024108886719 158.7865905761719 13.89449310302734 158.7865905761719 L 66.69352722167969 158.7865905761719 C 70.13777923583984 158.7865905761719 73.37586212158203 157.4453430175781 75.81130218505859 155.0098876953125 C 78.24675750732422 152.5744476318359 79.5880126953125 149.3363647460938 79.5880126953125 145.8921203613281 L 79.5880126953125 13.89448547363281 C 79.5880126953125 10.45024108886719 78.24675750732422 7.212158203125 75.81130218505859 4.776702880859375 C 73.37586212158203 2.341262817382812 70.13775634765625 0.9999847412109375 66.69352722167969 0.9999847412109375 L 13.89449310302734 0.9999847412109375 M 13.89449310302734 -1.52587890625e-05 L 66.69352722167969 -1.52587890625e-05 C 74.36724090576172 -1.52587890625e-05 80.5880126953125 6.220779418945312 80.5880126953125 13.89448547363281 L 80.5880126953125 145.8921203613281 C 80.5880126953125 153.5658416748047 74.36724090576172 159.7865905761719 66.69352722167969 159.7865905761719 L 13.89449310302734 159.7865905761719 C 6.220756530761719 159.7865905761719 -7.62939453125e-06 153.5658416748047 -7.62939453125e-06 145.8921203613281 L -7.62939453125e-06 13.89448547363281 C -7.62939453125e-06 6.220779418945312 6.220756530761719 -1.52587890625e-05 13.89449310302734 -1.52587890625e-05 Z" stroke="none" fill="#202020"/>
        </g>
        <rect id="Rectangle_41" data-name="Rectangle 41" width="48.221" height="8.037" rx="3" transform="translate(16.183 142.293)" fill="#e96328"/>
      </g>
      <path id="Rectangle_195" data-name="Rectangle 195" d="M0,0H53.194a0,0,0,0,1,0,0V4.171a5,5,0,0,1-5,5H5a5,5,0,0,1-5-5V0A0,0,0,0,1,0,0Z" transform="translate(13.703 1.83)" fill="#fff"/>
      <rect id="Rectangle_196" data-name="Rectangle 196" width="47.692" height="3.669" transform="translate(8.201 111.888)" fill="#fff"/>
      <rect id="Rectangle_197" data-name="Rectangle 197" width="38.52" height="3.669" transform="translate(8.201 117.391)" fill="#fff" opacity="0.568"/>
      <rect id="Rectangle_198" data-name="Rectangle 198" width="38.52" height="1.834" transform="translate(8.201 124.728)" fill="#fff" opacity="0.529"/>
      <ellipse id="Ellipse_8" data-name="Ellipse 8" cx="23.846" cy="22.929" rx="23.846" ry="22.929" transform="translate(17.372 31.179)" fill="#71b142"/>
      <path id="check_2_" data-name="check (2)" d="M32.28,7.5a1.988,1.988,0,0,0-2.823,0L14.644,22.334,8.421,16.091A2.032,2.032,0,1,0,5.6,19.014l7.635,7.635a1.988,1.988,0,0,0,2.823,0L32.28,10.425a1.988,1.988,0,0,0,0-2.923Z" transform="translate(21.739 36.888)" fill="#fff"/>
    </g>
  </g>
</svg>
