<svg id="Groupe_3" data-name="Groupe 3" xmlns="http://www.w3.org/2000/svg" width="250" height="250" viewBox="0 0 250 250">
  <rect id="Rectangle_1" data-name="Rectangle 1" width="250" height="250" transform="translate(0 0)" fill="#fcfcfc"/>
  <g id="Groupe_2" data-name="Groupe 2">
    <g id="Groupe_1" data-name="Groupe 1">
      <path id="Tracé_1" data-name="Tracé 1" d="M166.034,77H83.966A5.966,5.966,0,0,0,78,82.966V144.05a5.966,5.966,0,0,0,5.966,5.966h82.068A5.966,5.966,0,0,0,172,144.05V82.966A5.966,5.966,0,0,0,166.034,77Zm0,5.971v43.39l-11.761-10.69a4.476,4.476,0,0,0-6.175.148l-11.9,11.9L112.72,99.691a4.477,4.477,0,0,0-6.825-.046L83.971,125.117V82.971ZM140.673,98.643a8.2,8.2,0,1,1,8.2,8.2A8.2,8.2,0,0,1,140.673,98.643Z" fill="#d1d1d1"/>
    </g>
  </g>
</svg>
