<svg xmlns="http://www.w3.org/2000/svg" xmlns:xlink="http://www.w3.org/1999/xlink" width="311.852" height="311.852" viewBox="0 0 311.852 311.852">
  <defs>
    <filter id="Tracé_1721" x="0" y="0" width="311.852" height="311.852" filterUnits="userSpaceOnUse">
      <feOffset dy="3" input="SourceAlpha"/>
      <feGaussianBlur stdDeviation="25" result="blur"/>
      <feFlood flood-opacity="0.059"/>
      <feComposite operator="in" in2="blur"/>
      <feComposite in="SourceGraphic"/>
    </filter>
  </defs>
  <g id="Groupe_551" data-name="Groupe 551" transform="translate(75 23.493)">
    <g transform="matrix(1, 0, 0, 1, -75, -23.49)" filter="url(#Tracé_1721)">
      <path id="Tracé_1721-2" data-name="Tracé 1721" d="M80.926,0A80.926,80.926,0,1,1,0,80.926,80.926,80.926,0,0,1,80.926,0Z" transform="translate(75 72)" fill="#fff"/>
    </g>
    <g id="Groupe_188" data-name="Groupe 188" transform="translate(26.598 8)">
      <g id="_1699645" data-name="1699645" transform="translate(0)">
        <path id="Tracé_1602" data-name="Tracé 1602" d="M456.954-1159.668c-5.217.062-16.29.187-24.606.28l-15.107.172-.7.763c-.389.42-1.744,1.853-3.021,3.193a22.841,22.841,0,0,0-2.227,2.523c.047.047,2.445.016,5.342-.078,2.912-.094,7.8-.234,10.886-.327,10.154-.3,23-.655,35.337-1.013,4.361-.125,8.472-.234,9.157-.234a2.755,2.755,0,0,0,1.215-.139c0-.14-5.061-4.579-5.747-5.031a1.328,1.328,0,0,0-.716-.249C466.594-1159.792,462.186-1159.731,456.954-1159.668Z" transform="translate(-392.578 1159.81)" fill="#0c1229"/>
        <path id="Tracé_1603" data-name="Tracé 1603" d="M777.135-1119.735l-1.635.093.047.467c.031.249.95,5.124,2.055,10.824s2.04,10.839,2.087,11.446c.062.592.311,4.594.56,8.877.265,4.283.654,10.589.857,14.016.218,3.425.389,6.385.389,6.572,0,.218.093.358.249.358a42.02,42.02,0,0,0,4.625-1.09,21.326,21.326,0,0,0-.031-3.052c-.093-1.62-.233-4.439-.327-6.261-.078-1.807-.233-4.8-.311-6.619-.094-1.807-.234-4.594-.312-6.182s-.218-4.594-.327-6.7l-.172-3.816-1.775-9.188c-.981-5.062-1.806-9.345-1.853-9.547C781.169-1119.906,780.889-1119.922,777.135-1119.735Z" transform="translate(-700.067 1126.075)" fill="#0c1229"/>
        <path id="Tracé_1604" data-name="Tracé 1604" d="M405.1-1109.153a27.262,27.262,0,0,0-2.912.171c-.046.047-.233,3.442-.4,7.554-.171,4.1-.421,9.919-.545,12.941-.171,3.863-.234,9.625-.234,19.576v14.11h.436c.233-.016,1.542-.171,2.912-.359,2.46-.342,2.492-.358,2.538-.748.156-1.277-.841-8.7-3.457-26.195l-.389-2.616,2.569-12.163c1.417-6.681,2.523-12.194,2.445-12.256A24.609,24.609,0,0,0,405.1-1109.153Z" transform="translate(-383.89 1117.066)" fill="#0c1229"/>
        <path id="Tracé_1605" data-name="Tracé 1605" d="M473.02-1106.369a7.221,7.221,0,0,0-1.246,1.541c.062.063,9.3,1.059,20.542,2.243l20.417,2.134,1.776-.343a15.558,15.558,0,0,0,1.869-.437,11.976,11.976,0,0,0-2.149-1.557l-2.274-1.449-6.338-.607c-3.473-.327-7.865-.732-9.749-.9-10.777-1.012-13.876-1.293-16.975-1.573-1.884-.171-3.676-.359-3.956-.4C474.422-1107.8,474.329-1107.755,473.02-1106.369Z" transform="translate(-443.638 1115.855)" fill="#0c1229"/>
        <path id="Tracé_1606" data-name="Tracé 1606" d="M467.1-1082.031c-.047.109,0,3.209.094,6.854.109,3.643.265,9.547.358,13.1a48.949,48.949,0,0,0,.358,6.635,7.527,7.527,0,0,0,.888.592l.7.405.9-.576.9-.56-.094-1.651c-.062-.9-.171-3.472-.249-5.7-.156-4.081-.358-9.469-.608-15.62-.078-1.822-.171-3.349-.218-3.4a8.633,8.633,0,0,0-1.511-.186C467.443-1082.249,467.178-1082.218,467.1-1082.031Z" transform="translate(-439.681 1094.289)" fill="#0c1229"/>
        <path id="Tracé_1607" data-name="Tracé 1607" d="M739.736-1060.314a11.71,11.71,0,0,0-1.449.358c-.047.031.608,3.489,1.433,7.662.825,4.189,1.651,8.441,1.853,9.453a18.456,18.456,0,0,0,.42,1.885c.14.14,3.785,1.806,3.832,1.759s-1.853-9.982-3.66-19.187C741.667-1060.907,741.839-1060.766,739.736-1060.314Z" transform="translate(-668.648 1076.03)" fill="#0c1229"/>
        <path id="Tracé_1608" data-name="Tracé 1608" d="M472.8-932.677c-2.258,1.449-4.2,2.632-4.329,2.632s-2.4-1.121-5.046-2.492l-4.8-2.508-3.535,2.368c-3.021,2.009-3.582,2.335-3.862,2.2-.171-.078-1.9-1.043-3.831-2.118a27.651,27.651,0,0,0-3.753-1.916c-.125.031-1.962,1.2-4.08,2.585a46.755,46.755,0,0,1-4.08,2.508,27.085,27.085,0,0,1-3.068-1.915c-1.573-1.044-3.021-2.025-3.239-2.165-.4-.265-.421-.265-1.293.374-.67.5-.888.747-.888,1.043,0,.779,1.589,12.241,1.729,12.381a.241.241,0,0,0,.327-.016,47.18,47.18,0,0,1,5.871-4.22,22.5,22.5,0,0,1,2.429,2.461c1.184,1.323,2.212,2.43,2.274,2.461a43.942,43.942,0,0,0,3.66-2.834,35.654,35.654,0,0,1,3.785-2.9c.14,0,2.3,1.292,4.812,2.881s4.626,2.881,4.719,2.881,1.729-1.262,3.644-2.8a45.17,45.17,0,0,1,3.691-2.8,26.142,26.142,0,0,1,2.772,2.258c1.4,1.246,2.6,2.258,2.647,2.258s1.418-1.059,3.037-2.351c1.635-1.293,3.084-2.414,3.224-2.492.2-.109.981.483,3.878,2.975,1.993,1.713,3.707,3.115,3.8,3.115a6.83,6.83,0,0,0,1.23-.888l1.059-.9-.109-3.909c-.062-2.149-.156-4.626-.218-5.5l-.094-1.6-3.893-1.744c-2.133-.965-4-1.791-4.142-1.838A27.912,27.912,0,0,0,472.8-932.677Z" transform="translate(-405.841 970.195)"/>
        <path id="Tracé_1609" data-name="Tracé 1609" d="M846.7-930.393c-1.277.529-1.4.623-1.433,1.044-.031.249.078,2.336.234,4.641l.265,4.2,3.628,2.3c1.993,1.262,3.707,2.3,3.816,2.3a34.338,34.338,0,0,0,3.083-1.76,21.845,21.845,0,0,0,4.345-3.1l1.432-1.37.514-1.806a10.035,10.035,0,0,1,.716-2.009,9.1,9.1,0,0,1,1.308-.67l1.09-.468.53-1.728a8.7,8.7,0,0,0,.451-1.806,46.534,46.534,0,0,0-4.578,1.183c-2.477.685-4.641,1.262-4.812,1.262s-2.274-.638-4.688-1.417c-2.4-.778-4.407-1.417-4.438-1.417C848.137-930.984,847.483-930.72,846.7-930.393Z" transform="translate(-758.968 966.634)"/>
        <path id="Tracé_1610" data-name="Tracé 1610" d="M313.481-924.657c-.078.109-.529.856-.981,1.651a8.128,8.128,0,0,1-1.153,1.666,12.373,12.373,0,0,1-2.025.561l-1.7.343-1.075,2.273A17.662,17.662,0,0,1,305.3-915.8a5.226,5.226,0,0,1-1.168.218c-.717.078-.981.156-.95.312a54.44,54.44,0,0,0,4.236,5,24.429,24.429,0,0,0,3.519-1.9c1.838-1.09,3.442-1.993,3.567-2.025a5.233,5.233,0,0,1,1.573.7l1.324.779.093-1.667c.062-.919.109-2.554.124-3.628l.016-1.978-1.869-2.383c-1.028-1.324-1.931-2.414-2.009-2.445A.37.37,0,0,0,313.481-924.657Z" transform="translate(-301.308 961.413)"/>
        <path id="Tracé_1611" data-name="Tracé 1611" d="M949.559-914.317c-.109.389-.311,1.09-.466,1.557l-.265.856-1.245.436a7.7,7.7,0,0,0-1.37.561,11.555,11.555,0,0,0-.421,1.885l-.3,1.76-.9.794c-.5.436-1.091.965-1.34,1.184l-.452.4.172,5.591c.094,3.084.28,9.219.405,13.627s.295,10.715.4,14.016c.234,8.69.39,25.245.265,30.213-.063,2.352-.172,12.3-.265,22.115s-.218,20.028-.265,22.706c-.062,2.663-.078,4.859-.03,4.859a8.024,8.024,0,0,0,.685-1.433,4.141,4.141,0,0,1,2.04-2.492,7.037,7.037,0,0,0,2.725-3.161l.717-1.262.171-13.3c.187-13.923.187-44.1.032-80.282C949.777-911.436,949.731-914.893,949.559-914.317Z" transform="translate(-841.312 952.598)"/>
        <path id="Tracé_1612" data-name="Tracé 1612" d="M357.661-857.353c-1.6,1.448-2.974,2.647-3.021,2.647s-1.308-1.153-2.8-2.57-2.756-2.569-2.8-2.569c-.062,0-1.62,1.339-3.473,2.975-2.414,2.118-3.457,2.959-3.676,2.9-.156-.031-2.4-1.339-4.983-2.9-2.6-1.558-4.8-2.8-4.89-2.772-.093.046-1.635,1.386-3.411,2.975a40.489,40.489,0,0,1-3.442,2.9,19.236,19.236,0,0,1-2.4-2.383c-1.2-1.308-2.289-2.477-2.414-2.585-.2-.156-.67.125-3.1,1.947-1.573,1.168-2.9,2.18-2.974,2.227-.062.062.14,2.3.436,5a46.4,46.4,0,0,1,.42,5.015,64.411,64.411,0,0,1-7.164,1.028l-.42-.047-.094-2.492c-.062-1.37-.109-3.862-.125-5.528s-.062-3.411-.125-3.862c-.093-.81-.109-.826-1.137-1.5-.576-.374-1.184-.763-1.355-.841-.249-.14-.888.187-3.862,1.931-1.963,1.153-3.629,2.087-3.691,2.087s-1.277-1.293-2.725-2.882a23.968,23.968,0,0,0-2.71-2.772c-.14.172-.452,11.728-.561,20.6-.062,6.588-.031,8.706.327,16.586,1.106,25,1.2,29.466.794,41.971-.249,7.9-.794,23.874-1,29.823a34.2,34.2,0,0,0-.031,3.862c.062.062,2.523,0,5.482-.124,13.783-.576,27.036-.67,35.726-.234,5,.249,19.451.794,30.68,1.168,20.822.685,29.029.934,29.107.841.031-.031.187-12.988.343-28.8.311-32.456.28-35.772-.654-65.487-.14-4.376-.3-10.263-.358-13.081-.078-4.688-.109-5.14-.358-5.124a28.082,28.082,0,0,0-2.834,1.526,22.354,22.354,0,0,1-2.834,1.5,31.08,31.08,0,0,1-5.311-2.865c-1.168-.732-2.149-1.308-2.18-1.293-.016.031.094,2.321.265,5.093.218,3.847.249,5.109.109,5.248a46.42,46.42,0,0,1-6.6,1.542c-.047-.047-.265-2.072-.467-4.486-.218-2.43-.4-4.438-.452-4.469a6.433,6.433,0,0,0-1.339.809c-.965.655-1.324.841-1.526.732-.14-.078-1.822-1.449-3.722-3.037-1.916-1.589-3.535-2.881-3.613-2.881C360.651-860,359.265-858.817,357.661-857.353Z" transform="translate(-291.136 906.691)" fill="#202020"/>
      </g>
      <rect id="Rectangle_41" data-name="Rectangle 41" width="50.877" height="8.48" rx="3" transform="matrix(1, 0.017, -0.017, 1, 14.263, 140.612)" fill="#e96328"/>
    </g>
  </g>
</svg>
