<svg xmlns="http://www.w3.org/2000/svg" width="46.812" height="45.828" viewBox="0 0 46.812 45.828">
  <g id="Groupe_546" data-name="Groupe 546" transform="translate(0 0)">
    <path id="Tracé_1569" data-name="Tracé 1569" d="M87.8,222.861c-.6.1-1.31.238-2.014.318H84.157a1.7,1.7,0,0,1-1.581-2.008c.136-2.742,2.858-2.52,4.921-2.527a.254.254,0,0,0,.1-.02h.165v-.155a.423.423,0,0,0,.026-.116c.069-1.9.2-3.8.215-5.712a.319.319,0,0,0-.165-.294l-.036-.023a.424.424,0,0,0-.231-.026c-2.5-.079-5.262-.384-7.607.387a6.384,6.384,0,0,0-4.713,5.46c-.1.407-.182.82-.245,1.234-.126.857.073,1.915-.119,2.735-.189.8-.764,1-1.459,1.058H71.837v.165a.307.307,0,0,0-.122.238c-.083,1.994-.106,3.979,0,5.973a.32.32,0,0,0,.318.318c1.055-.026,2.213-.308,2.861.949a9.529,9.529,0,0,1,.155,2.375c.033.5.056.992.086,1.488v8.758a7.206,7.206,0,0,0-.04,2.887.338.338,0,0,0,.3.232,33.155,33.155,0,0,0,3.324-.172c1.3.026,2.573.314,3.879.248a.264.264,0,0,0,.261-.261c.076-2.894-.251-5.827-.241-8.734,0-1.359-.013-2.715,0-4.075.01-.956-.222-2.735.4-3.489.9-1.095,2.437.033,3.569-.5h.632l.086-.833c.642-1.468.7-4.419.913-5.46A.345.345,0,0,0,87.8,222.861Zm-.89,4.676a2.988,2.988,0,0,1-.417,1.138,1.578,1.578,0,0,1-1.042.38h-.129c-.986-.01-2.093-.5-2.828,0h-.437v.542a7.6,7.6,0,0,0-.1,2.676c-.01,1.786.017,3.572.013,5.361,0,1.442.033,2.887.086,4.329v3.717l-.017.036H76.034a1.724,1.724,0,0,1-.39-.982v-1.3c.063-.721.189-1.419.2-1.819a74.624,74.624,0,0,0-.2-9.687v-2.877H72.905a1.757,1.757,0,0,1-.556-.853V224.71c.456-1.078,1.468-.847,2.428-1.022h.866v-3.671a7.894,7.894,0,0,1,1.611-4.746,6.334,6.334,0,0,1,4.088-2.328,10.156,10.156,0,0,1,1.032-.053l4.872.023v3.813c-.023.946.112,1.012-.751,1.247s-1.789-.069-2.7.139h-.017a1.626,1.626,0,0,0-1.7,1.554,14.01,14.01,0,0,0-.162,3.83.4.4,0,0,0,.394.394,22.145,22.145,0,0,0,2.811.03c.036,0,.966-.159,1.531-.228H87.1a.657.657,0,0,1,.162.43Zm-11.837,2.034h.06v.046Z" transform="translate(-56.771 -206.514)" fill="#fff"/>
    <path id="Tracé_1570" data-name="Tracé 1570" d="M109.861,221.2a21.135,21.135,0,0,0-5.639-5.874,22.691,22.691,0,0,0-7.894-4,18.5,18.5,0,0,0-7.058-.817,22.617,22.617,0,0,0-8.209,1.9,24.112,24.112,0,0,0-5.738,3.3.072.072,0,0,0-.063.013c-3.979,3.182-7.541,7.084-8.023,12.4a26.544,26.544,0,0,0,.255,6.373,22.6,22.6,0,0,0,3.347,10.676c1.541,3.3,3.628,6.671,6.876,8.182a29.7,29.7,0,0,0,16.08,2.7,24.091,24.091,0,0,0,6.3-1.773,16.137,16.137,0,0,0,4.4-3.327,23.059,23.059,0,0,0,4.035-4.21,22.294,22.294,0,0,0,5.3-11.079C114.492,230.655,112.52,225.409,109.861,221.2ZM74.053,248.514a33.414,33.414,0,0,0,8.427,5.146,21.329,21.329,0,0,0,4.782,1.611c-.546-.069-1.091-.152-1.634-.251A22.231,22.231,0,0,1,74.053,248.514Zm-5.93-22.562c.02-.069.04-.136.06-.205C68.163,225.816,68.143,225.885,68.124,225.952Zm.129-.42a15.413,15.413,0,0,1,.966-2.388A18.576,18.576,0,0,0,68.252,225.532ZM98.59,253.855c4.839-2.4,8.668-6.793,11.556-11.245.241-.37.486-.741.728-1.111A22.366,22.366,0,0,1,98.59,253.855Zm12.442-13.712c-2.705,4.528-6.062,8.93-10.451,11.969a17.553,17.553,0,0,1-15.571,2.206c-5-1.862-10.428-4.541-13.338-9.171-.2-.318-.39-.645-.572-.976a38.383,38.383,0,0,1-2.858-12.022,16.2,16.2,0,0,1-.079-1.779,22.231,22.231,0,0,1,8.506-14.747,31.927,31.927,0,0,1,7.633-3.542c4.634-1.465,10.054-.311,14.433,1.4,1.181.463,2.411.972,3.6,1.571a25.1,25.1,0,0,1,3.535,2.771,23.869,23.869,0,0,1,2.7,3.056,32.076,32.076,0,0,1,1.535,3.34,38.917,38.917,0,0,1,2.259,6.935c.066.688.1,1.389.1,2.1a22.134,22.134,0,0,1-.655,5.348A11.447,11.447,0,0,1,111.032,240.143ZM75.939,251.52a13.979,13.979,0,0,1-2.3-2.7,22.882,22.882,0,0,0,6.277,4.713A10.964,10.964,0,0,1,75.939,251.52Zm36.2-12.154c.086-.165.169-.331.245-.5q-.233.719-.519,1.419C111.958,239.981,112.051,239.677,112.137,239.366Z" transform="translate(-67.147 -210.461)" fill="#fff"/>
    <path id="Tracé_1571" data-name="Tracé 1571" d="M74.9,218.418a3.215,3.215,0,0,1-.079-1.141,7.373,7.373,0,0,1,2.434.155" transform="translate(-49.474 -194.855)" fill="#fff"/>
    <g id="Groupe_3" data-name="Groupe 3" transform="translate(15.579 6.379)">
      <path id="Tracé_1572" data-name="Tracé 1572" d="M73.511,214.221c-.089.112-.165.228-.245.341q1.067-.962,2.133-1.935A5.92,5.92,0,0,0,73.511,214.221Z" transform="translate(-68.606 -211.843)" fill="#fff"/>
      <path id="Tracé_1573" data-name="Tracé 1573" d="M77.842,212.437c-.2.046-.39.1-.582.162-1.376,1.32-2.732,2.659-4.088,4q-.134.362-.228.724C74.591,215.708,76.2,214.058,77.842,212.437Z" transform="translate(-69.349 -212.282)" fill="#fff"/>
      <path id="Tracé_1574" data-name="Tracé 1574" d="M77.182,214.662q1.161-1.141,2.332-2.272c-.126,0-.248,0-.37.01q-1.082,1.027-2.153,2.07-2.034,1.974-4.055,3.962c-.03.208-.053.42-.073.632C74.315,217.6,75.724,216.091,77.182,214.662Z" transform="translate(-69.536 -212.39)" fill="#fff"/>
      <path id="Tracé_1575" data-name="Tracé 1575" d="M80.572,212.393l-.407,0c-1.24,1.234-2.444,2.507-3.661,3.757s-2.431,2.454-3.651,3.674v.427q1.543-1.548,3.079-3.1C77.49,215.578,79,213.954,80.572,212.393Z" transform="translate(-69.559 -212.39)" fill="#fff"/>
      <path id="Tracé_1576" data-name="Tracé 1576" d="M81.723,212.394l-.473,0c-2.924,2.848-5.536,6.062-8.4,8.986v.592c1.5-1.551,2.9-3.228,4.339-4.72C78.72,215.659,80.182,213.982,81.723,212.394Z" transform="translate(-69.559 -212.388)" fill="#fff"/>
      <path id="Tracé_1577" data-name="Tracé 1577" d="M73.173,215.739c-.43.394-.867.784-1.316,1.158v.45a20.929,20.929,0,0,0,2.011-1.677C73.633,215.693,73.4,215.71,73.173,215.739Z" transform="translate(-71.857 -204.822)" fill="#fff"/>
      <path id="Tracé_1578" data-name="Tracé 1578" d="M76.842,218.727c-1.32,1.237-2.659,2.457-3.989,3.688v.5c1.26-1.2,2.523-2.4,3.8-3.592,2.368-2.2,4.448-4.706,6.8-6.929h-.288C80.992,214.431,79.024,216.68,76.842,218.727Z" transform="translate(-69.559 -212.381)" fill="#fff"/>
      <path id="Tracé_1579" data-name="Tracé 1579" d="M74.334,215.654q-1.25,1.156-2.477,2.341v.572q1.508-1.463,3.023-2.914Z" transform="translate(-71.857 -204.859)" fill="#fff"/>
      <path id="Tracé_1580" data-name="Tracé 1580" d="M79.255,220.025c-1.71,1.634-3.433,3.258-5.192,4.839-.691.625-1.468,1.227-2.206,1.865v.493c2.537-2.467,5.325-4.726,7.842-7.193,2.411-2.358,4.7-4.839,7.054-7.253v-.331C84.249,214.965,81.822,217.565,79.255,220.025Z" transform="translate(-71.857 -212.263)" fill="#fff"/>
      <path id="Tracé_1581" data-name="Tracé 1581" d="M75.926,216q1.369-1.285,2.752-2.547v-.4c-1.118.989-2.222,1.994-3.321,3A3.676,3.676,0,0,1,75.926,216Z" transform="translate(-63.782 -210.86)" fill="#fff"/>
      <path id="Tracé_1582" data-name="Tracé 1582" d="M71.922,223.309a1.38,1.38,0,0,0,.281.341c3.082-2.771,6.066-5.655,9.065-8.52a4.353,4.353,0,0,1,.122-.638q-1.072,1.007-2.14,2.031C76.876,218.8,74.25,220.941,71.922,223.309Z" transform="translate(-71.707 -207.54)" fill="#fff"/>
      <path id="Tracé_1583" data-name="Tracé 1583" d="M76.572,218.418c-1.3,1.25-2.7,2.447-4.038,3.7h.592c1.134-1.1,2.289-2.186,3.436-3.3,1.118-1.082,2.193-2.2,3.281-3.3l-.013-.331C78.745,216.258,77.674,217.353,76.572,218.418Z" transform="translate(-70.295 -205.953)" fill="#fff"/>
      <path id="Tracé_1584" data-name="Tracé 1584" d="M76.812,213.775c-.238.179-.466.364-.695.546l.056-.013a2.942,2.942,0,0,0,.407-.132l.284-.228a.621.621,0,0,0,.043-.155A.066.066,0,0,0,76.812,213.775Z" transform="translate(-62.028 -209.227)" fill="#fff"/>
      <path id="Tracé_1585" data-name="Tracé 1585" d="M72.853,221.188v.7c1.941-1.829,3.906-3.628,5.834-5.483.182-.179.37-.351.556-.526a.35.35,0,0,1-.116-.271v-.023c-.149.139-.3.274-.446.413C76.822,217.772,74.781,219.429,72.853,221.188Z" transform="translate(-69.559 -205.009)" fill="#fff"/>
      <path id="Tracé_1586" data-name="Tracé 1586" d="M72.73,217.433h-.036l-.01.01.046.036Z" transform="translate(-69.949 -200.754)" fill="#fff"/>
      <path id="Tracé_1587" data-name="Tracé 1587" d="M72.853,222.522v.433c1.9-1.726,3.889-3.37,5.775-5.07.784-.7,1.554-1.422,2.322-2.143-.149,0-.3-.007-.45-.013q-1.285,1.166-2.583,2.315C76.226,219.536,74.523,221.011,72.853,222.522Z" transform="translate(-69.559 -204.686)" fill="#fff"/>
      <path id="Tracé_1588" data-name="Tracé 1588" d="M72.862,224.193c.017.179.026.357.04.533q3.051-2.848,6.089-5.712c1.187-1.124,2.408-2.213,3.625-3.3l-.3.046c-.063,0-.129,0-.2.007-1.131.992-2.265,1.984-3.37,3.006Q75.8,221.483,72.862,224.193Z" transform="translate(-69.538 -204.73)" fill="#fff"/>
      <path id="Tracé_1589" data-name="Tracé 1589" d="M72.936,226.5c3.952-3.35,7.656-7.035,11.387-10.64a.4.4,0,0,0-.116-.205h-.1q-5.591,5.12-11.215,10.2C72.906,226.07,72.922,226.285,72.936,226.5Z" transform="translate(-69.46 -204.857)" fill="#fff"/>
      <path id="Tracé_1590" data-name="Tracé 1590" d="M72.654,219.659c-.122.116.04.334.185.238l.06-.043v-.43C72.816,219.5,72.737,219.583,72.654,219.659Z" transform="translate(-70.117 -196.161)" fill="#fff"/>
      <path id="Tracé_1591" data-name="Tracé 1591" d="M72.937,223.965c2.213-1.713,4.005-4,6.046-5.907a2.037,2.037,0,0,1,.136-.529V217.4c-2.153,1.9-4.134,3.992-6.2,5.986C72.924,223.581,72.934,223.773,72.937,223.965Z" transform="translate(-69.411 -200.824)" fill="#fff"/>
      <path id="Tracé_1592" data-name="Tracé 1592" d="M75.74,219.707c1.237-1.062,2.5-2.09,3.731-3.158l.043-.42c-1.511,1.263-3.069,2.474-4.564,3.757A1.515,1.515,0,0,1,75.74,219.707Z" transform="translate(-64.721 -203.763)" fill="#fff"/>
      <path id="Tracé_1593" data-name="Tracé 1593" d="M72.929,223.3l.007.4c1.965-.976,3.337-2.874,4.918-4.336.36-.337.738-.661,1.108-.986-.01-.142-.02-.291-.026-.443-.314.265-.632.526-.939.8C76.263,220.24,74.8,221.953,72.929,223.3Z" transform="translate(-69.384 -199.612)" fill="#fff"/>
      <path id="Tracé_1594" data-name="Tracé 1594" d="M75.927,218.665c.109-.112.215-.228.321-.341a.036.036,0,0,1,.053.05l-.023.023c.539-.45,1.072-.91,1.6-1.373l.036-.357c-.777.661-1.564,1.306-2.355,1.948C75.685,218.635,75.808,218.651,75.927,218.665Z" transform="translate(-63.306 -202.522)" fill="#fff"/>
      <path id="Tracé_1595" data-name="Tracé 1595" d="M72.932,224.355v.228c.986-.873,1.991-1.726,2.891-2.692,1.065-1.148,2.113-2.309,3.162-3.469v-.175c-1.214,1.32-2.424,2.642-3.671,3.929C74.569,222.946,73.746,223.647,72.932,224.355Z" transform="translate(-69.377 -198.879)" fill="#fff"/>
      <path id="Tracé_1596" data-name="Tracé 1596" d="M76.047,217.225a.036.036,0,0,0-.053-.05c-.106.112-.212.228-.321.341l.1.007c.086-.093.169-.182.251-.275Z" transform="translate(-63.052 -201.373)" fill="#fff"/>
      <path id="Tracé_1597" data-name="Tracé 1597" d="M72.942,224.058c0,.172-.01.341-.013.513,2.017-1.845,4.065-3.664,6.066-5.53v-.318c-1.154,1.029-2.315,2.054-3.449,3.109C74.738,222.583,73.835,223.31,72.942,224.058Z" transform="translate(-69.384 -197.778)" fill="#fff"/>
      <path id="Tracé_1598" data-name="Tracé 1598" d="M72.918,225.418c2.074-1.968,4.071-4.022,6.1-6.036v-.4c-2.054,1.955-4.055,3.965-6.089,5.943C72.925,225.09,72.925,225.256,72.918,225.418Z" transform="translate(-69.409 -197.173)" fill="#fff"/>
      <path id="Tracé_1599" data-name="Tracé 1599" d="M72.958,225.4c-.023.189-.05.407-.079.635,1.872-1.806,3.638-3.744,5.48-5.553l.757-.738,0-.364c-.314.3-.632.605-.946.91Q75.553,222.832,72.958,225.4Z" transform="translate(-69.499 -196.255)" fill="#fff"/>
      <path id="Tracé_1600" data-name="Tracé 1600" d="M73.164,225.8c-.1.106-.208.215-.311.324v.42q2.158-2.148,4.293-4.316c.685-.691,1.359-1.4,2.034-2.1v-.42c-.486.5-.972,1.009-1.462,1.511C76.217,222.762,74.682,224.273,73.164,225.8Z" transform="translate(-69.559 -195.503)" fill="#fff"/>
      <path id="Tracé_1601" data-name="Tracé 1601" d="M72.867,226.792a1.918,1.918,0,0,0,.159.44c1.9-1.812,3.6-3.909,5.351-5.732.265-.274.523-.556.784-.833,0-.2,0-.4-.007-.6C77.087,222.337,75.066,224.672,72.867,226.792Z" transform="translate(-69.527 -194.682)" fill="#fff"/>
      <path id="Tracé_1602" data-name="Tracé 1602" d="M77.8,221.728c-1.6,1.5-3.231,2.983-4.842,4.481l.026.04h.48q2.059-1.974,4.151-3.922c.46-.427.906-.87,1.349-1.316,0-.132-.01-.265-.013-.4Q78.39,221.176,77.8,221.728Z" transform="translate(-69.305 -193.424)" fill="#fff"/>
      <path id="Tracé_1603" data-name="Tracé 1603" d="M73.464,225.227h.384c1.141-1.019,2.275-2.037,3.36-3.1.218-.215.43-.437.648-.652v0c-.007-.139-.01-.278-.013-.42-.36.357-.714.718-1.081,1.068Q75.129,223.689,73.464,225.227Z" transform="translate(-68.149 -192.402)" fill="#fff"/>
      <path id="Tracé_1604" data-name="Tracé 1604" d="M73.89,224.255h.625Q75.7,223.129,76.873,222v-.529c-.314.3-.632.6-.946.9C75.266,223.009,74.581,223.634,73.89,224.255Z" transform="translate(-67.166 -191.431)" fill="#fff"/>
      <path id="Tracé_1605" data-name="Tracé 1605" d="M74.612,222.73h.37l.225-.228v-.367Z" transform="translate(-65.5 -189.906)" fill="#fff"/>
    </g>
  </g>
</svg>
