<svg xmlns="http://www.w3.org/2000/svg" xmlns:xlink="http://www.w3.org/1999/xlink" width="46.811" height="45.828" viewBox="0 0 46.811 45.828">
  <defs>
    <clipPath id="clip-path">
      <path id="Tracé_1669" data-name="Tracé 1669" d="M101.172,215.87a3.2,3.2,0,0,1-.7,2.689,2.782,2.782,0,0,1-2.136,1.154h-.053a2.945,2.945,0,0,1-3.158-3.1,4.387,4.387,0,0,1,1.412-3.02l.255-.231.175.294a.079.079,0,0,0,.043.04.115.115,0,0,0,.046-.026,2,2,0,0,1,1.981-.549A3.853,3.853,0,0,1,101.172,215.87Zm-.06,8.391a2.381,2.381,0,0,0-.311-1.819,1.484,1.484,0,0,0-1.141-.387h-.013c-.241,0-.48,0-.721.007-.635.007-1.287.017-1.918-.036-.843-.073-1.058.185-1.31.618-.043.069-.086.146-.142.228l-.043.066,0,.079a14.837,14.837,0,0,0,.04,1.488c.017.288.033.572.04.843.017.781.043,1.561.069,2.341l.023.784c.02.6.017,1.24-.013,2.077l-.05,1.26c-.043.946-.086,1.925-.076,2.9,0,.179-.01.44-.02.761-.1,2.626-.073,5.437,1.372,5.573q.3.03.605.03c.446,0,.886-.04,1.316-.079a5.438,5.438,0,0,0,1.1-.185l.06-.02.046-.043c.271-.258.546-.509.824-.761l.05-.046.026-.063a2.547,2.547,0,0,0,.142-.84c.03-1.111-.05-2.242-.129-3.34-.06-.84-.119-1.71-.132-2.557-.013-1.055.073-2.13.155-3.168.073-.943.149-1.915.155-2.881,0-.344-.007-.688-.017-1.035-.013-.562-.026-1.148.007-1.71Z" transform="translate(-95.125 -213.039)" fill="#fff"/>
    </clipPath>
    <clipPath id="clip-path-2">
      <path id="Tracé_1729" data-name="Tracé 1729" d="M116.184,229.909c.007-.321.023-.642.04-.966a15.818,15.818,0,0,0,0-2.408,11.252,11.252,0,0,1-.04-1.3c0-.314.007-.635-.007-.959-.026-.542-.1-1.088-.175-1.614-.056-.413-.116-.843-.149-1.26-.225-2.831-1.644-4.849-3.893-5.54-2.669-.82-4.577.01-6.621,1.511-.661.486-1.081.7-1.386.463l-.03-.026a1.214,1.214,0,0,1-.258-.357,2.036,2.036,0,0,0-2.557-1.24c-.066.01-.136.016-.2.023l-.086.01h0l-.152.017c-.622.073-1.23.132-1.809.175H98.82l-.109-.01-.089.069a1.315,1.315,0,0,0-.476.777,8.221,8.221,0,0,0-.182,1.621c-.02,2.5.036,5.037.1,7.494.043,1.961.089,3.989.1,5.983,0,.1-.007.222-.013.347-.036.675-.1,1.8.9,2.07a3.685,3.685,0,0,0,.972.126,7.121,7.121,0,0,0,.8-.056c.284-.033.582-.046.873-.06a10.161,10.161,0,0,0,1.174-.1,1.073,1.073,0,0,0,.724-.466c.7-1,.265-3.363.03-4.637-.036-.205-.066-.374-.086-.493a13.643,13.643,0,0,1,.162-4.938l.01-.036,0-.089.036-.043.017-.056a4.344,4.344,0,0,1,2.388-3.122,2.479,2.479,0,0,1,2.388,0c.992.655,1.554,2.457,1.584,5.077.01.6.03,1.214.053,1.809a29.891,29.891,0,0,1-.083,4.716c-.007.05-.017.112-.03.185a1.62,1.62,0,0,0,.136,1.339.869.869,0,0,0,.744.271l.261-.013a4.848,4.848,0,0,1,.956.007l.136.02c.318.046.84.119,1.379.149l-.023.026.628-.017c.9-.023,1.442-.241,1.657-.668a5.555,5.555,0,0,0,.294-2.785C116.2,230.571,116.177,230.223,116.184,229.909Z" transform="translate(-97.96 -215.54)" fill="#fff"/>
    </clipPath>
  </defs>
  <g id="Groupe_547" data-name="Groupe 547" transform="translate(0 0)">
    <g id="Groupe_5" data-name="Groupe 5">
      <path id="Tracé_1606" data-name="Tracé 1606" d="M134.847,221.2a21.181,21.181,0,0,0-5.639-5.874,22.69,22.69,0,0,0-7.894-4,18.508,18.508,0,0,0-7.061-.817,22.616,22.616,0,0,0-8.205,1.9,24.2,24.2,0,0,0-5.741,3.3.074.074,0,0,0-.063.013c-3.979,3.182-7.541,7.084-8.023,12.4a26.891,26.891,0,0,0,.255,6.373,22.6,22.6,0,0,0,3.347,10.676c1.541,3.3,3.628,6.671,6.876,8.182a29.71,29.71,0,0,0,16.083,2.7,24.067,24.067,0,0,0,6.3-1.773,16.1,16.1,0,0,0,4.405-3.327,23.168,23.168,0,0,0,4.035-4.21,22.288,22.288,0,0,0,5.295-11.079C139.477,230.655,137.506,225.409,134.847,221.2ZM99.036,248.514a33.376,33.376,0,0,0,8.43,5.146,21.247,21.247,0,0,0,4.779,1.611c-.546-.069-1.088-.152-1.63-.251A22.227,22.227,0,0,1,99.036,248.514Zm-5.93-22.562c.02-.069.043-.136.063-.205C93.146,225.816,93.129,225.885,93.106,225.952Zm.132-.42a14.782,14.782,0,0,1,.966-2.388A18.569,18.569,0,0,0,93.238,225.532Zm30.338,28.324c4.839-2.4,8.668-6.793,11.556-11.245l.724-1.111A22.349,22.349,0,0,1,123.576,253.855Zm12.442-13.712c-2.709,4.528-6.066,8.93-10.451,11.969A17.553,17.553,0,0,1,110,254.318c-5-1.862-10.428-4.541-13.342-9.171-.2-.318-.387-.645-.572-.976a38.475,38.475,0,0,1-2.857-12.022,16.189,16.189,0,0,1-.079-1.779,22.243,22.243,0,0,1,8.506-14.747,32.009,32.009,0,0,1,7.636-3.542c4.63-1.465,10.051-.311,14.43,1.4,1.181.463,2.414.972,3.6,1.571a25.121,25.121,0,0,1,3.539,2.771,23.87,23.87,0,0,1,2.7,3.056,31.377,31.377,0,0,1,1.531,3.34,38.932,38.932,0,0,1,2.262,6.935c.063.688.1,1.389.1,2.1a22.3,22.3,0,0,1-.655,5.348A11.847,11.847,0,0,1,136.018,240.143ZM100.924,251.52a13.978,13.978,0,0,1-2.3-2.7,22.833,22.833,0,0,0,6.277,4.713A10.911,10.911,0,0,1,100.924,251.52Zm36.2-12.154c.083-.165.165-.331.245-.5-.155.48-.331.953-.523,1.419C136.944,239.981,137.037,239.677,137.123,239.366Z" transform="translate(-92.131 -210.461)" fill="#fff"/>
    </g>
    <g id="Groupe_135" data-name="Groupe 135" transform="translate(9.653 8.129)">
      <g id="Groupe_7" data-name="Groupe 7" transform="translate(9.227 8.269)">
        <g id="Groupe_6" data-name="Groupe 6">
          <path id="Tracé_1607" data-name="Tracé 1607" d="M100.288,235.589a4.092,4.092,0,0,1-1.075-.139c-1.306-.351-1.227-1.783-1.187-2.47l0-.03c0-.109.01-.208.01-.3-.007-1.988-.053-4.015-.1-5.973-.056-2.467-.116-5.007-.1-7.508a8.779,8.779,0,0,1,.192-1.7,1.707,1.707,0,0,1,.618-1.005l.212-.165.258.023c.569-.043,1.164-.1,1.769-.172l.344-.043v0l.1-.01a2.4,2.4,0,0,1,2.96,1.452,1.059,1.059,0,0,0,.159.238l.02.013c.05.04.228.026.909-.47,2.14-1.571,4.141-2.441,6.968-1.574,2.411.744,3.932,2.887,4.17,5.89.033.4.089.823.146,1.23.076.542.152,1.095.179,1.657.017.331.013.655.01.969a10.61,10.61,0,0,0,.033,1.267,15.766,15.766,0,0,1,.007,2.467c-.017.321-.033.638-.04.956h0c-.007.294.013.632.036.989a5.84,5.84,0,0,1-.334,2.993c-.288.569-.943.857-2,.886l-1.5.036.1-.116c-.258-.03-.48-.063-.645-.086l-.136-.02a4.794,4.794,0,0,0-.873,0l-.271.013a1.247,1.247,0,0,1-1.058-.4,1.972,1.972,0,0,1-.228-1.673c.013-.063.023-.119.03-.165a29.413,29.413,0,0,0,.076-4.65c-.02-.566-.043-1.207-.05-1.816-.03-2.451-.542-4.184-1.406-4.756a2.137,2.137,0,0,0-2.024.04,3.984,3.984,0,0,0-2.156,2.864l-.056.215a13.176,13.176,0,0,0-.155,4.786c.017.109.046.265.079.45l.007.03c.337,1.842.638,3.893-.1,4.935a1.461,1.461,0,0,1-.986.625,9.756,9.756,0,0,1-1.22.1c-.281.013-.576.026-.847.056A7.023,7.023,0,0,1,100.288,235.589Zm-1.174-18.478a.921.921,0,0,0-.308.526,7.884,7.884,0,0,0-.172,1.541c-.02,2.49.04,5.02.1,7.468.046,1.978.093,4.008.1,6.006,0,.1-.007.215-.013.341l0,.03c-.043.78-.03,1.495.605,1.667a3.251,3.251,0,0,0,.87.109,6.369,6.369,0,0,0,.757-.053c.3-.033.605-.046.9-.06a9.728,9.728,0,0,0,1.128-.093.693.693,0,0,0,.47-.3c.6-.86.172-3.208-.036-4.339l0-.03c-.036-.2-.069-.361-.086-.48a14.019,14.019,0,0,1,.165-5.073v-.185l.073-.089a4.7,4.7,0,0,1,2.609-3.357,2.85,2.85,0,0,1,2.758.03c1.118.741,1.73,2.609,1.763,5.4.007.6.03,1.237.05,1.8a29.945,29.945,0,0,1-.086,4.779c-.007.056-.02.129-.033.205-.06.314-.146.79.046,1.012a.483.483,0,0,0,.43.136l.255-.013a5.121,5.121,0,0,1,1.032.01l.136.02c.308.043.82.116,1.346.145l.3.017.275-.007c.731-.02,1.174-.172,1.316-.453a5.293,5.293,0,0,0,.251-2.58c-.023-.384-.046-.734-.036-1.065s.023-.648.04-.972a15.5,15.5,0,0,0,0-2.352,12.12,12.12,0,0,1-.04-1.343c0-.314.007-.625-.01-.936-.023-.526-.1-1.062-.169-1.578-.056-.427-.116-.857-.152-1.283-.212-2.662-1.531-4.554-3.615-5.2-2.514-.774-4.323.023-6.271,1.452-.536.394-1.27.929-1.865.453l-.053-.04a1.662,1.662,0,0,1-.341-.476c-.526-1.042-1.022-1.174-2.153-1.025-.066.01-.132.017-.2.023l-.251.03c-.625.073-1.24.132-1.829.175Z" transform="translate(-97.84 -215.419)" fill="#fff"/>
        </g>
      </g>
      <g id="Groupe_71" data-name="Groupe 71" transform="translate(0.247 0.397)">
        <path id="Tracé_1608" data-name="Tracé 1608" d="M101.172,215.87a3.2,3.2,0,0,1-.7,2.689,2.782,2.782,0,0,1-2.136,1.154h-.053a2.945,2.945,0,0,1-3.158-3.1,4.387,4.387,0,0,1,1.412-3.02l.255-.231.175.294a.079.079,0,0,0,.043.04.115.115,0,0,0,.046-.026,2,2,0,0,1,1.981-.549A3.853,3.853,0,0,1,101.172,215.87Zm-.06,8.391a2.381,2.381,0,0,0-.311-1.819,1.484,1.484,0,0,0-1.141-.387h-.013c-.241,0-.48,0-.721.007-.635.007-1.287.017-1.918-.036-.843-.073-1.058.185-1.31.618-.043.069-.086.146-.142.228l-.043.066,0,.079a14.837,14.837,0,0,0,.04,1.488c.017.288.033.572.04.843.017.781.043,1.561.069,2.341l.023.784c.02.6.017,1.24-.013,2.077l-.05,1.26c-.043.946-.086,1.925-.076,2.9,0,.179-.01.44-.02.761-.1,2.626-.073,5.437,1.372,5.573q.3.03.605.03c.446,0,.886-.04,1.316-.079a5.438,5.438,0,0,0,1.1-.185l.06-.02.046-.043c.271-.258.546-.509.824-.761l.05-.046.026-.063a2.547,2.547,0,0,0,.142-.84c.03-1.111-.05-2.242-.129-3.34-.06-.84-.119-1.71-.132-2.557-.013-1.055.073-2.13.155-3.168.073-.943.149-1.915.155-2.881,0-.344-.007-.688-.017-1.035-.013-.562-.026-1.148.007-1.71Z" transform="translate(-95.125 -213.039)" fill="#fff"/>
        <g id="Groupe_70" data-name="Groupe 70" clip-path="url(#clip-path)">
          <g id="Groupe_69" data-name="Groupe 69" transform="translate(-24.176 -3.453)">
            <g id="Groupe_8" data-name="Groupe 8">
              <path id="Tracé_1609" data-name="Tracé 1609" d="M123.925,215.243c-.189.188-.387.374-.585.552-.549.364-1.131.721-1.69,1.1a11.212,11.212,0,0,0,.923-4.342.308.308,0,0,0-.361-.275l-.017-.288-.486.612a16.164,16.164,0,0,1-3.922,3.549c-4.075-1.928-7.779-1.293-10.491,2.639-.179.258-.341.526-.5.8-.056.1-.109.192-.162.291s-.119.228-.175.341-.1.2-.142.3a7.568,7.568,0,0,0,.109,7.107,8.18,8.18,0,0,0,.4.754c-.036.02-.076.033-.116.053a22.7,22.7,0,0,1-2.828.648,34.024,34.024,0,0,1-6.82-.311,32.037,32.037,0,0,1-4.319-.913c-1.6-.433-2.907-1.353-4.481-1.769a.23.23,0,0,0-.083,0l-.043-.023,0,.026a.407.407,0,0,0-.321.417c.036.4.086.817.146,1.234a8.545,8.545,0,0,0,1.366,4.792,9.591,9.591,0,0,0,.5.886A4.96,4.96,0,0,0,92.5,235.44c.169.093.344.175.523.255-.972-.02-1.974-.238-2.91-.265a.376.376,0,0,0-.314.506,9.722,9.722,0,0,0,8.076,6.31c-.774.122-1.581.159-2.305.347a.462.462,0,0,0-.205.695,6.826,6.826,0,0,0,4.111,2.636,7.549,7.549,0,0,0,.883.169,8.509,8.509,0,0,0,4.643.129c-.235.351-.48.691-.741,1.019-.526.473-.982,1.022-1.515,1.492-2.305,2.017-5.272,2.914-8.03,4.131a.6.6,0,0,0-.314.341l-.235.06.2.043a.544.544,0,0,0,.456.668c8.609,1.28,19.232-.506,24.606-8.172A26.7,26.7,0,0,0,122.3,221,18.763,18.763,0,0,0,123.2,219a16.929,16.929,0,0,0,1.22-3.476l.228-1Zm-2.229,5.278a.262.262,0,0,0-.136.222l0,.007-.089.136.066.149.007.02a.271.271,0,0,0,.1.238c.1.238.2.476.288.718a24.644,24.644,0,0,1,1.442,5.827,27.716,27.716,0,0,1-1.9,12.005A23.773,23.773,0,0,1,108.5,251.937a22.956,22.956,0,0,1-7.23,1.488l-.152,0c-.384.013-.771.017-1.154.01-.155,0-.311-.007-.466-.013-.357-.013-.711-.03-1.065-.06-.079-.007-.159-.01-.241-.02-.357-.033-.714-.079-1.072-.129a20.63,20.63,0,0,0,6.515-3.539c1.055-.933,3.066-2.365,3.459-3.846.06-.218-.119-.327-.294-.314a.5.5,0,0,0-.188-.086c-.129-.026-.258-.04-.387-.06l.139-.231-.489.175c-2.041-.241-4.154.241-6.254-.3-.126-.033-.38-.1-.681-.189a7.9,7.9,0,0,1-1.812-1.432c.182-.2.609-.116.88-.222a7.187,7.187,0,0,0,2.3-.893.429.429,0,0,0,.063-.648l.7-.513-1.237.205a7.812,7.812,0,0,1-2,.076h0a7.981,7.981,0,0,1-6.357-4.3c-.056-.215-.03-.351.063-.433a8.733,8.733,0,0,0,2.252-.179,4.117,4.117,0,0,0,1.131-.311l.046-.027.764-.265-.575-.132a.323.323,0,0,0-.215-.288,14.086,14.086,0,0,1-3.516-1.455,8.621,8.621,0,0,1-.671-.632,18.554,18.554,0,0,1-2.14-4.495,7.611,7.611,0,0,1-.043-1.316.465.465,0,0,1,.06-.106c.169-.172.433-.152.741-.046.255.132.513.255.771.374a8.777,8.777,0,0,0,1.075.562c.446.162.916.294,1.389.417a23.781,23.781,0,0,0,10.99.966c1.4-.016,2.722.02,3.79-.86l.013.013c.232.238.695-.093.536-.387-1.627-3.019-1.958-5.708-.03-8.741a7.232,7.232,0,0,1,8.291-3.5,7.766,7.766,0,0,1,1.432.529l.149.073.132-.083a.29.29,0,0,0,.076,0,.132.132,0,0,0,.063.007c1.617-.42,2.583-1.723,3.579-2.977a7.982,7.982,0,0,1-1.69,4.356l-.857,1.091.43-.225a.337.337,0,0,0,.6.235c.172-.192.331-.39.483-.592a6.132,6.132,0,0,1,.936-.771c.212-.136.42-.275.628-.417a13.56,13.56,0,0,0,1.29-.9c-.334.959-.691,1.908-1.111,2.831C122.136,219.8,121.924,220.164,121.7,220.521Zm-15.852,25.727c-.089.053-.179.106-.271.155.04-.06.079-.119.116-.179C105.741,246.232,105.794,246.242,105.844,246.249Z" transform="translate(-87.815 -211.995)" fill="#fff"/>
            </g>
            <g id="Groupe_68" data-name="Groupe 68" transform="translate(0.748 3.727)">
              <g id="Groupe_9" data-name="Groupe 9" transform="translate(18.025 2.12)">
                <path id="Tracé_1610" data-name="Tracé 1610" d="M94.807,215.681a7.662,7.662,0,0,0-1.316,4.061q1.473-2.982,2.9-5.98A9.187,9.187,0,0,0,94.807,215.681Z" transform="translate(-93.491 -213.763)" fill="#fff"/>
              </g>
              <g id="Groupe_10" data-name="Groupe 10" transform="translate(17.588 12.088)">
                <path id="Tracé_1611" data-name="Tracé 1611" d="M93.921,217.4c.04-.02.079-.033.116-.053-.109-.182-.205-.377-.3-.572-.119.258-.248.516-.374.771C93.548,217.5,93.736,217.455,93.921,217.4Z" transform="translate(-93.359 -216.777)" fill="#fff"/>
              </g>
              <g id="Groupe_11" data-name="Groupe 11" transform="translate(18.511 0.503)">
                <path id="Tracé_1612" data-name="Tracé 1612" d="M99.042,213.274c-.149.036-.294.076-.44.122-.529,1.181-1.058,2.361-1.607,3.535-1.042,2.216-2.239,4.415-3.34,6.654l-.017.043c.083.238.175.48.281.724,1.058-2.3,2.17-4.581,3.258-6.906C97.822,216.069,98.434,214.67,99.042,213.274Z" transform="translate(-93.638 -213.274)" fill="#fff"/>
              </g>
              <g id="Groupe_12" data-name="Groupe 12" transform="translate(15.637 13.702)">
                <path id="Tracé_1613" data-name="Tracé 1613" d="M93.047,221.978c.592-1.6,1.244-3.168,1.922-4.713a4.21,4.21,0,0,1-.708.189,29.068,29.068,0,0,0-1.488,4.442A.145.145,0,0,0,93.047,221.978Z" transform="translate(-92.769 -217.265)" fill="#fff"/>
              </g>
              <g id="Groupe_13" data-name="Groupe 13" transform="translate(19.017 0.304)">
                <path id="Tracé_1614" data-name="Tracé 1614" d="M100.31,213.214c-.155,0-.308.007-.46.02-.093.185-.185.37-.275.556-1.793,3.737-3.985,7.4-5.784,11.2.112.228.228.463.354.7a.253.253,0,0,1,.023.175c1.839-3.866,3.78-7.673,5.612-11.556C99.956,213.942,100.134,213.581,100.31,213.214Z" transform="translate(-93.791 -213.214)" fill="#fff"/>
              </g>
              <g id="Groupe_14" data-name="Groupe 14" transform="translate(16.732 13.103)">
                <path id="Tracé_1615" data-name="Tracé 1615" d="M93.543,220.487c.116-.129.36-.01.271.165-.232.45-.476.893-.714,1.339a.205.205,0,0,0,.357-.007c.714-1.65,1.465-3.281,2.232-4.9a.332.332,0,0,1-.486.063l-.013-.013a3.081,3.081,0,0,1-.433.3Q94.092,218.943,93.543,220.487Z" transform="translate(-93.1 -217.084)" fill="#fff"/>
              </g>
              <g id="Groupe_15" data-name="Groupe 15" transform="translate(17.294 0.413)">
                <path id="Tracé_1616" data-name="Tracé 1616" d="M96.207,226.185c-.688,1.369-1.376,2.738-2,4.137a11.015,11.015,0,0,0-.82,1.832c-.056.251-.089.38-.1.44a.13.13,0,0,0-.02.069l.017.208a.223.223,0,0,0,.423.069c2.084-5.685,5.321-10.987,8.076-16.364.549-1.075,1.082-2.16,1.614-3.244-.152-.03-.3-.063-.45-.086q-.987,1.95-2,3.883C99.362,220.146,97.742,223.142,96.207,226.185Zm-2.811,6.3c.053-.046.119-.056.185.056A.149.149,0,0,0,93.4,232.489Z" transform="translate(-93.27 -213.247)" fill="#fff"/>
              </g>
              <g id="Groupe_16" data-name="Groupe 16" transform="translate(18.497 0.804)">
                <path id="Tracé_1617" data-name="Tracé 1617" d="M93.664,233.205a.253.253,0,0,0,.05.308c.42-.721.85-1.442,1.3-2.15.05-.079.185.007.136.086-.433.708-.847,1.429-1.253,2.153a.276.276,0,0,0,.3-.159c2.6-5.308,5.2-10.61,7.772-15.931.645-1.336,1.316-2.662,1.994-3.982-.129-.056-.258-.116-.39-.165-.691,1.31-1.376,2.626-2.037,3.952C98.9,222.609,96.224,227.881,93.664,233.205Z" transform="translate(-93.634 -213.365)" fill="#fff"/>
              </g>
              <g id="Groupe_17" data-name="Groupe 17" transform="translate(19.982 0.142)">
                <path id="Tracé_1618" data-name="Tracé 1618" d="M94.087,234.338c.238-.43.466-.867.671-1.316a.045.045,0,1,1,.083.036c-.2.483-.423.953-.658,1.419a.236.236,0,0,0,.351-.086,222.633,222.633,0,0,0,10.785-21.226,4.926,4.926,0,0,1-.8.549Q99.34,223.973,94.106,234.2A.217.217,0,0,0,94.087,234.338Z" transform="translate(-94.083 -213.165)" fill="#fff"/>
              </g>
              <g id="Groupe_18" data-name="Groupe 18" transform="translate(22.423 3.314)">
                <path id="Tracé_1619" data-name="Tracé 1619" d="M94.841,230.995c-.1.212.215.413.354.218,2.619-3.721,3.86-8.328,5.937-12.353.767-1.492,1.588-2.953,2.4-4.415a.352.352,0,0,1-.192-.321l-.245.126c-.774,1.336-1.548,2.672-2.272,4.038C98.628,222.412,96.911,226.8,94.841,230.995Z" transform="translate(-94.821 -214.124)" fill="#fff"/>
              </g>
              <g id="Groupe_19" data-name="Groupe 19" transform="translate(31.013)">
                <path id="Tracé_1620" data-name="Tracé 1620" d="M97.778,215.569a8.07,8.07,0,0,0,1.31-2.447c-.549.976-1.108,1.941-1.67,2.907Z" transform="translate(-97.418 -213.122)" fill="#fff"/>
              </g>
              <g id="Groupe_20" data-name="Groupe 20" transform="translate(23.488 1.475)">
                <path id="Tracé_1621" data-name="Tracé 1621" d="M95.187,232.476a.209.209,0,0,0,.324.265c2.183-2.226,3.02-5.457,4.376-8.189,1.078-2.18,2.282-4.3,3.473-6.423.119-.278.232-.559.351-.837.023-.056.112-.017.089.043l-.017.04c.668-1.2,1.329-2.4,1.955-3.621a.134.134,0,0,0-.043-.185c-.116.076-.231.152-.351.228-1.789,3.334-3.81,6.535-5.583,9.872C98.19,226.625,97.128,229.718,95.187,232.476Z" transform="translate(-95.143 -213.568)" fill="#fff"/>
              </g>
              <g id="Groupe_21" data-name="Groupe 21" transform="translate(29.667 6.459)">
                <path id="Tracé_1622" data-name="Tracé 1622" d="M97.018,215.095l-.007-.02" transform="translate(-97.011 -215.075)" fill="#fff"/>
              </g>
              <g id="Groupe_22" data-name="Groupe 22" transform="translate(22.252 27.328)">
                <path id="Tracé_1623" data-name="Tracé 1623" d="M94.908,222.4c.089-.344.2-.678.311-1.015-.152.347-.3.7-.45,1.045A.079.079,0,0,0,94.908,222.4Z" transform="translate(-94.769 -221.385)" fill="#fff"/>
              </g>
              <g id="Groupe_23" data-name="Groupe 23" transform="translate(22.897 22.701)">
                <path id="Tracé_1624" data-name="Tracé 1624" d="M94.964,223.393q.769-1.712,1.574-3.407A29.925,29.925,0,0,0,94.964,223.393Z" transform="translate(-94.964 -219.986)" fill="#fff"/>
              </g>
              <g id="Groupe_24" data-name="Groupe 24" transform="translate(24.716 5.172)">
                <path id="Tracé_1625" data-name="Tracé 1625" d="M102.853,214.713c-.119.278-.232.559-.351.837-1.71,4.058-3.258,8.185-4.991,12.23-.582,1.356-1.3,2.659-2,3.969a.132.132,0,0,1,.215.1c.807-1.538,1.637-3.066,2.3-4.68,1.67-4.108,3.2-8.275,4.9-12.369l.017-.04C102.965,214.7,102.876,214.657,102.853,214.713Z" transform="translate(-95.514 -214.686)" fill="#fff"/>
              </g>
              <g id="Groupe_25" data-name="Groupe 25" transform="translate(22.33 6.796)">
                <path id="Tracé_1626" data-name="Tracé 1626" d="M94.8,237.924c-.04.149.185.208.248.076,3.526-7.613,7.742-14.906,11.02-22.645l-.063-.179c-1.882,4.2-4.137,8.209-6.171,12.333C98.184,230.854,95.71,234.293,94.8,237.924Z" transform="translate(-94.793 -215.177)" fill="#fff"/>
              </g>
              <g id="Groupe_26" data-name="Groupe 26" transform="translate(23.489 8.126)">
                <path id="Tracé_1627" data-name="Tracé 1627" d="M97.574,233.217q-1.245,2.332-2.431,4.693a.188.188,0,0,0,.222-.093c3.85-7.1,6.641-14.731,10.362-21.894-.033-.112-.063-.228-.1-.344-3.1,5.655-5.639,11.609-8.374,17.459C97.382,232.873,97.683,233.015,97.574,233.217Z" transform="translate(-95.143 -215.579)" fill="#fff"/>
              </g>
              <g id="Groupe_27" data-name="Groupe 27" transform="translate(24.161 9.995)">
                <path id="Tracé_1628" data-name="Tracé 1628" d="M101.765,224.038q-3.244,6.96-6.4,13.973a.16.16,0,0,0,.291.132c2.533-4.422,4.323-9.33,6.453-13.953,1-2.173,2-4.342,3.036-6.5.185-.38.38-.751.579-1.124-.026-.142-.06-.284-.093-.427-.2.347-.39.695-.569,1.052C103.911,219.451,102.836,221.743,101.765,224.038Z" transform="translate(-95.346 -216.144)" fill="#fff"/>
              </g>
              <g id="Groupe_28" data-name="Groupe 28" transform="translate(25.02 11.377)">
                <path id="Tracé_1629" data-name="Tracé 1629" d="M101.086,227.053c1.442-3.264,2.778-6.581,4.3-9.809-.026-.225-.066-.453-.1-.681-1.425,2.917-2.659,5.937-3.949,8.92-1.174,2.719-2.411,5.411-3.618,8.116-.7,1.581-1.349,3.38-2.107,5.093.185-.129.364-.261.542-.4.374-.893.721-1.789,1.1-2.619C98.546,232.811,99.816,229.93,101.086,227.053Z" transform="translate(-95.606 -216.562)" fill="#fff"/>
              </g>
              <g id="Groupe_29" data-name="Groupe 29" transform="translate(27.275 13.461)">
                <path id="Tracé_1630" data-name="Tracé 1630" d="M101.179,225.11c.929-2.183,1.779-4.415,2.682-6.625.013-.433.02-.863.013-1.293-2.732,5.963-4.716,12.353-7.587,18.246.407-.367.807-.747,1.191-1.144C98.845,231.264,99.926,228.05,101.179,225.11Z" transform="translate(-96.288 -217.192)" fill="#fff"/>
              </g>
              <g id="Groupe_30" data-name="Groupe 30" transform="translate(29.468 19.331)">
                <path id="Tracé_1631" data-name="Tracé 1631" d="M101.267,221.147q.308-1.077.529-2.18c-.6,1.386-1.21,2.768-1.872,4.131-.979,2-1.978,4-2.973,5.993q.754-.883,1.422-1.842.8-1.647,1.6-3.294C100.434,223.032,100.857,222.092,101.267,221.147Z" transform="translate(-96.951 -218.967)" fill="#fff"/>
              </g>
              <g id="Groupe_31" data-name="Groupe 31" transform="translate(0 11.617)">
                <path id="Tracé_1632" data-name="Tracé 1632" d="M88.107,216.759a.464.464,0,0,0-.06.106,8.829,8.829,0,0,0,.013.936c.172-.384.341-.771.513-1.154A.5.5,0,0,0,88.107,216.759Z" transform="translate(-88.041 -216.635)" fill="#fff"/>
              </g>
              <g id="Groupe_32" data-name="Groupe 32" transform="translate(0.467 11.996)">
                <path id="Tracé_1633" data-name="Tracé 1633" d="M89.293,216.822l-.152-.073c-.314.794-.632,1.584-.959,2.371.093.228.2.46.3.688.377-.939.738-1.885,1.1-2.824Z" transform="translate(-88.182 -216.749)" fill="#fff"/>
              </g>
              <g id="Groupe_33" data-name="Groupe 33" transform="translate(1.095 12.627)">
                <path id="Tracé_1634" data-name="Tracé 1634" d="M89.93,216.943l-.007,0q-.774,1.558-1.551,3.116c.089.179.179.351.265.516q.843-1.751,1.7-3.5C90.2,217.033,90.062,216.99,89.93,216.943Z" transform="translate(-88.372 -216.94)" fill="#fff"/>
              </g>
              <g id="Groupe_34" data-name="Groupe 34" transform="translate(2.034 13.074)">
                <path id="Tracé_1635" data-name="Tracé 1635" d="M90.759,217.075q-1.042,2.183-2.1,4.349c.056.086.109.169.155.235.03.03.06.053.089.083.781-1.508,1.548-3.016,2.272-4.541C91.034,217.158,90.9,217.121,90.759,217.075Z" transform="translate(-88.656 -217.075)" fill="#fff"/>
              </g>
              <g id="Groupe_35" data-name="Groupe 35" transform="translate(3.007 13.467)">
                <path id="Tracé_1636" data-name="Tracé 1636" d="M91.4,217.194c-.1.2-.2.4-.291.605-.681,1.442-1.415,2.874-2.156,4.309a5.153,5.153,0,0,0,.536.314q1.225-2.55,2.437-5.1C91.748,217.277,91.569,217.24,91.4,217.194Z" transform="translate(-88.95 -217.194)" fill="#fff"/>
              </g>
              <g id="Groupe_36" data-name="Groupe 36" transform="translate(2.292 19.086)">
                <path id="Tracé_1637" data-name="Tracé 1637" d="M89.64,219.214a5.153,5.153,0,0,1-.556-.321l-.351.675c.232.026.463.053.695.083Z" transform="translate(-88.734 -218.893)" fill="#fff"/>
              </g>
              <g id="Groupe_37" data-name="Groupe 37" transform="translate(5.153 13.927)">
                <path id="Tracé_1638" data-name="Tracé 1638" d="M92.394,217.393c-.116-.017-.228-.04-.344-.06-.787,1.75-1.558,3.509-2.371,5.245l-.079.162.37.119C90.809,221.05,91.593,219.218,92.394,217.393Z" transform="translate(-89.599 -217.333)" fill="#fff"/>
              </g>
              <g id="Groupe_38" data-name="Groupe 38" transform="translate(3.595 20.829)">
                <path id="Tracé_1639" data-name="Tracé 1639" d="M89.925,219.49c-.261.519-.529,1.042-.8,1.564.1.139.205.271.314.4.324-.675.645-1.353.969-2.034Q90.168,219.46,89.925,219.49Z" transform="translate(-89.128 -219.42)" fill="#fff"/>
              </g>
              <g id="Groupe_39" data-name="Groupe 39" transform="translate(4.303 20.416)">
                <path id="Tracé_1640" data-name="Tracé 1640" d="M91.442,219.308l-.046.026c-.281.1-.476.172-.658.221q-.7,1.3-1.4,2.616c.159.162.314.327.486.476q.823-1.677,1.65-3.354Z" transform="translate(-89.342 -219.295)" fill="#fff"/>
              </g>
              <g id="Groupe_40" data-name="Groupe 40" transform="translate(5.646 14.258)">
                <path id="Tracé_1641" data-name="Tracé 1641" d="M95.513,217.433c-.162,0-.321,0-.48,0q-1.275,2.54-2.593,5.05c-.9,1.7-1.8,3.4-2.692,5.1.129.086.261.159.4.235,1.055-1.968,2.127-3.922,3.132-5.887C94.041,220.439,94.782,218.941,95.513,217.433Z" transform="translate(-89.748 -217.433)" fill="#fff"/>
              </g>
              <g id="Groupe_41" data-name="Groupe 41" transform="translate(7.075 14.208)">
                <path id="Tracé_1642" data-name="Tracé 1642" d="M96.2,217.418c-.152.01-.308.02-.463.026-.972,1.839-1.948,3.674-2.874,5.533q-1.339,2.689-2.686,5.378c.169.066.337.126.509.182q1.3-2.684,2.609-5.364C94.231,221.238,95.22,219.33,96.2,217.418Z" transform="translate(-90.18 -217.418)" fill="#fff"/>
              </g>
              <g id="Groupe_42" data-name="Groupe 42" transform="translate(8.229 26.359)">
                <path id="Tracé_1643" data-name="Tracé 1643" d="M91.475,221.234c-.268-.036-.532-.086-.79-.142l-.155.3c.308-.04.618-.076.926-.119Z" transform="translate(-90.529 -221.092)" fill="#fff"/>
              </g>
              <g id="Groupe_43" data-name="Groupe 43" transform="translate(8.566 27.668)">
                <path id="Tracé_1644" data-name="Tracé 1644" d="M90.631,221.5l.007.007.008-.016Z" transform="translate(-90.631 -221.488)" fill="#fff"/>
              </g>
              <g id="Groupe_44" data-name="Groupe 44" transform="translate(8.771 14.013)">
                <path id="Tracé_1645" data-name="Tracé 1645" d="M96.954,217.359c-.142.02-.284.03-.427.05q-2.907,5.775-5.834,11.539c.165.026.327.063.5.079h0c.1.01.205,0,.308.007,1.908-3.863,3.714-7.782,5.536-11.675Z" transform="translate(-90.693 -217.359)" fill="#fff"/>
              </g>
              <g id="Groupe_45" data-name="Groupe 45" transform="translate(18.382 10.155)">
                <path id="Tracé_1646" data-name="Tracé 1646" d="M93.953,216.382a.135.135,0,0,0-.245-.112c-.036.079-.076.156-.109.235.04.129.083.258.129.39l.017-.043C93.814,216.693,93.887,216.538,93.953,216.382Z" transform="translate(-93.599 -216.193)" fill="#fff"/>
              </g>
              <g id="Groupe_46" data-name="Groupe 46" transform="translate(9.056 27.216)">
                <path id="Tracé_1647" data-name="Tracé 1647" d="M91.169,221.589a.754.754,0,0,1-.083.02l-.308.675c.189.169.384.324.582.473.2-.47.394-.936.585-1.406A7.386,7.386,0,0,0,91.169,221.589Z" transform="translate(-90.779 -221.351)" fill="#fff"/>
              </g>
              <g id="Groupe_47" data-name="Groupe 47" transform="translate(10.183 13.904)">
                <path id="Tracé_1648" data-name="Tracé 1648" d="M93.035,226.484c1.594-3.092,3.4-6.066,4.977-9.158-.149.023-.3.04-.453.056-1.558,2.867-3.291,5.642-4.829,8.529-.566,1.058-1.095,2.13-1.611,3.215.235-.007.473-.033.711-.06C92.208,228.19,92.6,227.324,93.035,226.484Z" transform="translate(-91.12 -217.326)" fill="#fff"/>
              </g>
              <g id="Groupe_48" data-name="Groupe 48" transform="translate(10.266 16.452)">
                <path id="Tracé_1649" data-name="Tracé 1649" d="M92.471,229.114c1.081-2.18,2.285-4.3,3.476-6.423.119-.278.228-.559.347-.837a.051.051,0,0,1,.093.043l-.017.04c.42-.757.83-1.518,1.24-2.282.238-.446.483-.89.714-1.339.089-.175-.155-.294-.271-.165l-.023.033c-1.614,3.02-3.413,5.933-5.063,8.93l.417-.069-.635.463-.046.083a.422.422,0,0,1-.083.615,3.1,3.1,0,0,1-.384.248c-.387.738-.744,1.482-1.091,2.229l.112.07c.159.05.3.089.423.122C91.935,230.275,92.19,229.683,92.471,229.114Z" transform="translate(-91.145 -218.097)" fill="#fff"/>
              </g>
              <g id="Groupe_49" data-name="Groupe 49" transform="translate(13.031 21.471)">
                <path id="Tracé_1650" data-name="Tracé 1650" d="M91.981,219.614l.007.02" transform="translate(-91.981 -219.614)" fill="#fff"/>
              </g>
              <g id="Groupe_50" data-name="Groupe 50" transform="translate(11.672 20.184)">
                <path id="Tracé_1651" data-name="Tracé 1651" d="M95.406,219.295a.051.051,0,0,0-.093-.043c-.119.278-.228.559-.347.837-1.171,2.775-2.269,5.579-3.4,8.371.066.013.129.03.192.036,1.2-3.056,2.365-6.128,3.628-9.161Z" transform="translate(-91.57 -219.225)" fill="#fff"/>
              </g>
              <g id="Groupe_51" data-name="Groupe 51" transform="translate(13.077 21.301)">
                <path id="Tracé_1652" data-name="Tracé 1652" d="M96.146,219.643a.056.056,0,1,0-.1-.046c-1.23,2.8-2.639,5.507-4.048,8.215.126.007.255.013.38.013C93.708,225.133,94.991,222.418,96.146,219.643Z" transform="translate(-91.995 -219.563)" fill="#fff"/>
              </g>
              <g id="Groupe_52" data-name="Groupe 52" transform="translate(8.89 37.065)">
                <path id="Tracé_1653" data-name="Tracé 1653" d="M90.851,224.584l-.122.215c.169.023.334.043.5.063l.271-.533C91.285,224.415,91.07,224.5,90.851,224.584Z" transform="translate(-90.729 -224.329)" fill="#fff"/>
              </g>
              <g id="Groupe_53" data-name="Groupe 53" transform="translate(10.316 36.254)">
                <path id="Tracé_1654" data-name="Tracé 1654" d="M91.663,224.4c-.165.364-.334.731-.5,1.095.175.013.351.023.526.033.222-.483.44-.962.655-1.445C92.116,224.193,91.891,224.3,91.663,224.4Z" transform="translate(-91.16 -224.084)" fill="#fff"/>
              </g>
              <g id="Groupe_54" data-name="Groupe 54" transform="translate(14.069 18.77)">
                <path id="Tracé_1655" data-name="Tracé 1655" d="M98.235,218.915c.05-.079-.086-.165-.136-.086-.447.708-.876,1.429-1.3,2.15-1.637,2.8-3.109,5.682-4.508,8.606.146,0,.291,0,.433-.007,1.32-2.887,2.7-5.745,4.253-8.51C97.388,220.344,97.8,219.623,98.235,218.915Z" transform="translate(-92.295 -218.797)" fill="#fff"/>
              </g>
              <g id="Groupe_55" data-name="Groupe 55" transform="translate(15.535 19.971)">
                <path id="Tracé_1656" data-name="Tracé 1656" d="M97.286,220.644c.235-.466.46-.936.658-1.419a.045.045,0,1,0-.083-.036c-.205.45-.433.886-.671,1.316-.876,1.6-1.922,3.112-2.748,4.743-.585,1.148-1.148,2.305-1.7,3.466h.384c.463-.992.926-1.981,1.4-2.967C95.367,224,96.416,222.367,97.286,220.644Z" transform="translate(-92.738 -219.16)" fill="#fff"/>
              </g>
              <g id="Groupe_56" data-name="Groupe 56" transform="translate(11.718 35.262)">
                <path id="Tracé_1657" data-name="Tracé 1657" d="M92.543,224.158q-.481,1.042-.959,2.077c.175,0,.351,0,.526,0q.521-1.225,1.055-2.447C92.96,223.913,92.755,224.039,92.543,224.158Z" transform="translate(-91.584 -223.784)" fill="#fff"/>
              </g>
              <g id="Groupe_57" data-name="Groupe 57" transform="translate(13.061 33.88)">
                <path id="Tracé_1658" data-name="Tracé 1658" d="M94.09,223.366l-.086.076c-.192.169-.394.327-.6.483-.122.291-.245.582-.37.87-.344.794-.7,1.581-1.048,2.371.152-.007.308-.017.463-.026.112-.258.228-.516.341-.774Q93.453,224.873,94.09,223.366Z" transform="translate(-91.99 -223.366)" fill="#fff"/>
              </g>
              <g id="Groupe_58" data-name="Groupe 58" transform="translate(16.593 19.952)">
                <path id="Tracé_1659" data-name="Tracé 1659" d="M98.4,219.337c.076-.116-.086-.255-.169-.139a54.835,54.835,0,0,0-5.169,9.541c.142.007.284.02.43.033A66.678,66.678,0,0,1,98.4,219.337Z" transform="translate(-93.058 -219.155)" fill="#fff"/>
              </g>
              <g id="Groupe_59" data-name="Groupe 59" transform="translate(15.776 30.5)">
                <path id="Tracé_1660" data-name="Tracé 1660" d="M93.469,222.344c-.1.023-.192.043-.291.063l-.367.843C93.039,222.956,93.261,222.655,93.469,222.344Z" transform="translate(-92.811 -222.344)" fill="#fff"/>
              </g>
              <g id="Groupe_60" data-name="Groupe 60" transform="translate(17.694 19.55)">
                <path id="Tracé_1661" data-name="Tracé 1661" d="M99.2,219.142c.05-.069-.053-.152-.106-.083a48.185,48.185,0,0,0-5.6,9.842H93.5l-.017.026-.093.208c.119.02.238.03.357.056a.45.45,0,0,1,.155.073A47.072,47.072,0,0,1,99.2,219.142Z" transform="translate(-93.391 -219.033)" fill="#fff"/>
              </g>
              <g id="Groupe_61" data-name="Groupe 61" transform="translate(14.513 31.962)">
                <path id="Tracé_1662" data-name="Tracé 1662" d="M95.247,222.786c-.314.324-.655.632-.989.923-.625,1.551-1.227,3.112-1.829,4.67.189-.02.377-.05.569-.079.149-.364.3-.728.45-1.085C94.069,225.753,94.658,224.268,95.247,222.786Z" transform="translate(-92.429 -222.786)" fill="#fff"/>
              </g>
              <g id="Groupe_62" data-name="Groupe 62" transform="translate(16.375 22.745)">
                <path id="Tracé_1663" data-name="Tracé 1663" d="M100.1,220.2c.083-.129-.1-.281-.185-.152-2.917,4.531-4.673,9.6-6.925,14.459.172-.036.341-.076.509-.116C95.625,229.62,97.285,224.625,100.1,220.2Z" transform="translate(-92.992 -219.999)" fill="#fff"/>
              </g>
              <g id="Groupe_63" data-name="Groupe 63" transform="translate(18.223 22.206)">
                <path id="Tracé_1664" data-name="Tracé 1664" d="M98.029,224.958c.718-1.657,1.452-3.3,2.229-4.938.01-.02,0-.04,0-.06a.132.132,0,0,0-.215-.1c-.013.013-.033.02-.043.04-.069.142-.132.284-.2.427q-.809,1.692-1.574,3.407c-1.591,3.545-3.089,7.134-4.673,10.686.169-.053.337-.106.509-.162,1.194-2.742,2.338-5.507,3.519-8.258C97.728,225.656,97.877,225.305,98.029,224.958Z" transform="translate(-93.551 -219.836)" fill="#fff"/>
              </g>
              <g id="Groupe_64" data-name="Groupe 64" transform="translate(20.142 25.513)">
                <path id="Tracé_1665" data-name="Tracé 1665" d="M99.909,221.087c.109-.2-.192-.344-.321-.179l-.02.026c-1.885,3.473-3.688,6.982-5.437,10.52.231-.089.463-.182.691-.281q1.3-2.709,2.656-5.394Q98.669,223.419,99.909,221.087Z" transform="translate(-94.131 -220.836)" fill="#fff"/>
              </g>
              <g id="Groupe_65" data-name="Groupe 65" transform="translate(23.313 32.448)">
                <path id="Tracé_1666" data-name="Tracé 1666" d="M96.334,222.983c-.437.688-.847,1.389-1.244,2.1.142-.083.284-.165.423-.251q.481-.863,1-1.7C96.595,223,96.416,222.854,96.334,222.983Z" transform="translate(-95.09 -222.933)" fill="#fff"/>
              </g>
              <g id="Groupe_66" data-name="Groupe 66" transform="translate(25.628 26.422)">
                <path id="Tracé_1667" data-name="Tracé 1667" d="M99.243,221.329c.089-.139-.112-.308-.2-.162a52.459,52.459,0,0,0-3.251,6.585c.159-.119.317-.245.476-.37A45.249,45.249,0,0,1,99.243,221.329Z" transform="translate(-95.79 -221.111)" fill="#fff"/>
              </g>
              <g id="Groupe_67" data-name="Groupe 67" transform="translate(28.86 28.616)">
                <path id="Tracé_1668" data-name="Tracé 1668" d="M97.442,221.842c-.222.486-.45.972-.675,1.459.189-.205.37-.413.552-.625l.337-.737A.118.118,0,0,0,97.442,221.842Z" transform="translate(-96.767 -221.775)" fill="#fff"/>
              </g>
            </g>
          </g>
        </g>
      </g>
      <g id="Groupe_74" data-name="Groupe 74">
        <g id="Groupe_72" data-name="Groupe 72">
          <path id="Tracé_1670" data-name="Tracé 1670" d="M101.384,216.137a3.756,3.756,0,0,1-.046,1.806,3.42,3.42,0,0,1-.936,1.634,2.552,2.552,0,0,1-1.816.724,4.179,4.179,0,0,1-1.8-.529,3.23,3.23,0,0,1-1.267-1.323,4.6,4.6,0,0,1-.47-1.8,3.9,3.9,0,0,1,.473-1.836,5.189,5.189,0,0,1,.513-.807,4.119,4.119,0,0,1,.321-.364c.119-.122.218-.212.327-.318l.36-.354.278.45.1.165.05.083.023.04-.033-.046a.393.393,0,0,0-.083-.066.374.374,0,0,0-.122-.043.357.357,0,0,0-.212.017.275.275,0,0,0-.073.036c-.043.033-.01.007,0,0l.086-.069c.056-.05.116-.093.175-.136a2.5,2.5,0,0,1,.82-.4,2.028,2.028,0,0,1,1.779.327,3.386,3.386,0,0,1,1.015,1.323A8.246,8.246,0,0,1,101.384,216.137Zm-.079.02a3.744,3.744,0,0,0-.685-1.366,3.155,3.155,0,0,0-1.121-.906.87.87,0,0,0-.152-.063.851.851,0,0,0-.155-.05,1.208,1.208,0,0,0-.3-.056,1.532,1.532,0,0,0-.6.076,2.1,2.1,0,0,0-.566.294c-.043.033-.089.066-.132.1l-.066.053-.073.06a.448.448,0,0,1-.116.06.381.381,0,0,1-.235.02.423.423,0,0,1-.142-.053.507.507,0,0,1-.122-.1,1.016,1.016,0,0,1-.063-.086l-.023-.043-.05-.086-.1-.169.638.1a6.335,6.335,0,0,0-.605.569,4.361,4.361,0,0,0-.486.655,4.53,4.53,0,0,0-.6,1.511c-.01.069-.013.132-.02.2l0,.215c-.007.142.01.281.017.423a2.887,2.887,0,0,0,.212.817,2.132,2.132,0,0,0,1.167,1.158,3.664,3.664,0,0,0,1.64.182,2.842,2.842,0,0,0,1.4-.609,4.048,4.048,0,0,0,1.088-1.234A2.3,2.3,0,0,0,101.3,216.156Z" transform="translate(-95.05 -212.919)" fill="#fff"/>
        </g>
        <g id="Groupe_73" data-name="Groupe 73" transform="translate(0.285 9.106)">
          <path id="Tracé_1671" data-name="Tracé 1671" d="M101.046,218.181a7.1,7.1,0,0,0,.01-.956,1.12,1.12,0,0,0-1.184-1.138c-.3-.007-.635.026-.953.043a19,19,0,0,1-1.948.063,1.182,1.182,0,0,0-.747.149.839.839,0,0,0-.218.274c-.066.116-.165.3-.248.43l.056-.172c-.007.44.013.876.046,1.326s.05.926.063,1.373l.013,1.359-.01,1.363c-.046,1.839-.238,3.645-.271,5.457a26.541,26.541,0,0,0,.205,5.391,3.01,3.01,0,0,0,.453,1.151.81.81,0,0,0,.384.311.606.606,0,0,0,.241.043l.324.007a4.451,4.451,0,0,0,.658-.033l.661-.053a4.912,4.912,0,0,0,1.253-.218l-.142.086.916-.866-.109.155a2.227,2.227,0,0,0,.132-.833c0-.321,0-.642-.013-.962-.017-.645-.06-1.293-.106-1.945s-.056-1.32-.086-1.978c-.013-.327-.03-.658-.033-.989s.017-.668.043-1c.093-1.326.331-2.616.46-3.916C101.063,220.807,100.957,219.494,101.046,218.181Zm.079.007c-.076,1.3.109,2.609.086,3.932,0,1.316-.06,2.633-.063,3.926,0,.321,0,.645.013.962l.066.972c.043.648.076,1.293.129,1.945s.086,1.316.1,1.981q.01.5-.01,1a3.1,3.1,0,0,1-.208,1.091l-.04.1-.066.06-.926.83-.066.06-.076.023a5.527,5.527,0,0,1-1.429.215l-.7.03a5.5,5.5,0,0,1-.7,0l-.357-.026a1.28,1.28,0,0,1-.42-.1,1.442,1.442,0,0,1-.638-.556,3.533,3.533,0,0,1-.447-1.4,15.473,15.473,0,0,1-.066-2.762l.063-1.363.046-1.359.023-1.363.01-1.366c.007-.453-.01-.906-.026-1.356l-.046-1.349-.093-1.363-.066-1.363c-.013-.46-.046-.89-.063-1.346a10.914,10.914,0,0,1,0-1.4l.007-.106.05-.063c.1-.139.159-.235.261-.394a1.355,1.355,0,0,1,.417-.433,1.205,1.205,0,0,1,.589-.175,2.512,2.512,0,0,1,.529.026c.622.083,1.263.106,1.905.136.324.02.635.01.972.05a1.478,1.478,0,0,1,.913.41,1.45,1.45,0,0,1,.347.919A7.283,7.283,0,0,1,101.125,218.188Z" transform="translate(-95.136 -215.673)" fill="#fff"/>
        </g>
      </g>
      <g id="Groupe_134" data-name="Groupe 134" transform="translate(9.624 8.669)">
        <path id="Tracé_1672" data-name="Tracé 1672" d="M116.184,229.909c.007-.321.023-.642.04-.966a15.818,15.818,0,0,0,0-2.408,11.252,11.252,0,0,1-.04-1.3c0-.314.007-.635-.007-.959-.026-.542-.1-1.088-.175-1.614-.056-.413-.116-.843-.149-1.26-.225-2.831-1.644-4.849-3.893-5.54-2.669-.82-4.577.01-6.621,1.511-.661.486-1.081.7-1.386.463l-.03-.026a1.214,1.214,0,0,1-.258-.357,2.036,2.036,0,0,0-2.557-1.24c-.066.01-.136.016-.2.023l-.086.01h0l-.152.017c-.622.073-1.23.132-1.809.175H98.82l-.109-.01-.089.069a1.315,1.315,0,0,0-.476.777,8.221,8.221,0,0,0-.182,1.621c-.02,2.5.036,5.037.1,7.494.043,1.961.089,3.989.1,5.983,0,.1-.007.222-.013.347-.036.675-.1,1.8.9,2.07a3.685,3.685,0,0,0,.972.126,7.121,7.121,0,0,0,.8-.056c.284-.033.582-.046.873-.06a10.161,10.161,0,0,0,1.174-.1,1.073,1.073,0,0,0,.724-.466c.7-1,.265-3.363.03-4.637-.036-.205-.066-.374-.086-.493a13.643,13.643,0,0,1,.162-4.938l.01-.036,0-.089.036-.043.017-.056a4.344,4.344,0,0,1,2.388-3.122,2.479,2.479,0,0,1,2.388,0c.992.655,1.554,2.457,1.584,5.077.01.6.03,1.214.053,1.809a29.891,29.891,0,0,1-.083,4.716c-.007.05-.017.112-.03.185a1.62,1.62,0,0,0,.136,1.339.869.869,0,0,0,.744.271l.261-.013a4.848,4.848,0,0,1,.956.007l.136.02c.318.046.84.119,1.379.149l-.023.026.628-.017c.9-.023,1.442-.241,1.657-.668a5.555,5.555,0,0,0,.294-2.785C116.2,230.571,116.177,230.223,116.184,229.909Z" transform="translate(-97.96 -215.54)" fill="#fff"/>
        <g id="Groupe_133" data-name="Groupe 133" clip-path="url(#clip-path-2)">
          <g id="Groupe_132" data-name="Groupe 132" transform="translate(-9.429 -11.068)">
            <g id="Groupe_131" data-name="Groupe 131">
              <g id="Groupe_75" data-name="Groupe 75" transform="translate(18.025 4.309)">
                <path id="Tracé_1673" data-name="Tracé 1673" d="M101.875,215.419a7.661,7.661,0,0,0-1.316,4.061q1.473-2.982,2.9-5.983A9.512,9.512,0,0,0,101.875,215.419Z" transform="translate(-100.559 -213.497)" fill="#fff"/>
              </g>
              <g id="Groupe_76" data-name="Groupe 76" transform="translate(7.928 2.695)">
                <path id="Tracé_1674" data-name="Tracé 1674" d="M113.5,213.009c-.149.036-.3.073-.443.119-.529,1.184-1.058,2.365-1.607,3.539-1.045,2.229-12.836,24.3-13.94,26.548v.007l0,.007a.323.323,0,0,0,.6.023c.962-2.064,12.545-23.978,13.52-26.068C112.276,215.8,112.888,214.4,113.5,213.009Z" transform="translate(-97.506 -213.009)" fill="#fff"/>
              </g>
              <g id="Groupe_77" data-name="Groupe 77" transform="translate(17.513 2.497)">
                <path id="Tracé_1675" data-name="Tracé 1675" d="M108.43,212.949c-.155,0-.311.007-.463.016-.089.185-.182.37-.271.559-1.8,3.737-5.4,10.9-7.2,14.7.112.231.771-.43.661-.189-1.515,3.3-.275,1.005-.284,1.062,1.836-3.866,5.192-11.169,7.028-15.055C108.073,213.677,108.255,213.313,108.43,212.949Z" transform="translate(-100.404 -212.949)" fill="#fff"/>
              </g>
              <g id="Groupe_78" data-name="Groupe 78" transform="translate(17.294 2.606)">
                <path id="Tracé_1676" data-name="Tracé 1676" d="M103.275,225.92c-.688,1.366-1.376,2.735-2,4.137a11.1,11.1,0,0,0-.82,1.829c-.056.255-.089.384-.1.443a.13.13,0,0,0-.02.069l.02.208a.222.222,0,0,0,.42.069c2.084-5.685,5.321-10.987,8.076-16.364.549-1.075,1.081-2.16,1.614-3.244-.149-.03-.3-.063-.446-.086q-.992,1.945-2,3.883C106.43,219.878,104.813,222.877,103.275,225.92Zm-2.808,6.3c.05-.043.116-.053.182.06A.144.144,0,0,0,100.467,232.22Z" transform="translate(-100.338 -212.982)" fill="#fff"/>
              </g>
              <g id="Groupe_79" data-name="Groupe 79" transform="translate(18.498 2.996)">
                <path id="Tracé_1677" data-name="Tracé 1677" d="M100.732,232.94a.26.26,0,0,0,.05.308c.42-.724.85-1.442,1.3-2.15.05-.079.185.007.139.083-.433.711-.85,1.432-1.257,2.153a.271.271,0,0,0,.3-.155c2.6-5.308,5.2-10.613,7.772-15.931.645-1.336,1.316-2.662,1.994-3.982-.129-.06-.258-.116-.39-.165-.691,1.31-1.376,2.623-2.037,3.952C105.967,222.344,103.292,227.612,100.732,232.94Z" transform="translate(-100.702 -213.1)" fill="#fff"/>
              </g>
              <g id="Groupe_80" data-name="Groupe 80" transform="translate(11.281)">
                <path id="Tracé_1678" data-name="Tracé 1678" d="M101.457,225.132c-.688,1.369-1.376,2.738-2,4.137a11.143,11.143,0,0,0-.82,1.832c-.056.255-.089.384-.1.443a.122.122,0,0,0-.02.069l.02.205a.222.222,0,0,0,.42.073c2.084-5.685,5.321-10.99,8.076-16.364.549-1.078,1.081-2.163,1.614-3.244-.149-.033-.3-.063-.45-.089q-.987,1.95-2,3.883C104.612,219.093,102.992,222.089,101.457,225.132Zm-2.811,6.3c.053-.043.119-.053.185.06A.147.147,0,0,0,98.646,231.436Z" transform="translate(-98.52 -212.194)" fill="#fff"/>
              </g>
              <g id="Groupe_81" data-name="Groupe 81" transform="translate(12.485 0.39)">
                <path id="Tracé_1679" data-name="Tracé 1679" d="M98.914,232.156a.254.254,0,0,0,.05.3c.42-.721.85-1.439,1.3-2.15.05-.076.185.007.136.086-.433.711-.847,1.429-1.253,2.153a.275.275,0,0,0,.3-.155c2.6-5.308,5.2-10.613,7.772-15.935.645-1.336,1.316-2.659,1.994-3.982-.129-.056-.258-.116-.39-.165-.691,1.313-1.376,2.626-2.037,3.952C104.149,221.556,101.474,226.828,98.914,232.156Z" transform="translate(-98.884 -212.312)" fill="#fff"/>
              </g>
              <g id="Groupe_82" data-name="Groupe 82" transform="translate(19.983 2.335)">
                <path id="Tracé_1680" data-name="Tracé 1680" d="M101.157,234.073c.235-.433.463-.87.668-1.32a.047.047,0,0,1,.086.04c-.2.48-.427.953-.658,1.416a.239.239,0,0,0,.351-.083A223.379,223.379,0,0,0,112.385,212.9a5.381,5.381,0,0,1-.8.549q-5.169,10.259-10.408,20.485A.191.191,0,0,0,101.157,234.073Z" transform="translate(-101.151 -212.9)" fill="#fff"/>
              </g>
              <g id="Groupe_83" data-name="Groupe 83" transform="translate(22.426 5.503)">
                <path id="Tracé_1681" data-name="Tracé 1681" d="M101.911,230.732c-.106.208.212.413.351.218,2.619-3.721,3.86-8.328,5.937-12.353.771-1.492,1.587-2.953,2.4-4.415a.36.36,0,0,1-.192-.324l-.241.129c-.777,1.333-1.548,2.672-2.275,4.035C105.694,222.149,103.978,226.538,101.911,230.732Z" transform="translate(-101.89 -213.858)" fill="#fff"/>
              </g>
              <g id="Groupe_84" data-name="Groupe 84" transform="translate(31.013 2.189)">
                <path id="Tracé_1682" data-name="Tracé 1682" d="M104.85,215.3a7.915,7.915,0,0,0,1.306-2.447c-.546.976-1.108,1.945-1.67,2.91Z" transform="translate(-104.486 -212.856)" fill="#fff"/>
              </g>
              <g id="Groupe_85" data-name="Groupe 85" transform="translate(20.23 9.971)">
                <path id="Tracé_1683" data-name="Tracé 1683" d="M101.27,234.117a.208.208,0,0,0,.324.261c2.183-2.223,3.02-5.454,4.376-8.186,1.081-2.18,2.282-4.3,3.473-6.423.119-.278.232-.559.351-.837.023-.06.112-.017.089.043l-.017.04c.668-1.2,1.33-2.4,1.958-3.621a.137.137,0,0,0-.046-.185c-.116.076-.231.152-.351.228-1.789,3.334-3.807,6.535-5.583,9.872C104.273,228.263,103.211,231.358,101.27,234.117Z" transform="translate(-101.226 -215.209)" fill="#fff"/>
              </g>
              <g id="Groupe_86" data-name="Groupe 86" transform="translate(29.667 8.649)">
                <path id="Tracé_1684" data-name="Tracé 1684" d="M104.086,214.829l-.007-.02" transform="translate(-104.079 -214.809)" fill="#fff"/>
              </g>
              <g id="Groupe_87" data-name="Groupe 87" transform="translate(22.252 29.521)">
                <path id="Tracé_1685" data-name="Tracé 1685" d="M101.979,222.135c.086-.347.2-.681.308-1.015-.152.347-.3.695-.45,1.045A.081.081,0,0,0,101.979,222.135Z" transform="translate(-101.837 -221.12)" fill="#fff"/>
              </g>
              <g id="Groupe_88" data-name="Groupe 88" transform="translate(22.897 24.891)">
                <path id="Tracé_1686" data-name="Tracé 1686" d="M102.032,223.13q.769-1.711,1.574-3.41A30.227,30.227,0,0,0,102.032,223.13Z" transform="translate(-102.032 -219.72)" fill="#fff"/>
              </g>
              <g id="Groupe_89" data-name="Groupe 89" transform="translate(24.554 6.797)">
                <path id="Tracé_1687" data-name="Tracé 1687" d="M109.869,214.279c-.119.275-.232.556-.347.833-1.71,4.058-3.261,8.186-4.994,12.234-.579,1.356-1.3,2.656-1.994,3.965a.133.133,0,0,1,.215.1c.807-1.535,1.637-3.066,2.292-4.68,1.67-4.108,3.2-8.275,4.9-12.369l.017-.04A.05.05,0,0,0,109.869,214.279Z" transform="translate(-102.533 -214.249)" fill="#fff"/>
              </g>
              <g id="Groupe_90" data-name="Groupe 90" transform="translate(22.33 8.989)">
                <path id="Tracé_1688" data-name="Tracé 1688" d="M101.865,237.659c-.04.149.185.208.248.076,3.526-7.617,7.742-14.909,11.02-22.648l-.06-.175c-1.885,4.2-4.141,8.209-6.171,12.333C105.252,230.588,102.781,234.028,101.865,237.659Z" transform="translate(-101.861 -214.912)" fill="#fff"/>
              </g>
              <g id="Groupe_91" data-name="Groupe 91" transform="translate(23.489 10.315)">
                <path id="Tracé_1689" data-name="Tracé 1689" d="M104.642,232.954q-1.245,2.327-2.431,4.693a.188.188,0,0,0,.222-.093c3.85-7.1,6.641-14.731,10.362-21.894-.033-.116-.063-.232-.1-.347-3.1,5.659-5.642,11.612-8.377,17.462C104.45,232.61,104.751,232.752,104.642,232.954Z" transform="translate(-102.211 -215.313)" fill="#fff"/>
              </g>
              <g id="Groupe_92" data-name="Groupe 92" transform="translate(24.163 12.187)">
                <path id="Tracé_1690" data-name="Tracé 1690" d="M108.831,223.77q-3.244,6.965-6.4,13.977c-.086.192.189.3.288.129,2.533-4.419,4.323-9.326,6.452-13.953,1-2.17,2-4.342,3.036-6.492.185-.38.38-.754.579-1.125-.026-.142-.06-.284-.089-.427-.2.347-.39.695-.572,1.048C110.981,219.186,109.9,221.478,108.831,223.77Z" transform="translate(-102.415 -215.879)" fill="#fff"/>
              </g>
              <g id="Groupe_93" data-name="Groupe 93" transform="translate(25.023 13.57)">
                <path id="Tracé_1691" data-name="Tracé 1691" d="M108.152,226.788c1.442-3.268,2.781-6.585,4.3-9.809-.026-.228-.066-.456-.1-.681-1.425,2.917-2.659,5.937-3.949,8.92-1.174,2.719-2.411,5.411-3.615,8.116-.7,1.581-1.353,3.38-2.107,5.09.182-.126.36-.261.542-.394.37-.893.721-1.789,1.095-2.619C105.612,232.546,106.882,229.665,108.152,226.788Z" transform="translate(-102.675 -216.297)" fill="#fff"/>
              </g>
              <g id="Groupe_94" data-name="Groupe 94" transform="translate(27.275 15.653)">
                <path id="Tracé_1692" data-name="Tracé 1692" d="M108.247,224.841c.929-2.18,1.779-4.415,2.682-6.621.013-.433.023-.863.013-1.293-2.732,5.963-4.713,12.353-7.587,18.243q.615-.551,1.191-1.144C105.912,231,106.994,227.785,108.247,224.841Z" transform="translate(-103.356 -216.927)" fill="#fff"/>
              </g>
              <g id="Groupe_95" data-name="Groupe 95" transform="translate(29.468 21.524)">
                <path id="Tracé_1693" data-name="Tracé 1693" d="M108.338,220.878c.2-.714.377-1.442.526-2.176-.6,1.386-1.207,2.768-1.872,4.128-.976,2-1.978,4-2.973,6,.5-.589.979-1.2,1.422-1.842.532-1.1,1.065-2.2,1.6-3.294C107.5,222.767,107.925,221.824,108.338,220.878Z" transform="translate(-104.019 -218.702)" fill="#fff"/>
              </g>
              <g id="Groupe_96" data-name="Groupe 96" transform="translate(0 13.808)">
                <path id="Tracé_1694" data-name="Tracé 1694" d="M95.175,216.495a.465.465,0,0,0-.06.106,8.849,8.849,0,0,0,.013.936c.172-.384.344-.771.513-1.158A.513.513,0,0,0,95.175,216.495Z" transform="translate(-95.109 -216.369)" fill="#fff"/>
              </g>
              <g id="Groupe_97" data-name="Groupe 97" transform="translate(0.467 14.185)">
                <path id="Tracé_1695" data-name="Tracé 1695" d="M96.361,216.559l-.152-.076c-.314.8-.632,1.588-.959,2.375.1.228.2.46.3.688.374-.943.738-1.888,1.1-2.824Z" transform="translate(-95.25 -216.483)" fill="#fff"/>
              </g>
              <g id="Groupe_98" data-name="Groupe 98" transform="translate(1.095 14.817)">
                <path id="Tracé_1696" data-name="Tracé 1696" d="M97,216.677l-.007,0q-.774,1.563-1.551,3.119c.089.175.179.347.265.513q.843-1.751,1.7-3.492C97.269,216.767,97.13,216.727,97,216.677Z" transform="translate(-95.44 -216.674)" fill="#fff"/>
              </g>
              <g id="Groupe_99" data-name="Groupe 99" transform="translate(2.034 15.266)">
                <path id="Tracé_1697" data-name="Tracé 1697" d="M97.827,216.81q-1.037,2.178-2.1,4.346c.056.089.109.172.159.238.026.03.06.053.086.083.784-1.508,1.551-3.02,2.272-4.541C98.105,216.893,97.963,216.856,97.827,216.81Z" transform="translate(-95.724 -216.81)" fill="#fff"/>
              </g>
              <g id="Groupe_100" data-name="Groupe 100" transform="translate(3.007 15.657)">
                <path id="Tracé_1698" data-name="Tracé 1698" d="M98.465,216.928c-.1.205-.2.4-.291.609-.681,1.442-1.412,2.874-2.156,4.309.175.116.354.218.536.314q1.225-2.55,2.437-5.106C98.816,217.014,98.641,216.974,98.465,216.928Z" transform="translate(-96.018 -216.928)" fill="#fff"/>
              </g>
              <g id="Groupe_101" data-name="Groupe 101" transform="translate(2.292 21.279)">
                <path id="Tracé_1699" data-name="Tracé 1699" d="M96.708,218.945a5.452,5.452,0,0,1-.556-.317l-.351.675c.232.023.463.053.695.079Z" transform="translate(-95.802 -218.628)" fill="#fff"/>
              </g>
              <g id="Groupe_102" data-name="Groupe 102" transform="translate(7.118 10.167)">
                <path id="Tracé_1700" data-name="Tracé 1700" d="M103.475,215.331c-.112-.017-.228-.043-.341-.063-.787,1.753-4.981,10.448-5.8,12.184l-.076.162.367.119C98.468,225.924,102.678,217.156,103.475,215.331Z" transform="translate(-97.261 -215.268)" fill="#fff"/>
              </g>
              <g id="Groupe_103" data-name="Groupe 103" transform="translate(5.457 9.971)">
                <path id="Tracé_1701" data-name="Tracé 1701" d="M102.977,215.269c-.116-.017-.228-.04-.344-.06-.787,1.75-4.981,10.444-5.794,12.184l-.079.159.37.122C97.969,225.865,102.176,217.094,102.977,215.269Z" transform="translate(-96.759 -215.209)" fill="#fff"/>
              </g>
              <g id="Groupe_104" data-name="Groupe 104" transform="translate(3.595 23.019)">
                <path id="Tracé_1702" data-name="Tracé 1702" d="M96.993,219.223q-.392.784-.8,1.568c.1.136.208.271.314.4.324-.675.645-1.356.969-2.037Q97.236,219.2,96.993,219.223Z" transform="translate(-96.196 -219.154)" fill="#fff"/>
              </g>
              <g id="Groupe_105" data-name="Groupe 105" transform="translate(4.303 22.605)">
                <path id="Tracé_1703" data-name="Tracé 1703" d="M98.51,219.042l-.046.026c-.281.106-.476.175-.655.225-.466.87-.936,1.74-1.4,2.613.159.165.317.331.49.48q.823-1.677,1.647-3.357Z" transform="translate(-96.41 -219.029)" fill="#fff"/>
              </g>
              <g id="Groupe_106" data-name="Groupe 106" transform="translate(5.646 8.668)">
                <path id="Tracé_1704" data-name="Tracé 1704" d="M106.943,214.815c-.159,0-.317,0-.476,0-.853,1.69-6.079,11.159-6.959,12.832-.9,1.7-1.8,3.4-2.692,5.1.129.083.265.155.4.232,1.055-1.965,2.127-3.919,3.132-5.884C101.109,225.6,106.215,216.323,106.943,214.815Z" transform="translate(-96.816 -214.815)" fill="#fff"/>
              </g>
              <g id="Groupe_107" data-name="Groupe 107" transform="translate(7.078 16.401)">
                <path id="Tracé_1705" data-name="Tracé 1705" d="M103.272,217.153c-.155.01-.311.02-.466.026-.972,1.836-1.948,3.671-2.874,5.533-.89,1.793-1.789,3.585-2.682,5.374.165.066.334.129.506.182q1.31-2.679,2.609-5.361C101.3,220.973,102.286,219.065,103.272,217.153Z" transform="translate(-97.249 -217.153)" fill="#fff"/>
              </g>
              <g id="Groupe_108" data-name="Groupe 108" transform="translate(8.229 28.552)">
                <path id="Tracé_1706" data-name="Tracé 1706" d="M98.546,220.969c-.271-.04-.532-.086-.794-.142l-.155.3c.308-.036.618-.073.926-.116Z" transform="translate(-97.597 -220.827)" fill="#fff"/>
              </g>
              <g id="Groupe_109" data-name="Groupe 109" transform="translate(8.567 29.859)">
                <path id="Tracé_1707" data-name="Tracé 1707" d="M97.7,221.232l.007.007.008-.016Z" transform="translate(-97.699 -221.222)" fill="#fff"/>
              </g>
              <g id="Groupe_110" data-name="Groupe 110" transform="translate(8.771 16.202)">
                <path id="Tracé_1708" data-name="Tracé 1708" d="M104.022,217.093c-.142.023-.284.033-.427.053q-2.907,5.775-5.834,11.539c.165.026.331.063.5.076h0c.1.01.205,0,.308.01,1.908-3.863,3.714-7.782,5.536-11.678Z" transform="translate(-97.761 -217.093)" fill="#fff"/>
              </g>
              <g id="Groupe_111" data-name="Groupe 111" transform="translate(9.056 29.408)">
                <path id="Tracé_1709" data-name="Tracé 1709" d="M98.237,221.324a.615.615,0,0,1-.083.02l-.308.675a7.124,7.124,0,0,0,.585.47c.192-.466.39-.936.585-1.4A6.713,6.713,0,0,0,98.237,221.324Z" transform="translate(-97.847 -221.086)" fill="#fff"/>
              </g>
              <g id="Groupe_112" data-name="Groupe 112" transform="translate(10.266 18.644)">
                <path id="Tracé_1710" data-name="Tracé 1710" d="M99.543,228.851c1.081-2.18,2.282-4.3,3.473-6.423.119-.278.231-.559.351-.837.023-.06.112-.017.089.04l-.017.043q.63-1.136,1.24-2.282c.238-.446.486-.89.714-1.339.089-.175-.155-.3-.271-.165l-.023.03c-1.611,3.02-3.413,5.933-5.063,8.933l.417-.069-.635.463-.046.083a.424.424,0,0,1-.079.615,3.927,3.927,0,0,1-.387.248c-.384.738-.744,1.482-1.091,2.229l.112.07c.159.046.3.086.423.119C99,230.011,99.261,229.419,99.543,228.851Z" transform="translate(-98.213 -217.831)" fill="#fff"/>
              </g>
              <g id="Groupe_113" data-name="Groupe 113" transform="translate(13.031 23.66)">
                <path id="Tracé_1711" data-name="Tracé 1711" d="M99.049,219.348l.007.02" transform="translate(-99.049 -219.348)" fill="#fff"/>
              </g>
              <g id="Groupe_114" data-name="Groupe 114" transform="translate(11.675 22.375)">
                <path id="Tracé_1712" data-name="Tracé 1712" d="M102.472,219.028c.023-.056-.066-.1-.089-.04-.119.278-.232.559-.351.837-1.168,2.775-2.269,5.579-3.393,8.371.063.01.126.026.192.036,1.2-3.059,2.361-6.128,3.625-9.161Z" transform="translate(-98.639 -218.959)" fill="#fff"/>
              </g>
              <g id="Groupe_115" data-name="Groupe 115" transform="translate(13.077 23.493)">
                <path id="Tracé_1713" data-name="Tracé 1713" d="M103.217,219.376a.058.058,0,0,0-.106-.046c-1.23,2.8-2.639,5.51-4.048,8.219.129,0,.255.01.38.013C100.776,224.869,102.063,222.154,103.217,219.376Z" transform="translate(-99.063 -219.297)" fill="#fff"/>
              </g>
              <g id="Groupe_116" data-name="Groupe 116" transform="translate(8.89 39.254)">
                <path id="Tracé_1714" data-name="Tracé 1714" d="M97.919,224.321l-.122.215c.169.02.337.043.5.06l.271-.532C98.353,224.152,98.138,224.235,97.919,224.321Z" transform="translate(-97.797 -224.063)" fill="#fff"/>
              </g>
              <g id="Groupe_117" data-name="Groupe 117" transform="translate(10.319 38.447)">
                <path id="Tracé_1715" data-name="Tracé 1715" d="M98.728,224.136c-.165.364-.334.731-.5,1.095.175.01.351.023.526.03q.327-.719.652-1.442C99.181,223.928,98.957,224.034,98.728,224.136Z" transform="translate(-98.229 -223.819)" fill="#fff"/>
              </g>
              <g id="Groupe_118" data-name="Groupe 118" transform="translate(14.069 20.963)">
                <path id="Tracé_1716" data-name="Tracé 1716" d="M105.306,218.647c.046-.076-.089-.162-.139-.083-.446.708-.876,1.425-1.3,2.15-1.637,2.8-3.109,5.682-4.508,8.606l.433-.01c1.32-2.887,2.7-5.741,4.253-8.51C104.456,220.079,104.873,219.358,105.306,218.647Z" transform="translate(-99.363 -218.532)" fill="#fff"/>
              </g>
              <g id="Groupe_119" data-name="Groupe 119" transform="translate(15.535 22.163)">
                <path id="Tracé_1717" data-name="Tracé 1717" d="M104.357,220.376c.231-.463.456-.936.658-1.416a.047.047,0,0,0-.086-.04c-.205.45-.433.886-.668,1.32-.88,1.6-1.925,3.109-2.752,4.743q-.873,1.721-1.7,3.466c.129,0,.255,0,.384,0q.694-1.483,1.4-2.963C102.435,223.74,103.487,222.1,104.357,220.376Z" transform="translate(-99.806 -218.895)" fill="#fff"/>
              </g>
              <g id="Groupe_120" data-name="Groupe 120" transform="translate(11.718 37.455)">
                <path id="Tracé_1718" data-name="Tracé 1718" d="M99.611,223.893c-.321.691-.638,1.382-.959,2.077.175,0,.351,0,.526,0,.351-.82.7-1.634,1.055-2.447C100.028,223.648,99.823,223.774,99.611,223.893Z" transform="translate(-98.652 -223.519)" fill="#fff"/>
              </g>
              <g id="Groupe_121" data-name="Groupe 121" transform="translate(13.061 36.073)">
                <path id="Tracé_1719" data-name="Tracé 1719" d="M101.158,223.1l-.086.073c-.192.169-.394.331-.6.486-.122.291-.245.579-.37.87-.344.794-.7,1.581-1.048,2.371.155-.01.308-.017.463-.03.112-.255.228-.513.341-.771Q100.521,224.607,101.158,223.1Z" transform="translate(-99.058 -223.101)" fill="#fff"/>
              </g>
              <g id="Groupe_122" data-name="Groupe 122" transform="translate(16.593 22.143)">
                <path id="Tracé_1720" data-name="Tracé 1720" d="M105.464,219.07c.076-.116-.086-.255-.169-.136a54.828,54.828,0,0,0-5.169,9.541c.142.007.288.02.43.033A66.893,66.893,0,0,1,105.464,219.07Z" transform="translate(-100.126 -218.889)" fill="#fff"/>
              </g>
              <g id="Groupe_123" data-name="Groupe 123" transform="translate(15.776 32.689)">
                <path id="Tracé_1721" data-name="Tracé 1721" d="M100.54,222.078c-.1.026-.2.043-.291.066-.122.281-.248.559-.37.843C100.107,222.693,100.329,222.392,100.54,222.078Z" transform="translate(-99.879 -222.078)" fill="#fff"/>
              </g>
              <g id="Groupe_124" data-name="Groupe 124" transform="translate(17.235 21.835)">
                <path id="Tracé_1722" data-name="Tracé 1722" d="M106.124,218.908c.053-.069-.05-.155-.1-.086a48.308,48.308,0,0,0-5.6,9.846l.007,0-.017.03-.089.208c.119.017.238.03.354.056a.463.463,0,0,1,.159.069A46.966,46.966,0,0,1,106.124,218.908Z" transform="translate(-100.32 -218.796)" fill="#fff"/>
              </g>
              <g id="Groupe_125" data-name="Groupe 125" transform="translate(14.513 34.151)">
                <path id="Tracé_1723" data-name="Tracé 1723" d="M102.315,222.52c-.311.324-.655.635-.989.926-.625,1.548-1.227,3.109-1.829,4.67.188-.023.38-.053.569-.079.149-.364.3-.728.45-1.085C101.137,225.49,101.726,224,102.315,222.52Z" transform="translate(-99.497 -222.52)" fill="#fff"/>
              </g>
              <g id="Groupe_126" data-name="Groupe 126" transform="translate(18.058 23.83)">
                <path id="Tracé_1724" data-name="Tracé 1724" d="M105.047,224.521c.721-1.657,1.455-3.3,2.229-4.934.013-.023,0-.043,0-.063a.133.133,0,0,0-.215-.1c-.017.013-.033.02-.043.04-.069.142-.136.284-.2.427q-.809,1.692-1.574,3.406c-1.591,3.549-3.089,7.137-4.677,10.686.172-.05.341-.106.509-.159,1.194-2.745,2.342-5.51,3.519-8.262C104.746,225.219,104.9,224.872,105.047,224.521Z" transform="translate(-100.569 -219.399)" fill="#fff"/>
              </g>
              <g id="Groupe_127" data-name="Groupe 127" transform="translate(20.145 27.705)">
                <path id="Tracé_1725" data-name="Tracé 1725" d="M106.975,220.822c.109-.2-.192-.344-.321-.179l-.02.026q-2.823,5.2-5.434,10.52c.228-.093.46-.185.688-.281q1.3-2.709,2.656-5.394Q105.734,223.154,106.975,220.822Z" transform="translate(-101.2 -220.571)" fill="#fff"/>
              </g>
              <g id="Groupe_128" data-name="Groupe 128" transform="translate(23.313 34.639)">
                <path id="Tracé_1726" data-name="Tracé 1726" d="M103.4,222.715c-.437.691-.847,1.392-1.244,2.1.142-.083.284-.165.423-.251.321-.572.655-1.141,1-1.7C103.663,222.738,103.484,222.59,103.4,222.715Z" transform="translate(-102.158 -222.668)" fill="#fff"/>
              </g>
              <g id="Groupe_129" data-name="Groupe 129" transform="translate(25.628 28.613)">
                <path id="Tracé_1727" data-name="Tracé 1727" d="M106.311,221.065c.089-.142-.109-.308-.2-.165a53.188,53.188,0,0,0-3.251,6.588c.162-.122.318-.245.476-.37A45.052,45.052,0,0,1,106.311,221.065Z" transform="translate(-102.858 -220.846)" fill="#fff"/>
              </g>
              <g id="Groupe_130" data-name="Groupe 130" transform="translate(28.86 30.808)">
                <path id="Tracé_1728" data-name="Tracé 1728" d="M104.513,221.575c-.225.489-.453.972-.678,1.458.188-.2.374-.41.552-.622l.337-.741A.116.116,0,0,0,104.513,221.575Z" transform="translate(-103.835 -221.509)" fill="#fff"/>
              </g>
            </g>
          </g>
        </g>
      </g>
    </g>
  </g>
</svg>
