<svg xmlns="http://www.w3.org/2000/svg" xmlns:xlink="http://www.w3.org/1999/xlink" width="317.419" height="317.418" viewBox="0 0 317.419 317.418">
  <defs>
    <filter id="Tracé_1719" x="0" y="0" width="317.419" height="317.418" filterUnits="userSpaceOnUse">
      <feOffset dy="3" input="SourceAlpha"/>
      <feGaussianBlur stdDeviation="25" result="blur"/>
      <feFlood flood-opacity="0.059"/>
      <feComposite operator="in" in2="blur"/>
      <feComposite in="SourceGraphic"/>
    </filter>
  </defs>
  <g id="Groupe_549" data-name="Groupe 549" transform="translate(-605.534 -2457.399)">
    <g id="Groupe_547" data-name="Groupe 547" transform="translate(680.534 2529.399)">
      <g transform="matrix(1, 0, 0, 1, -75, -72)" filter="url(#Tracé_1719)">
        <path id="Tracé_1719-2" data-name="Tracé 1719" d="M83.709,0A83.709,83.709,0,1,1,0,83.709,83.709,83.709,0,0,1,83.709,0Z" transform="translate(75 72)" fill="#fff"/>
      </g>
    </g>
    <g id="Groupe_548" data-name="Groupe 548" transform="translate(725.076 2504.951)">
      <g id="Groupe_181" data-name="Groupe 181" transform="translate(0 0)">
        <g id="Tracé_1718" data-name="Tracé 1718" transform="translate(0 0)" fill="#202020">
          <path d="M 59.68320083618164 154.3033142089844 L 18.65099906921387 154.3033142089844 C 16.20041847229004 154.3033142089844 13.82339859008789 153.8234710693359 11.58595943450928 152.8771209716797 C 9.424618721008301 151.9629516601562 7.483418941497803 150.6541442871094 5.816298961639404 148.9870147705078 C 4.149178981781006 147.3199005126953 2.840358972549438 145.3786926269531 1.926198959350586 143.2173614501953 C 0.979839026927948 140.9799194335938 0.4999989867210388 138.6028900146484 0.4999989867210388 136.1523132324219 L 0.4999989867210388 18.65099716186523 C 0.4999989867210388 16.20041656494141 0.979839026927948 13.82339668273926 1.926198959350586 11.58595752716064 C 2.840358972549438 9.424616813659668 4.149178981781006 7.48341703414917 5.816298961639404 5.816297054290771 C 7.483418941497803 4.149177074432373 9.424618721008301 2.840357065200806 11.58595943450928 1.926197052001953 C 13.82339859008789 0.9798371195793152 16.20041847229004 0.4999971091747284 18.65099906921387 0.4999971091747284 L 59.68320083618164 0.4999971091747284 C 62.1337776184082 0.4999971091747284 64.51079559326172 0.9798371195793152 66.74823760986328 1.926197052001953 C 68.90957641601562 2.840357065200806 70.85077667236328 4.149177074432373 72.51789855957031 5.816297054290771 C 74.18502044677734 7.48341703414917 75.49383544921875 9.424616813659668 76.40799713134766 11.58595752716064 C 77.35436248779297 13.82339668273926 77.83419799804688 16.20041656494141 77.83419799804688 18.65099716186523 L 77.83419799804688 136.1523132324219 C 77.83419799804688 138.6028900146484 77.35436248779297 140.9799194335938 76.40799713134766 143.2173614501953 C 75.49383544921875 145.3786926269531 74.18502044677734 147.3199005126953 72.51789855957031 148.9870147705078 C 70.85077667236328 150.6541442871094 68.90957641601562 151.9629516601562 66.74823760986328 152.8771209716797 C 64.51079559326172 153.8234710693359 62.1337776184082 154.3033142089844 59.68320083618164 154.3033142089844 Z" stroke="none"/>
          <path d="M 18.65099716186523 1 C 13.93624114990234 1 9.503700256347656 2.836013793945312 6.16986083984375 6.16986083984375 C 2.836021423339844 9.503692626953125 1 13.93623352050781 1 18.6510009765625 L 1 136.1523132324219 C 1 140.8670806884766 2.836021423339844 145.2996215820312 6.16986083984375 148.6334533691406 C 9.503700256347656 151.9673004150391 13.93624114990234 153.8033142089844 18.65099716186523 153.8033142089844 L 59.68319702148438 153.8033142089844 C 64.39795684814453 153.8033142089844 68.83049774169922 151.9673004150391 72.16433715820312 148.6334533691406 C 75.49817657470703 145.2996215820312 77.33419799804688 140.8670806884766 77.33419799804688 136.1523132324219 L 77.33419799804688 18.6510009765625 C 77.33419799804688 13.93623352050781 75.49817657470703 9.503692626953125 72.16433715820312 6.16986083984375 C 68.83049774169922 2.836013793945312 64.39795684814453 1 59.68319702148438 1 L 18.65099716186523 1 M 18.65099716186523 0 L 59.68319702148438 0 C 69.98385620117188 0 78.33419799804688 8.350341796875 78.33419799804688 18.6510009765625 L 78.33419799804688 136.1523132324219 C 78.33419799804688 146.4529724121094 69.98385620117188 154.8033142089844 59.68319702148438 154.8033142089844 L 18.65099716186523 154.8033142089844 C 8.350341796875 154.8033142089844 0 146.4529724121094 0 136.1523132324219 L 0 18.6510009765625 C 0 8.350341796875 8.350341796875 0 18.65099716186523 0 Z" stroke="none" fill="#17233d"/>
        </g>
        <rect id="Rectangle_41" data-name="Rectangle 41" width="46.95" height="7.825" rx="3" transform="translate(17.066 138.744)" fill="#e96328"/>
      </g>
      <path id="Rectangle_187" data-name="Rectangle 187" d="M0,0H50.358a0,0,0,0,1,0,0V4.326a5,5,0,0,1-5,5H5a5,5,0,0,1-5-5V0A0,0,0,0,1,0,0Z" transform="translate(14.921 1.865)" fill="#fff"/>
      <rect id="Rectangle_188" data-name="Rectangle 188" width="24.246" height="27.977" rx="2" transform="translate(42.628 29.841)" fill="#e96328" opacity="0.706"/>
      <rect id="Rectangle_189" data-name="Rectangle 189" width="24.246" height="27.977" rx="2" transform="translate(11.191 29.841)" fill="#e96328" opacity="0.701"/>
      <rect id="Rectangle_190" data-name="Rectangle 190" width="24.246" height="27.977" rx="2" transform="translate(11.191 69.009)" fill="#e96328" opacity="0.696"/>
      <rect id="Rectangle_191" data-name="Rectangle 191" width="24.246" height="27.977" rx="2" transform="translate(42.628 69.009)" fill="#e96328" opacity="0.696"/>
      <rect id="Rectangle_192" data-name="Rectangle 192" width="46.628" height="3.73" transform="translate(11.191 110.041)" fill="#fff"/>
      <rect id="Rectangle_193" data-name="Rectangle 193" width="37.302" height="1.865" transform="translate(11.191 115.636)" fill="#fff" opacity="0.568"/>
      <rect id="Rectangle_194" data-name="Rectangle 194" width="37.302" height="3.73" transform="translate(11.191 119.366)" fill="#fff" opacity="0.529"/>
    </g>
  </g>
</svg>
