<svg xmlns="http://www.w3.org/2000/svg" width="46.81" height="45.828" viewBox="0 0 46.81 45.828">
  <g id="Groupe_545" data-name="Groupe 545" transform="translate(0 0)">
    <g id="Groupe_137" data-name="Groupe 137" transform="translate(8.22 7.697)">
      <path id="Tracé_1730" data-name="Tracé 1730" d="M48.791,213.205c.069-.056.139-.119.205-.175h-.215l-.159.017A.116.116,0,0,0,48.791,213.205Z" transform="translate(-35.544 -212.232)" fill="#fff"/>
      <path id="Tracé_1731" data-name="Tracé 1731" d="M49.228,214.876c.612-.605,1.191-1.253,1.766-1.845h-.351a31.135,31.135,0,0,1-2.3,2.322c.129,0,.258-.01.39-.016C48.9,215.183,49.063,215.031,49.228,214.876Z" transform="translate(-36.124 -212.232)" fill="#fff"/>
      <path id="Tracé_1732" data-name="Tracé 1732" d="M48.736,215.279c.215-.013.433-.027.652-.043a26.739,26.739,0,0,0,2.434-2.206h-.605C50.419,213.811,49.593,214.565,48.736,215.279Z" transform="translate(-35.215 -212.232)" fill="#fff"/>
      <path id="Tracé_1733" data-name="Tracé 1733" d="M49.147,215.186l.483-.03q1.106-1.067,2.222-2.127H51.33l-.056.05Q50.212,214.136,49.147,215.186Z" transform="translate(-34.267 -212.232)" fill="#fff"/>
      <path id="Tracé_1734" data-name="Tracé 1734" d="M49.946,214.826c-.083.086-.165.169-.248.255l.212-.007c.764-.681,1.531-1.359,2.289-2.044h-.427c-.6.566-1.21,1.121-1.819,1.68A.1.1,0,0,1,49.946,214.826Z" transform="translate(-32.995 -212.232)" fill="#fff"/>
      <path id="Tracé_1735" data-name="Tracé 1735" d="M50.777,215.051q1.067-1.007,2.123-2.021h-.582c-.734.678-1.482,1.346-2.232,2.017C50.318,215.044,50.549,215.044,50.777,215.051Z" transform="translate(-32.1 -212.232)" fill="#fff"/>
      <path id="Tracé_1736" data-name="Tracé 1736" d="M50.816,215.043c.119.01.235.026.354.043.635-.635,1.263-1.277,1.9-1.918l-.275-.089C52.136,213.736,51.481,214.391,50.816,215.043Z" transform="translate(-30.416 -212.121)" fill="#fff"/>
      <path id="Tracé_1737" data-name="Tracé 1737" d="M51.152,214.949c.132.026.261.053.394.083.3-.288.605-.576.906-.867s.6-.562.9-.847c-.1-.043-.2-.089-.3-.129-.2.188-.407.377-.609.569C52.022,214.159,51.589,214.556,51.152,214.949Z" transform="translate(-29.641 -211.862)" fill="#fff"/>
      <path id="Tracé_1738" data-name="Tracé 1738" d="M48.81,217.629a4.768,4.768,0,0,1,.754-.159c.744-.738,1.5-1.462,2.262-2.183q-.313-.074-.625-.129C50.364,215.948,49.561,216.765,48.81,217.629Z" transform="translate(-35.044 -207.322)" fill="#fff"/>
      <path id="Tracé_1739" data-name="Tracé 1739" d="M49.332,217.164c.152.01.3.023.45.043q.972-.918,1.981-1.806-.169-.069-.337-.129c-.39.347-.784.691-1.167,1.042C49.947,216.595,49.64,216.879,49.332,217.164Z" transform="translate(-33.84 -207.059)" fill="#fff"/>
      <path id="Tracé_1740" data-name="Tracé 1740" d="M51.971,214.991c.526-.48,1.052-.959,1.571-1.445-.1-.06-.192-.116-.288-.172-.549.5-1.1.992-1.654,1.485C51.727,214.9,51.849,214.945,51.971,214.991Z" transform="translate(-28.605 -211.438)" fill="#fff"/>
      <path id="Tracé_1741" data-name="Tracé 1741" d="M50.213,217.276l1.736-1.627c-.119-.076-.245-.145-.367-.215-.6.552-1.2,1.108-1.8,1.66C49.932,217.15,50.074,217.21,50.213,217.276Z" transform="translate(-32.799 -206.685)" fill="#fff"/>
      <path id="Tracé_1742" data-name="Tracé 1742" d="M52.231,215.064c.483-.443.969-.88,1.455-1.316-.083-.066-.165-.126-.251-.188-.5.443-1,.883-1.5,1.33C52.036,214.945,52.131,215,52.231,215.064Z" transform="translate(-27.839 -211.011)" fill="#fff"/>
      <path id="Tracé_1743" data-name="Tracé 1743" d="M50.581,217.556q.863-.764,1.713-1.545c-.142-.126-.288-.248-.44-.364l-1.72,1.558A4.521,4.521,0,0,1,50.581,217.556Z" transform="translate(-31.987 -206.191)" fill="#fff"/>
      <path id="Tracé_1744" data-name="Tracé 1744" d="M52.579,215.353c.446-.43.893-.863,1.336-1.293-.086-.086-.172-.175-.265-.258-.46.42-.923.843-1.386,1.263C52.374,215.158,52.477,215.254,52.579,215.353Z" transform="translate(-27.073 -210.45)" fill="#fff"/>
      <path id="Tracé_1745" data-name="Tracé 1745" d="M51.472,216.318q.769-.724,1.535-1.459a1.419,1.419,0,0,0-.625-.093l-1.078.982A1.59,1.59,0,0,0,51.472,216.318Z" transform="translate(-29.292 -208.231)" fill="#fff"/>
      <path id="Tracé_1746" data-name="Tracé 1746" d="M52.719,215.508c.473-.4.949-.8,1.422-1.2-.066-.083-.136-.169-.205-.248-.48.387-.959.777-1.439,1.164C52.573,215.32,52.646,215.412,52.719,215.508Z" transform="translate(-26.537 -209.848)" fill="#fff"/>
      <path id="Tracé_1747" data-name="Tracé 1747" d="M51.424,216.394a1.165,1.165,0,0,0,.341.255c.291-.288.585-.569.89-.837.235-.215.476-.42.714-.628l0-.01a1.4,1.4,0,0,0-.232-.3c-.182.155-.364.308-.542.463C52.2,215.683,51.808,216.037,51.424,216.394Z" transform="translate(-29.013 -207.972)" fill="#fff"/>
      <path id="Tracé_1748" data-name="Tracé 1748" d="M50.751,217.918c.552-.556,1.091-1.124,1.63-1.7-.112-.129-.228-.251-.351-.37-.549.539-1.095,1.085-1.64,1.631A5.055,5.055,0,0,1,50.751,217.918Z" transform="translate(-31.396 -205.723)" fill="#fff"/>
      <path id="Tracé_1749" data-name="Tracé 1749" d="M52.85,215.84c.489-.413.969-.83,1.452-1.25-.043-.073-.093-.146-.136-.215-.48.4-.959.807-1.445,1.2C52.767,215.662,52.807,215.751,52.85,215.84Z" transform="translate(-26.02 -209.128)" fill="#fff"/>
      <path id="Tracé_1750" data-name="Tracé 1750" d="M50.816,218.2c.575-.579,1.131-1.184,1.7-1.756-.073-.112-.142-.228-.218-.337-.579.549-1.141,1.111-1.713,1.657C50.667,217.9,50.746,218.047,50.816,218.2Z" transform="translate(-30.951 -205.144)" fill="#fff"/>
      <path id="Tracé_1751" data-name="Tracé 1751" d="M50.785,218.446c.6-.642,1.184-1.287,1.773-1.931l-.066-.136c-.579.628-1.167,1.25-1.756,1.869C50.755,218.314,50.768,218.38,50.785,218.446Z" transform="translate(-30.603 -204.505)" fill="#fff"/>
      <path id="Tracé_1752" data-name="Tracé 1752" d="M48.784,219.449c-.063.093.076.192.152.116.189-.182.377-.361.566-.539-.112-.016-.228-.04-.341-.063C49.035,219.125,48.9,219.284,48.784,219.449Z" transform="translate(-35.141 -198.543)" fill="#fff"/>
      <path id="Tracé_1753" data-name="Tracé 1753" d="M50.813,218.81q1.027-.928,2.047-1.862c-.03-.093-.06-.185-.093-.278-.661.592-1.323,1.191-1.978,1.793C50.8,218.578,50.81,218.694,50.813,218.81Z" transform="translate(-30.476 -203.833)" fill="#fff"/>
      <path id="Tracé_1754" data-name="Tracé 1754" d="M53.179,215.266c.036-.04-.02-.1-.06-.059-.066.069-.139.132-.205.2l.02.109C53.017,215.431,53.1,215.348,53.179,215.266Z" transform="translate(-25.575 -207.241)" fill="#fff"/>
      <path id="Tracé_1755" data-name="Tracé 1755" d="M50.767,219.6q1.166-1.171,2.335-2.345c-.023-.122-.043-.241-.073-.364q-1.091,1.057-2.173,2.127A5.609,5.609,0,0,1,50.767,219.6Z" transform="translate(-30.529 -203.319)" fill="#fff"/>
      <path id="Tracé_1756" data-name="Tracé 1756" d="M48.942,220.345a.135.135,0,0,0,.175,0c.519-.447,1.029-.9,1.535-1.366-.076.013-.149.026-.225.036Q49.683,219.677,48.942,220.345Z" transform="translate(-34.74 -198.513)" fill="#fff"/>
      <path id="Tracé_1757" data-name="Tracé 1757" d="M52.986,216.683c.549-.483,1.1-.959,1.667-1.422l-.033-.149c-.562.447-1.118.9-1.667,1.363C52.966,216.544,52.976,216.613,52.986,216.683Z" transform="translate(-25.485 -207.428)" fill="#fff"/>
      <path id="Tracé_1758" data-name="Tracé 1758" d="M54.2,220.082a5.22,5.22,0,0,1-.847,1.177,4.684,4.684,0,0,1-1.3,1.1c-.112.063-.232.119-.351.175q-1.32,1.3-2.633,2.613.193.015.387.02c2.662-2.279,5.02-4.968,7.517-7.418l.146-.139c0-.122-.013-.241-.02-.36l-.318.308Q55.491,218.814,54.2,220.082Z" transform="translate(-34.437 -202.493)" fill="#fff"/>
      <path id="Tracé_1759" data-name="Tracé 1759" d="M53.005,217.088c.592-.493,1.194-.979,1.766-1.492l-.02-.136c-.572.476-1.171.926-1.759,1.389Z" transform="translate(-25.395 -206.623)" fill="#fff"/>
      <path id="Tracé_1760" data-name="Tracé 1760" d="M50.685,223.072c-.39.394-.784.817-1.184,1.253.146-.016.291-.043.437-.066,1.6-1.588,3.185-3.192,4.769-4.8.446-.45.886-.906,1.33-1.363.026-.165.053-.331.069-.5l-.82.85C53.767,220.007,52.216,221.531,50.685,223.072Z" transform="translate(-33.45 -201.69)" fill="#fff"/>
      <path id="Tracé_1761" data-name="Tracé 1761" d="M53.013,217.524q.893-.829,1.829-1.611c-.01-.089-.02-.175-.03-.265-.618.486-1.224.992-1.809,1.515C53.006,217.283,53.01,217.405,53.013,217.524Z" transform="translate(-25.37 -206.189)" fill="#fff"/>
      <path id="Tracé_1762" data-name="Tracé 1762" d="M53.011,217.967c.615-.618,1.247-1.22,1.9-1.793l-.02-.248c-.648.519-1.273,1.062-1.885,1.624C53.011,217.689,53.011,217.828,53.011,217.967Z" transform="translate(-25.358 -205.55)" fill="#fff"/>
      <path id="Tracé_1763" data-name="Tracé 1763" d="M49.915,219.9l-.017.017c.1-.023.2-.04.3-.066.189-.053.367-.122.549-.192l.066-.069A8.241,8.241,0,0,1,49.915,219.9Z" transform="translate(-32.534 -197.089)" fill="#fff"/>
      <path id="Tracé_1764" data-name="Tracé 1764" d="M51.228,222.1c.919-1.005,1.812-2.027,2.712-3a7.242,7.242,0,0,0,.42-1.019c-1.4,1.554-2.791,3.112-4.247,4.6A7.59,7.59,0,0,0,51.228,222.1Z" transform="translate(-32.038 -200.566)" fill="#fff"/>
      <path id="Tracé_1765" data-name="Tracé 1765" d="M53.014,218.542c.635-.642,1.287-1.263,1.961-1.865l-.007-.251q-1.007.878-1.958,1.812Z" transform="translate(-25.351 -204.398)" fill="#fff"/>
      <path id="Tracé_1766" data-name="Tracé 1766" d="M50.362,221.084q-1.086,1.052-2.183,2.094a.142.142,0,0,0-.023.142h.351q1.141-1.126,2.292-2.249C50.653,221.074,50.507,221.081,50.362,221.084Z" transform="translate(-36.576 -193.679)" fill="#fff"/>
      <path id="Tracé_1767" data-name="Tracé 1767" d="M50.788,219.218l0,.007Z" transform="translate(-30.487 -197.954)" fill="#fff"/>
      <path id="Tracé_1768" data-name="Tracé 1768" d="M50.491,219.913a6.979,6.979,0,0,0,.883-.671,7.874,7.874,0,0,1-.718.516Z" transform="translate(-31.166 -197.899)" fill="#fff"/>
      <path id="Tracé_1769" data-name="Tracé 1769" d="M48.7,222.69q.913-.8,1.806-1.627l-.136,0A14.66,14.66,0,0,0,48.7,222.69Z" transform="translate(-35.305 -193.697)" fill="#fff"/>
      <path id="Tracé_1770" data-name="Tracé 1770" d="M50.612,221.2c-.661.615-1.333,1.227-2.008,1.832h.2Q49.681,222.092,50.612,221.2Z" transform="translate(-35.52 -193.388)" fill="#fff"/>
      <path id="Tracé_1771" data-name="Tracé 1771" d="M53.033,219.162q.952-1,1.912-1.984l.007-.341c-.648.652-1.29,1.31-1.928,1.968Z" transform="translate(-25.324 -203.448)" fill="#fff"/>
      <path id="Tracé_1772" data-name="Tracé 1772" d="M49.4,221.234l.079,0c.169-.159.334-.321.5-.48C49.791,220.913,49.6,221.072,49.4,221.234Z" transform="translate(-33.681 -194.417)" fill="#fff"/>
      <path id="Tracé_1773" data-name="Tracé 1773" d="M48.953,221.927l-.192.215.241-.218Z" transform="translate(-35.157 -191.711)" fill="#fff"/>
      <path id="Tracé_1774" data-name="Tracé 1774" d="M51.322,221.047c-.81.757-1.6,1.531-2.348,2.335h.162q1.116-1.017,2.229-2.034c.1-.1.255.056.152.152q-.843.8-1.68,1.607,1.141-1.022,2.265-2.064h-.638Z" transform="translate(-34.666 -193.741)" fill="#fff"/>
      <path id="Tracé_1775" data-name="Tracé 1775" d="M53.04,219.555q.9-.843,1.816-1.67l.013-.43c-.615.546-1.224,1.095-1.832,1.647C53.04,219.254,53.04,219.4,53.04,219.555Z" transform="translate(-25.291 -202.022)" fill="#fff"/>
      <path id="Tracé_1776" data-name="Tracé 1776" d="M53.025,219.885q.868-.779,1.793-1.5l0-.063,0-.162q-.918.7-1.783,1.455Z" transform="translate(-25.319 -200.407)" fill="#fff"/>
      <path id="Tracé_1777" data-name="Tracé 1777" d="M52.086,221.044c-.711.638-1.429,1.28-2.13,1.938l-.182.182c.212-.017.42-.03.628-.043q1.076-1.042,2.163-2.077Z" transform="translate(-32.82 -193.741)" fill="#fff"/>
      <path id="Tracé_1778" data-name="Tracé 1778" d="M52.971,220.7q.833-.774,1.664-1.548c.093-.086.182-.175.271-.265l.01-.341q-.938.873-1.885,1.736C53.014,220.422,52.991,220.561,52.971,220.7Z" transform="translate(-25.444 -199.502)" fill="#fff"/>
      <path id="Tracé_1779" data-name="Tracé 1779" d="M52.431,221.044c-.777.675-1.554,1.353-2.315,2.05.251-.013.513-.017.774-.02q1.091-1.017,2.179-2.031Z" transform="translate(-32.031 -193.741)" fill="#fff"/>
      <path id="Tracé_1780" data-name="Tracé 1780" d="M53.161,221.166q-1.235,1.087-2.471,2.18H51.2c.933-.8,1.862-1.607,2.778-2.418A6.106,6.106,0,0,1,53.161,221.166Z" transform="translate(-30.707 -194.009)" fill="#fff"/>
      <path id="Tracé_1781" data-name="Tracé 1781" d="M53.781,220.091c-.628.572-1.263,1.138-1.9,1.7A4.537,4.537,0,0,0,53.781,220.091Z" transform="translate(-27.954 -195.94)" fill="#fff"/>
      <path id="Tracé_1782" data-name="Tracé 1782" d="M52.78,221.836q1.24-1.171,2.464-2.365c.013-.126.02-.251.03-.38q-1.106,1.047-2.229,2.08A6.467,6.467,0,0,1,52.78,221.836Z" transform="translate(-25.884 -198.247)" fill="#fff"/>
      <path id="Tracé_1783" data-name="Tracé 1783" d="M51.224,226.317c.2-.007.394-.017.589-.03.675-.635,1.353-1.27,2.027-1.9,1.554-1.468,3.162-2.877,4.743-4.316.03-.142.053-.288.076-.433-1.687,1.5-3.407,2.97-5.067,4.5C52.8,224.865,52.014,225.589,51.224,226.317Z" transform="translate(-29.474 -196.997)" fill="#fff"/>
      <path id="Tracé_1784" data-name="Tracé 1784" d="M52.626,224.406c.136-.06.268-.126.4-.192q1.647-1.578,3.278-3.168c.119-.251.222-.509.317-.774q-2.371,2.168-4.746,4.333A7.165,7.165,0,0,0,52.626,224.406Z" transform="translate(-27.972 -195.522)" fill="#fff"/>
      <path id="Tracé_1785" data-name="Tracé 1785" d="M45.109,217.783c1.376-1.422,2.669-2.947,3.982-4.349-.172.059-.341.122-.509.192-.1.053-.205.1-.308.159-.883.976-1.769,1.948-2.679,2.894A8.676,8.676,0,0,0,45.109,217.783Z" transform="translate(-43.583 -211.299)" fill="#fff"/>
      <path id="Tracé_1786" data-name="Tracé 1786" d="M49.456,214.841c-1.422,1.333-2.864,2.649-4.3,3.972-.063.222-.122.446-.165.671q2.123-2.034,4.276-4.042c.754-.7,1.475-1.432,2.189-2.176q-.253.05-.506.109C50.461,213.869,49.965,214.362,49.456,214.841Z" transform="translate(-43.849 -211.685)" fill="#fff"/>
      <path id="Tracé_1787" data-name="Tracé 1787" d="M48.008,215.441a6.358,6.358,0,0,1,.628-.966c-1.214,1.154-2.434,2.3-3.674,3.42,0,.106-.013.215-.017.321,1.009-.9,2.021-1.793,3.023-2.7Z" transform="translate(-43.962 -208.898)" fill="#fff"/>
      <path id="Tracé_1788" data-name="Tracé 1788" d="M44.843,215.712l0-.076-.026.023c-.007.106-.017.215-.023.324l.046-.043Z" transform="translate(-44.303 -206.219)" fill="#fff"/>
      <path id="Tracé_1789" data-name="Tracé 1789" d="M46.464,216.2a6.3,6.3,0,0,1,1.058-.605c.8-.8,1.584-1.607,2.365-2.418-.149.02-.3.043-.453.066C48.455,214.242,47.469,215.231,46.464,216.2Z" transform="translate(-40.457 -211.892)" fill="#fff"/>
      <path id="Tracé_1790" data-name="Tracé 1790" d="M47.871,215.244q1.141-1.081,2.289-2.15l-.582.076q-1.171,1.067-2.328,2.15A5.417,5.417,0,0,1,47.871,215.244Z" transform="translate(-38.646 -212.084)" fill="#fff"/>
      <path id="Tracé_1791" data-name="Tracé 1791" d="M47.394,215.228c-.817.731-1.64,1.462-2.451,2.2v.714q1.136-1.052,2.262-2.12C47.258,215.757,47.318,215.489,47.394,215.228Z" transform="translate(-43.966 -207.16)" fill="#fff"/>
      <path id="Tracé_1792" data-name="Tracé 1792" d="M50.256,213.354c.086-.066,0-.215-.089-.149-.761.569-1.488,1.171-2.2,1.8h.3C48.913,214.433,49.568,213.877,50.256,213.354Z" transform="translate(-36.989 -211.865)" fill="#fff"/>
      <path id="Tracé_1793" data-name="Tracé 1793" d="M46.964,216.058c-.671.609-1.349,1.217-2.021,1.832v.556q.992-.962,1.994-1.918C46.944,216.369,46.954,216.213,46.964,216.058Z" transform="translate(-43.966 -205.245)" fill="#fff"/>
      <path id="Tracé_1794" data-name="Tracé 1794" d="M46.917,216.372c-.668.585-1.33,1.177-1.974,1.783v.728c.652-.618,1.3-1.234,1.961-1.849C46.908,216.815,46.911,216.594,46.917,216.372Z" transform="translate(-43.966 -204.521)" fill="#fff"/>
      <path id="Tracé_1795" data-name="Tracé 1795" d="M48.976,214.859l-.02.017c-.165.155-.331.308-.5.46l.377-.023c.767-.741,1.511-1.521,2.272-2.282h-.278C50.216,213.645,49.608,214.267,48.976,214.859Z" transform="translate(-35.852 -212.232)" fill="#fff"/>
      <path id="Tracé_1796" data-name="Tracé 1796" d="M46.884,216.889c-.615.546-1.234,1.091-1.842,1.647l-.1.093v.447c.632-.589,1.277-1.164,1.928-1.736C46.878,217.187,46.881,217.038,46.884,216.889Z" transform="translate(-43.966 -203.328)" fill="#fff"/>
      <path id="Tracé_1797" data-name="Tracé 1797" d="M49.974,212.813l-.01.013.132-.007A.082.082,0,0,0,49.974,212.813Z" transform="translate(-32.382 -212.789)" fill="#fff"/>
      <path id="Tracé_1798" data-name="Tracé 1798" d="M49.373,215.186q1.067-1.052,2.127-2.107l.05-.05h-.258q-1.116,1.1-2.242,2.179Z" transform="translate(-34.493 -212.232)" fill="#fff"/>
      <path id="Tracé_1799" data-name="Tracé 1799" d="M46.8,217.4q-.933.858-1.855,1.716c.007.192.01.384.017.572q.9-.838,1.8-1.68C46.77,217.81,46.786,217.6,46.8,217.4Z" transform="translate(-43.964 -202.142)" fill="#fff"/>
      <path id="Tracé_1800" data-name="Tracé 1800" d="M50.165,213.578a.092.092,0,0,0-.152-.026c-.132.139-.271.275-.407.413l.3-.017c.083-.086.165-.169.248-.255A.1.1,0,0,0,50.165,213.578Z" transform="translate(-33.208 -211.099)" fill="#fff"/>
      <path id="Tracé_1801" data-name="Tracé 1801" d="M51.081,215.521q-1.642,1.5-3.287,3a9.532,9.532,0,0,0-.622,1.23c1.568-1.5,3.122-3.016,4.676-4.521A7.625,7.625,0,0,0,51.081,215.521Z" transform="translate(-38.824 -207.149)" fill="#fff"/>
      <path id="Tracé_1802" data-name="Tracé 1802" d="M46.643,217.946c-.562.506-1.124,1.019-1.687,1.525,0,.212.01.42.017.632.546-.456,1.085-.919,1.624-1.386C46.61,218.459,46.626,218.2,46.643,217.946Z" transform="translate(-43.937 -200.889)" fill="#fff"/>
      <path id="Tracé_1803" data-name="Tracé 1803" d="M45.678,217.779l-.01.01-.03.784.04-.033Z" transform="translate(-42.363 -201.274)" fill="#fff"/>
      <path id="Tracé_1804" data-name="Tracé 1804" d="M53.645,215.841c.251-.232.506-.466.751-.708h-.007c-.122,0-.241.013-.36.02-2.13,1.938-4.455,3.651-6.624,5.546-.069.06-.136.119-.205.182-.066.231-.126.466-.175.7.146-.139.291-.281.44-.417C49.491,219.353,51.648,217.69,53.645,215.841Z" transform="translate(-39.165 -207.379)" fill="#fff"/>
      <path id="Tracé_1805" data-name="Tracé 1805" d="M46.51,218.455c-.506.5-1.019,1-1.535,1.482.007.139.013.274.023.413a16.607,16.607,0,0,0,1.5-1.174C46.5,218.935,46.5,218.7,46.51,218.455Z" transform="translate(-43.893 -199.715)" fill="#fff"/>
      <path id="Tracé_1806" data-name="Tracé 1806" d="M45.708,218.246l-.066.066c-.007.261-.013.523-.017.784l.083-.079Z" transform="translate(-42.393 -200.197)" fill="#fff"/>
      <path id="Tracé_1807" data-name="Tracé 1807" d="M49.83,216.726c-.952.767-1.9,1.541-2.834,2.332,0,.152.01.3.023.456.843-.747,1.7-1.478,2.57-2.2A5.063,5.063,0,0,1,49.83,216.726Z" transform="translate(-39.23 -203.704)" fill="#fff"/>
      <path id="Tracé_1808" data-name="Tracé 1808" d="M45.156,219.68a.154.154,0,0,0,.155.265,6.948,6.948,0,0,0,.966-.552c-.01-.179-.017-.357-.023-.536C45.9,219.14,45.54,219.422,45.156,219.68Z" transform="translate(-43.644 -198.789)" fill="#fff"/>
      <path id="Tracé_1809" data-name="Tracé 1809" d="M45.709,218.675l-.083.073c0,.188,0,.374,0,.559l0,.069.079-.066Z" transform="translate(-42.394 -199.207)" fill="#fff"/>
      <path id="Tracé_1810" data-name="Tracé 1810" d="M47.476,216.719V216.7" transform="translate(-38.122 -203.759)" fill="#fff"/>
      <path id="Tracé_1811" data-name="Tracé 1811" d="M45.69,219.186l-.053.05.013.212.053-.05C45.7,219.328,45.693,219.259,45.69,219.186Z" transform="translate(-42.365 -198.028)" fill="#fff"/>
      <path id="Tracé_1812" data-name="Tracé 1812" d="M46.428,219.349c-.456.4-.916.8-1.369,1.2l.03.212c.453-.41.909-.814,1.369-1.217Z" transform="translate(-43.699 -197.652)" fill="#fff"/>
      <path id="Tracé_1813" data-name="Tracé 1813" d="M49.472,216.953c-.824.87-1.637,1.75-2.447,2.629l.023.152q1.181-1.31,2.378-2.606C49.443,217.069,49.456,217.009,49.472,216.953Z" transform="translate(-39.163 -203.18)" fill="#fff"/>
      <path id="Tracé_1814" data-name="Tracé 1814" d="M48.135,216.684a.037.037,0,0,0-.013-.056c-.02.043-.036.086-.056.129l.046-.05Z" transform="translate(-36.761 -203.93)" fill="#fff"/>
      <path id="Tracé_1815" data-name="Tracé 1815" d="M49.084,217.6c-.645.6-1.3,1.2-1.961,1.786.026.079.056.155.086.232q.962-.9,1.905-1.829Z" transform="translate(-38.937 -201.694)" fill="#fff"/>
      <path id="Tracé_1816" data-name="Tracé 1816" d="M46.472,219.574c-.456.38-.919.764-1.379,1.154.03.149.06.3.093.45l1.359-1.24C46.518,219.819,46.5,219.7,46.472,219.574Z" transform="translate(-43.62 -197.133)" fill="#fff"/>
      <path id="Tracé_1817" data-name="Tracé 1817" d="M45.724,219.433l-.066.053c.013.122.03.241.046.357l.079-.07C45.761,219.661,45.741,219.545,45.724,219.433Z" transform="translate(-42.317 -197.458)" fill="#fff"/>
      <path id="Tracé_1818" data-name="Tracé 1818" d="M45.844,219.734l-.132.126c.033.136.069.268.109.4l.159-.155C45.93,219.982,45.884,219.856,45.844,219.734Z" transform="translate(-42.192 -196.764)" fill="#fff"/>
      <path id="Tracé_1819" data-name="Tracé 1819" d="M46.466,219.894q-.625.615-1.257,1.23c.053.112.1.228.162.337.413-.394.82-.794,1.23-1.194C46.555,220.142,46.505,220.02,46.466,219.894Z" transform="translate(-43.353 -196.394)" fill="#fff"/>
      <path id="Tracé_1820" data-name="Tracé 1820" d="M49.054,217.808q-.938.843-1.855,1.71c.04.089.083.175.126.261.6-.582,1.194-1.161,1.8-1.73C49.1,217.97,49.074,217.887,49.054,217.808Z" transform="translate(-38.761 -201.207)" fill="#fff"/>
      <path id="Tracé_1821" data-name="Tracé 1821" d="M49.187,218.273c-.033-.059-.063-.119-.093-.179-.589.542-1.174,1.085-1.753,1.637.046.073.086.152.136.222.572-.552,1.144-1.1,1.72-1.65Z" transform="translate(-38.431 -200.548)" fill="#fff"/>
      <path id="Tracé_1822" data-name="Tracé 1822" d="M46.512,220.182q-.58.57-1.158,1.141c.073.116.149.232.228.344q.566-.565,1.124-1.141C46.637,220.414,46.571,220.3,46.512,220.182Z" transform="translate(-43.018 -195.73)" fill="#fff"/>
      <path id="Tracé_1823" data-name="Tracé 1823" d="M46.009,220.017l-.2.189c.053.119.109.235.172.35l.212-.215C46.132,220.232,46.065,220.126,46.009,220.017Z" transform="translate(-41.957 -196.111)" fill="#fff"/>
      <path id="Tracé_1824" data-name="Tracé 1824" d="M46.176,220.252l-.222.225c.06.079.126.159.192.235l.215-.215C46.295,220.417,46.235,220.335,46.176,220.252Z" transform="translate(-41.634 -195.568)" fill="#fff"/>
      <path id="Tracé_1825" data-name="Tracé 1825" d="M49.254,218.544a2.988,2.988,0,0,1-.149-.265c-.556.532-1.1,1.075-1.637,1.624.063.079.122.159.185.235C48.179,219.6,48.715,219.069,49.254,218.544Z" transform="translate(-38.141 -200.121)" fill="#fff"/>
      <path id="Tracé_1826" data-name="Tracé 1826" d="M46.638,220.418l-1.121,1.121c.066.083.132.162.2.241q.566-.566,1.124-1.131C46.77,220.573,46.7,220.5,46.638,220.418Z" transform="translate(-42.642 -195.185)" fill="#fff"/>
      <path id="Tracé_1827" data-name="Tracé 1827" d="M46.341,220.485l-.175.189c.093.076.189.152.291.222l.152-.169C46.517,220.647,46.427,220.568,46.341,220.485Z" transform="translate(-41.145 -195.031)" fill="#fff"/>
      <path id="Tracé_1828" data-name="Tracé 1828" d="M49.174,218.479q-.789.764-1.551,1.558c.093.1.189.192.288.284q.739-.8,1.488-1.584C49.323,218.651,49.247,218.568,49.174,218.479Z" transform="translate(-37.783 -199.659)" fill="#fff"/>
      <path id="Tracé_1829" data-name="Tracé 1829" d="M46.866,220.637c-.374.407-.751.807-1.128,1.207.1.093.2.179.294.268.38-.417.757-.837,1.131-1.253C47.061,220.789,46.962,220.713,46.866,220.637Z" transform="translate(-42.132 -194.68)" fill="#fff"/>
      <path id="Tracé_1830" data-name="Tracé 1830" d="M49.641,218.873c-.063-.04-.126-.076-.189-.119-.513.5-1.019,1.019-1.521,1.535.066.046.129.1.2.145C48.626,219.908,49.128,219.386,49.641,218.873Z" transform="translate(-37.072 -199.025)" fill="#fff"/>
      <path id="Tracé_1831" data-name="Tracé 1831" d="M46.523,220.685l-.093.086c.1.05.205.1.311.142l.05-.046C46.7,220.807,46.609,220.748,46.523,220.685Z" transform="translate(-40.536 -194.569)" fill="#fff"/>
      <path id="Tracé_1832" data-name="Tracé 1832" d="M47.261,220.8q-.665.615-1.33,1.227c.086.073.179.136.271.2q.68-.645,1.363-1.28C47.462,220.9,47.36,220.854,47.261,220.8Z" transform="translate(-41.687 -194.302)" fill="#fff"/>
      <path id="Tracé_1833" data-name="Tracé 1833" d="M47.735,220.943c-.5.48-1.005.953-1.511,1.429.089.053.179.112.268.162q.809-.734,1.594-1.492C47.967,221.013,47.851,220.979,47.735,220.943Z" transform="translate(-41.011 -193.974)" fill="#fff"/>
      <path id="Tracé_1834" data-name="Tracé 1834" d="M49.794,218.91q-.789.8-1.571,1.614c.079.04.165.079.248.119q.789-.829,1.581-1.65C49.966,218.966,49.88,218.94,49.794,218.91Z" transform="translate(-36.399 -198.665)" fill="#fff"/>
      <path id="Tracé_1835" data-name="Tracé 1835" d="M48.251,221.025c-.265.248-.529.5-.787.748-.317.3-.638.6-.959.9q.2.089.407.169c.609-.582,1.22-1.164,1.829-1.746C48.575,221.071,48.413,221.051,48.251,221.025Z" transform="translate(-40.363 -193.785)" fill="#fff"/>
      <path id="Tracé_1836" data-name="Tracé 1836" d="M51.175,218.987a4.764,4.764,0,0,1-.483.036q-1.042.913-2.074,1.845c.122.036.248.066.374.1.232-.215.463-.43.7-.645Q50.429,219.65,51.175,218.987Z" transform="translate(-35.487 -198.487)" fill="#fff"/>
      <path id="Tracé_1837" data-name="Tracé 1837" d="M49.433,221.08l-.321-.01c-.7.681-1.389,1.372-2.08,2.067.106.02.212.033.314.05C48.041,222.482,48.732,221.774,49.433,221.08Z" transform="translate(-39.147 -193.681)" fill="#fff"/>
      <path id="Tracé_1838" data-name="Tracé 1838" d="M51.99,219a21.8,21.8,0,0,0-2.315,2.037c.122-.023.245-.053.364-.083a21.9,21.9,0,0,1,2.051-1.789C52.185,219.1,52.089,218.93,51.99,219Z" transform="translate(-33.048 -198.493)" fill="#fff"/>
      <path id="Tracé_1839" data-name="Tracé 1839" d="M49.781,221.078q-1.2,1.091-2.375,2.2c.139.01.278.02.417.023q1.171-1.111,2.355-2.216C50.045,221.081,49.913,221.081,49.781,221.078Z" transform="translate(-38.284 -193.663)" fill="#fff"/>
      <path id="Tracé_1840" data-name="Tracé 1840" d="M50.607,219.5c-.073.036-.146.07-.218.106l-.119.112c.122-.056.245-.112.364-.179A.106.106,0,0,0,50.607,219.5Z" transform="translate(-31.676 -197.306)" fill="#fff"/>
      <path id="Tracé_1841" data-name="Tracé 1841" d="M50.763,221.075c-.129,0-.255,0-.38,0-.8.751-1.6,1.492-2.411,2.232h.46l.149-.142Q49.677,222.127,50.763,221.075Z" transform="translate(-36.978 -193.67)" fill="#fff"/>
      <path id="Tracé_1842" data-name="Tracé 1842" d="M51.394,221.059l-.377.013q-.893.823-1.806,1.627c-.245.218-.489.433-.738.648h.43c.675-.605,1.346-1.217,2.008-1.832C51.074,221.363,51.236,221.211,51.394,221.059Z" transform="translate(-35.819 -193.706)" fill="#fff"/>
      <path id="Tracé_1843" data-name="Tracé 1843" d="M51.4,221.309c.1-.1-.05-.248-.152-.152q-1.111,1.017-2.229,2.034h.086l.367-.036.248-.238Q50.563,222.108,51.4,221.309Z" transform="translate(-34.553 -193.55)" fill="#fff"/>
      <path id="Tracé_1844" data-name="Tracé 1844" d="M50.456,221.668a.1.1,0,0,0-.142-.142c-.208.212-.427.413-.642.618l.337-.027.182-.182C50.277,221.844,50.367,221.758,50.456,221.668Z" transform="translate(-33.055 -192.695)" fill="#fff"/>
      <path id="Tracé_1845" data-name="Tracé 1845" d="M52.5,222.9c-.132.066-.265.132-.4.192a5.474,5.474,0,0,0,2.166-1.247,6.722,6.722,0,0,0,.87-1.009A8.724,8.724,0,0,1,52.5,222.9Z" transform="translate(-27.449 -194.212)" fill="#fff"/>
      <path id="Tracé_1846" data-name="Tracé 1846" d="M52.776,220.011l-.056.106Z" transform="translate(-26.023 -196.124)" fill="#fff"/>
      <path id="Tracé_1847" data-name="Tracé 1847" d="M49.933,213.257h6.6c.268,0,.536.017.8.04a10.372,10.372,0,0,0-1.035-.2,32.506,32.506,0,0,0-7.653.162h1.283Z" transform="translate(-35.413 -212.459)" fill="#fff"/>
      <path id="Tracé_1848" data-name="Tracé 1848" d="M54.436,220.564a14.106,14.106,0,0,1-.979,4.283,9.013,9.013,0,0,0,.48-1.042c.083-.205.162-.407.228-.619a9.091,9.091,0,0,0,.331-1.561c.017-.129.033-.258.043-.39.02-.251.04-.506.04-.764v-1.935C54.538,219.218,54.492,219.9,54.436,220.564Z" transform="translate(-24.322 -199.525)" fill="#fff"/>
      <path id="Tracé_1849" data-name="Tracé 1849" d="M45.248,226.565V220.31c0-.06.007-.116.007-.175,0-.106.013-.215.017-.321a8.4,8.4,0,0,1,.146-1.2c.043-.225.1-.45.165-.671s.136-.433.215-.645a8.344,8.344,0,0,1,2.576-3.658,7.874,7.874,0,0,0-1.561,1.227,5.671,5.671,0,0,0-.582.714,4.523,4.523,0,0,0-.394.91.208.208,0,0,1-.205.152,10.5,10.5,0,0,0-.794,3.125c-.01.152-.023.308-.023.463l0,.076v2.907c.109,1.115.294,2.219.377,3.347.026.384.046.764.06,1.148Z" transform="translate(-44.271 -210.817)" fill="#fff"/>
      <path id="Tracé_1850" data-name="Tracé 1850" d="M52.231,213.18a9.783,9.783,0,0,1,6.307,7.488c.179,1.138.3,2.3.38,3.469V221.9c0-.129-.017-.255-.02-.38,0-.083-.007-.162-.013-.242-.013-.215-.036-.43-.066-.638l-.013-.1c-.05-.314-.112-.625-.189-.929l-.033-.129a9.144,9.144,0,0,0-.946-2.222c-.04-.066-.079-.132-.122-.2a8.872,8.872,0,0,0-.552-.79c-.063-.083-.126-.162-.189-.241-.2-.228-.4-.446-.612-.655-.083-.079-.169-.155-.255-.231-.235-.212-.48-.413-.734-.6-.083-.06-.159-.122-.241-.182-.228-.156-.463-.3-.708-.433-.1-.056-.2-.106-.294-.155a9.346,9.346,0,0,0-1-.437c-.1-.036-.205-.079-.308-.112-.281-.093-.569-.169-.86-.235-.063-.013-.122-.03-.185-.043C51.8,213.021,52.016,213.094,52.231,213.18Z" transform="translate(-28.662 -212.412)" fill="#fff"/>
      <path id="Tracé_1851" data-name="Tracé 1851" d="M55.282,216.124a6.855,6.855,0,0,1,1.392,3.347,6.116,6.116,0,0,0-.093-.655l-.02-.109a6.222,6.222,0,0,0-.509-1.455c-.043-.089-.083-.179-.129-.261a6.386,6.386,0,0,0-.519-.79c-.073-.1-.146-.189-.222-.281-.142-.165-.294-.324-.453-.476-.1-.1-.205-.2-.314-.288a6.443,6.443,0,0,0-.8-.562c-.1-.06-.2-.119-.3-.175a6.843,6.843,0,0,0-.728-.324c-.122-.046-.245-.1-.37-.132a6.14,6.14,0,0,0-.886-.2A7.205,7.205,0,0,1,55.282,216.124Z" transform="translate(-29.223 -210.54)" fill="#fff"/>
      <path id="Tracé_1852" data-name="Tracé 1852" d="M52.825,216.985v3.44a30.668,30.668,0,0,0,0-4.71v1.27Z" transform="translate(-25.781 -206.037)" fill="#fff"/>
      <path id="Tracé_1853" data-name="Tracé 1853" d="M57.855,225.616H53.218c-.046,0-.089-.007-.132-.007-.139,0-.278-.013-.417-.023a7.814,7.814,0,0,1-.923-.106c-.1-.017-.208-.03-.314-.05a9.047,9.047,0,0,1-1.336-.4q-.208-.079-.407-.169c-.225-.1-.446-.205-.661-.324-.089-.05-.179-.109-.268-.162-.241-.146-.473-.3-.7-.466-.093-.069-.185-.132-.271-.205-.119-.093-.232-.2-.344-.294s-.2-.175-.294-.268c-.185-.182-.364-.374-.532-.569-.066-.079-.132-.159-.2-.241-.109-.136-.212-.275-.311-.417-.079-.112-.155-.228-.228-.344-.112-.172-.222-.347-.318-.526-.06-.109-.109-.225-.162-.337-.1-.205-.2-.413-.278-.628a6.129,6.129,0,0,0,1.578,3.072,9.366,9.366,0,0,0,4.438,2.368,22.381,22.381,0,0,0,6.962.1h-.248Z" transform="translate(-43.547 -195.975)" fill="#fff"/>
      <path id="Tracé_1854" data-name="Tracé 1854" d="M54.506,221.792c-1.587.109-3.182.212-4.779.288h4.326a6.3,6.3,0,0,0,1.33-.146,6.1,6.1,0,0,0,.817-.238,6.35,6.35,0,0,0,1.925-1.1A6.679,6.679,0,0,1,54.506,221.792Z" transform="translate(-32.928 -194.777)" fill="#fff"/>
      <path id="Tracé_1855" data-name="Tracé 1855" d="M52.925,220.924c-.053.142-.112.278-.172.41.03-.06.06-.122.089-.185a6.47,6.47,0,0,0,.265-.665,6.344,6.344,0,0,0,.251-1.095A10.325,10.325,0,0,1,52.925,220.924Z" transform="translate(-25.947 -197.56)" fill="#fff"/>
      <path id="Tracé_1856" data-name="Tracé 1856" d="M49.317,222.181H55c.132,0,.265-.017.4-.02a9.079,9.079,0,0,0,1.511-.185c.284-.063.566-.136.84-.222C55.049,222.323,51.953,221.939,49.317,222.181Z" transform="translate(-33.874 -192.103)" fill="#fff"/>
      <path id="Tracé_1857" data-name="Tracé 1857" d="M51.406,213.113c.685-.086,1.366-.155,2.051-.215H51.164a8.985,8.985,0,0,0-.949.05c-.146.017-.288.043-.43.066a9.042,9.042,0,0,0-1.581.387,8.5,8.5,0,0,0-.883.357,9.067,9.067,0,0,0-1.306.738A18.28,18.28,0,0,1,51.406,213.113Z" transform="translate(-41.493 -212.536)" fill="#fff"/>
      <path id="Tracé_1858" data-name="Tracé 1858" d="M46.784,215.86c1.492-1.624,3.549-2.034,5.642-2.093a.264.264,0,0,1,.129-.023c.327.007.668,0,1.019-.007H51.5c-.152,0-.3.013-.446.023a5.423,5.423,0,0,0-.622.076,6.186,6.186,0,0,0-1.538.466,6.309,6.309,0,0,0-1.058.605,6.475,6.475,0,0,0-1.333,1.27,6.36,6.36,0,0,0-.628.966A6.553,6.553,0,0,1,46.784,215.86Z" transform="translate(-41.825 -210.6)" fill="#fff"/>
      <path id="Tracé_1859" data-name="Tracé 1859" d="M49.712,213.956h4.746a26.22,26.22,0,0,0-5.07,0h.324Z" transform="translate(-33.711 -210.383)" fill="#fff"/>
      <path id="Tracé_1860" data-name="Tracé 1860" d="M45.65,224.421V228.1c0,.073.01.142.01.212s.007.142.013.212a6.041,6.041,0,0,0,.069.605c.017.112.036.228.06.341a6.407,6.407,0,0,0,.185.655c.04.122.086.248.136.37.079.192.165.38.265.566.056.109.122.215.189.324.093.155.2.307.3.453.06.083.119.165.185.245a5.445,5.445,0,0,0,.47.526c.086.083.175.162.268.241a6.454,6.454,0,0,0,.523.42c.086.063.175.122.268.182s.2.122.3.179a15.512,15.512,0,0,0,4.961.44c1.095.01,2.179-.007,3.264-.05H52.007a5.97,5.97,0,0,1-.774-.056c-.162-.023-.318-.046-.473-.079a5.861,5.861,0,0,1-.767-.225c-.109-.04-.218-.079-.324-.122a5.972,5.972,0,0,1-.747-.4c-.093-.056-.185-.112-.275-.172a5.54,5.54,0,0,1-.556-.443c-.093-.079-.182-.155-.268-.242a6.044,6.044,0,0,1-.453-.513c-.063-.079-.122-.162-.182-.245-.109-.152-.208-.308-.3-.466-.06-.106-.119-.212-.172-.321a5.325,5.325,0,0,1-.251-.582c-.046-.126-.093-.248-.129-.377a4.833,4.833,0,0,1-.152-.655c-.02-.109-.04-.218-.053-.331-.023-.215-.04-.437-.043-.658V216.649a5.881,5.881,0,0,1,.132-1.237c.013-.063.033-.122.046-.182-.069.218-.132.437-.185.658a26.9,26.9,0,0,0-.347,5.384c-.017.734-.05,1.468-.083,2.2v.946Z" transform="translate(-42.335 -207.156)" fill="#fff"/>
      <path id="Tracé_1861" data-name="Tracé 1861" d="M45.1,221.308a28.1,28.1,0,0,0-.284-3.724v5.087a9.1,9.1,0,0,0,.331,2.4c.017.066.03.132.05.2.04.139.089.275.139.413.026.079.056.162.089.241A21.049,21.049,0,0,1,45.1,221.308Z" transform="translate(-44.271 -201.724)" fill="#fff"/>
      <path id="Tracé_1862" data-name="Tracé 1862" d="M47.913,219.521c-.017.056-.03.116-.046.175a5.027,5.027,0,0,0-.165,1.27,5.171,5.171,0,0,0,.05.685l.03.189a4.38,4.38,0,0,0,.116.509c.02.079.046.162.073.241a4.739,4.739,0,0,0,.3.7c.03.06.06.119.093.179-.781-1.945-.519-5.751,1.683-6.624a4.825,4.825,0,0,1,6.674,1.415,5.282,5.282,0,0,1-.2,6.251,5.221,5.221,0,0,0,.847-1.177,5.1,5.1,0,0,0,.473-1.306,5.611,5.611,0,0,0,.089-.582c.013-.159.023-.321.023-.483,0-.079-.01-.159-.013-.241,0-.116-.01-.232-.023-.347a4.765,4.765,0,0,0-.132-.688c-.017-.066-.03-.132-.05-.2a5.635,5.635,0,0,0-.268-.691c-.069-.149-.149-.294-.232-.437s-.179-.284-.278-.42a5.058,5.058,0,0,0-.361-.437,4.984,4.984,0,0,0-.4-.394,4.512,4.512,0,0,0-.446-.351,5.041,5.041,0,0,0-.734-.423c-.139-.066-.281-.126-.43-.182a5.167,5.167,0,0,0-1.042-.261c-.149-.02-.3-.033-.45-.043-.089,0-.179-.013-.268-.013a4.937,4.937,0,0,0-.7.056,4.768,4.768,0,0,0-.754.159,4.892,4.892,0,0,0-.724.281,5.018,5.018,0,0,0-.734.42A5.169,5.169,0,0,0,48.2,218.77a5.063,5.063,0,0,0-.241.585Z" transform="translate(-37.603 -205.748)" fill="#fff"/>
      <path id="Tracé_1863" data-name="Tracé 1863" d="M53.2,219.885a4.754,4.754,0,0,1-.579.129,4.623,4.623,0,0,1-.777.073c-.086,0-.165-.01-.251-.013-.159-.01-.317-.026-.473-.05-.093-.013-.182-.026-.271-.046l-.05-.013q-.134-.03-.268-.069a4.59,4.59,0,0,1-.857-.344l-.189-.109a4.776,4.776,0,0,1-.833-.618q-.119-.109-.228-.228c-.1-.109-.2-.222-.291-.341a4.337,4.337,0,0,0,5.844,1.336c.086-.05.169-.109.251-.165a4.846,4.846,0,0,1-.794.377C53.354,219.829,53.275,219.859,53.2,219.885Z" transform="translate(-36.616 -200.176)" fill="#fff"/>
      <path id="Tracé_1864" data-name="Tracé 1864" d="M57.554,227.89c.149-.06.291-.136.433-.205.073-.036.146-.069.218-.106.192-.1.377-.215.559-.334a7.87,7.87,0,0,0,.718-.516c.03-.026.06-.046.089-.073l0-.007a8.233,8.233,0,0,0,2.037-8.516A6.967,6.967,0,0,0,60.359,216c.089.113.179.228.261.347s.146.225.218.337c.116.189.225.38.324.579l.066.136a7.22,7.22,0,0,1,.337.827c.033.093.063.185.093.278.043.152.083.308.116.46.03.122.05.241.073.364a7.5,7.5,0,0,1,.093.82c.007.119.017.238.02.361l0,.1c0,.235-.013.463-.033.691-.017.172-.043.337-.069.5a7.622,7.622,0,0,1-.265,1.108,7.242,7.242,0,0,1-.42,1.019,7.558,7.558,0,0,1-3.827,3.578,7.409,7.409,0,0,1-1.085.347c-.119.03-.241.06-.364.083-.046.01-.093.013-.139.023-.146.023-.291.05-.437.066a7.654,7.654,0,0,1-.827.05c-.069,0-.136-.01-.2-.01q-.193,0-.387-.02a7.475,7.475,0,0,1-1.131-.179c-.126-.03-.251-.06-.374-.1a7.687,7.687,0,0,1-1.058-.4c-.083-.04-.169-.079-.248-.119a8.07,8.07,0,0,1-.771-.45c-.066-.046-.129-.1-.2-.145a7.945,7.945,0,0,1-.731-.6c-.1-.093-.2-.188-.288-.284-.112-.116-.222-.235-.327-.361-.063-.076-.122-.155-.185-.235-.1-.122-.192-.245-.281-.377-.05-.07-.089-.149-.136-.222a6.944,6.944,0,0,1-.347-.612c-.043-.086-.086-.172-.126-.261-.06-.129-.116-.258-.165-.39-.03-.076-.06-.152-.086-.232a7.246,7.246,0,0,1-.3-1.134l-.023-.152a5.9,5.9,0,0,1-.073-.592c-.013-.152-.023-.3-.023-.456,0-.046-.007-.089-.007-.136,0-.2.013-.4.03-.592a6.8,6.8,0,0,0,.241,3.2,8.027,8.027,0,0,0,8.926,5.1c.142-.033.284-.069.423-.109A8.236,8.236,0,0,0,57.554,227.89Z" transform="translate(-39.274 -205.386)" fill="#fff"/>
      <path id="Tracé_1865" data-name="Tracé 1865" d="M50.43,215.487a7.477,7.477,0,0,1,1.839-.311c.119-.007.238-.02.36-.02h.007c.182,0,.36.013.539.026l.036,0a7.1,7.1,0,0,0-4.038.625,8.538,8.538,0,0,0-1.386,1.138,7.43,7.43,0,0,1,1.875-1.174A7.622,7.622,0,0,1,50.43,215.487Z" transform="translate(-37.405 -207.403)" fill="#fff"/>
      <path id="Tracé_1866" data-name="Tracé 1866" d="M48.208,216.559c.043-.05.089-.1.136-.149l-.02-.01a1.865,1.865,0,0,0-.136.182Z" transform="translate(-36.479 -204.456)" fill="#fff"/>
      <path id="Tracé_1867" data-name="Tracé 1867" d="M51.135,217.026a1.879,1.879,0,0,0,.235.532,1.926,1.926,0,0,0,.251.317,1.945,1.945,0,0,0,1.108.569,1.948,1.948,0,0,0,.311.033c.076,0,.149-.017.225-.023a2,2,0,0,0,1.683-1.439,2.016,2.016,0,0,0,.073-.473l.007-.053a1.962,1.962,0,0,0-.241-.929,2.039,2.039,0,0,0-.212-.317,1.983,1.983,0,0,0-.38-.364,1.856,1.856,0,0,0-.437-.238,1.981,1.981,0,0,0-.718-.139,1.907,1.907,0,0,0-.632.112,1.981,1.981,0,0,0-1.356,1.875A1.928,1.928,0,0,0,51.135,217.026Zm.926-2.017a1.976,1.976,0,0,1,2.7.771,1.681,1.681,0,0,1-1.339,2.375,1.75,1.75,0,0,1-2.024-1.386A1.408,1.408,0,0,1,52.061,215.009Z" transform="translate(-29.871 -208.833)" fill="#fff"/>
      <path id="Tracé_1868" data-name="Tracé 1868" d="M55.211,214.969a8.14,8.14,0,0,0-1.554.023h0q-.238.03-.476.07l-.232.043a7.452,7.452,0,0,0-1.488.483l-.079.036-.142.056c-.083.033-.169.073-.251.112a6.434,6.434,0,0,0-2.431,2.2,9.952,9.952,0,0,0-1.181,2.375c-.109.318-.205.642-.284.966-.056.228-.106.46-.146.688s-.069.453-.1.678a8.349,8.349,0,0,0-.046,1.029c0,.162.007.324.02.483q.03.362.089.7l.033.152c.013.053.02.106.033.155a7.753,7.753,0,0,0,.261.853c.033.083.073.159.106.241.056.132.109.265.172.39.043.093.089.185.136.274.109.205.222.407.347.6.046.073.1.142.152.212.093.136.189.268.291.4.063.079.126.155.192.231.106.126.218.245.331.364.1.1.2.2.3.291a8.155,8.155,0,0,0,.711.6c.066.05.136.1.205.149a8.61,8.61,0,0,0,.734.466c.079.046.159.1.241.139a8.878,8.878,0,0,0,.939.423c.119.043.238.086.357.126a8.858,8.858,0,0,0,1.6.387c.053.007.1.017.152.023.208.027.413.043.622.056.106.007.212.017.317.02l.076,0c.1,0,.2-.007.291-.01.251,0,.5-.017.751-.043s.5-.063.741-.113c.083-.016.165-.04.248-.059.119-.027.238-.053.354-.086.06-.017.116-.026.175-.043a6.581,6.581,0,0,0,.618-.228,7.383,7.383,0,0,0,3.621-3.42c.136-.255.258-.513.37-.781a9.463,9.463,0,0,0,.526-1.726c.05-.245.089-.5.119-.744.033-.278.053-.556.06-.83,0-.145,0-.288,0-.43-.007-.228-.02-.453-.043-.678q-.015-.164-.04-.327c-.04-.265-.089-.526-.152-.784q-.04-.164-.089-.327c-.04-.142-.086-.284-.136-.423-.033-.083-.06-.169-.1-.251-.053-.136-.109-.268-.172-.4-.076-.159-.159-.314-.245-.47l-.066-.119c-.106-.175-.215-.351-.331-.519q-.109-.159-.228-.308c-.126-.165-.258-.324-.4-.479-.109-.119-.222-.238-.337-.351-.1-.1-.2-.2-.308-.291q-.213-.193-.437-.367c-.232-.182-.473-.351-.721-.509-.116-.076-.235-.146-.354-.215-.268-.152-.542-.294-.824-.42q-.169-.074-.337-.139c-.261-.106-.529-.2-.8-.274-.2-.06-.4-.112-.6-.155q-.193-.045-.387-.079c-.172-.03-.341-.05-.513-.07C55.4,214.985,55.3,214.975,55.211,214.969ZM57.9,230.394c-.182.069-.36.139-.549.192-.1.026-.2.043-.3.066-.136.033-.271.069-.407.093a8.027,8.027,0,0,1-8.926-5.1,6.8,6.8,0,0,1-.241-3.2c.02-.142.04-.281.069-.42.05-.238.109-.473.175-.7a8.718,8.718,0,0,1,.314-.9,9.747,9.747,0,0,1,2.034-3.059,8.538,8.538,0,0,1,1.386-1.138,7.1,7.1,0,0,1,4.038-.625c.116.013.235.033.351.053q.313.055.625.129.407.1.8.248.169.059.337.129a8.884,8.884,0,0,1,.86.407c.122.069.248.139.367.215a7.661,7.661,0,0,1,.718.493c.152.116.3.238.44.364q.169.149.327.308c.122.119.238.241.351.37l.1.112a6.966,6.966,0,0,1,1.253,2.137,8.233,8.233,0,0,1-2.037,8.516l0,.007c-.03.026-.06.046-.089.073a6.976,6.976,0,0,1-.883.671c-.122.076-.241.152-.367.218s-.241.122-.364.179S58.026,230.344,57.9,230.394Z" transform="translate(-39.683 -207.82)" fill="#fff"/>
      <path id="Tracé_1869" data-name="Tracé 1869" d="M56.537,218.125a4.825,4.825,0,0,0-6.674-1.415c-2.2.873-2.464,4.68-1.683,6.624l.01.03c.023.05.04.1.063.149.04.089.089.172.136.255a2.988,2.988,0,0,0,.149.265,4.246,4.246,0,0,0,.278.4c.073.089.149.172.225.258a4.58,4.58,0,0,0,.764.651c.063.043.126.079.189.119a4.868,4.868,0,0,0,.827.4c.086.03.172.056.258.083.122.036.245.066.367.093s.228.046.341.063a5.133,5.133,0,0,0,.843.053,4.75,4.75,0,0,0,.483-.036c.076-.01.149-.023.225-.036a5.151,5.151,0,0,0,1.356-.42c.119-.056.238-.112.351-.175a4.684,4.684,0,0,0,1.3-1.1A5.282,5.282,0,0,0,56.537,218.125Zm-7.269-.572.02.01a.108.108,0,0,0,.046,0,.119.119,0,0,0,.06-.026,6.941,6.941,0,0,1,1.131-.652c.162-.076.327-.145.5-.205A5.246,5.246,0,0,1,52.2,216.4a4.168,4.168,0,0,1,1.664.126,3.685,3.685,0,0,1,.45.169,3.856,3.856,0,0,1,.714.423,4.082,4.082,0,0,1,.417.354,4.735,4.735,0,0,1,.728.9l.007.01a4.794,4.794,0,0,1,.245.44c.076.155.142.314.2.473a4.774,4.774,0,0,1,.225.79c.013.069.023.136.036.205a5.521,5.521,0,0,1,.06.661c0,.126,0,.251,0,.377a5.207,5.207,0,0,1-.126.9,4.741,4.741,0,0,1-.235.734,4.182,4.182,0,0,1-1.551,1.9c-.083.056-.165.116-.251.165a4.337,4.337,0,0,1-5.844-1.336l-.02-.03v0c-.05-.079-.093-.169-.139-.255a4.445,4.445,0,0,1-.182-.42c-.026-.073-.053-.149-.076-.225a5.539,5.539,0,0,1-.2-.807c-.013-.083-.023-.165-.033-.251-.026-.205-.046-.417-.053-.628,0-.066,0-.129,0-.2a5.955,5.955,0,0,1,.486-2.437c.02-.043.036-.086.056-.129a4.11,4.11,0,0,1,.347-.572A1.862,1.862,0,0,1,49.267,217.553Z" transform="translate(-37.423 -205.609)" fill="#fff"/>
      <path id="Tracé_1870" data-name="Tracé 1870" d="M51.2,216.6a1.75,1.75,0,0,0,2.024,1.386,1.681,1.681,0,0,0,1.339-2.375,1.976,1.976,0,0,0-2.7-.771A1.408,1.408,0,0,0,51.2,216.6Zm2.193-1.306a1.265,1.265,0,0,1,.407.275,1.4,1.4,0,0,1,.232.3l0,.01c.43.767-.311,1.5-1.085,1.568a.972.972,0,0,1-.519-.1,1.164,1.164,0,0,1-.341-.255,1.471,1.471,0,0,1-.232-.334,1.59,1.59,0,0,1-.169-.569,1.177,1.177,0,0,1,.169-.761.3.3,0,0,0,.179-.03,2.016,2.016,0,0,1,.731-.192A1.42,1.42,0,0,1,53.393,215.29Z" transform="translate(-29.679 -208.661)" fill="#fff"/>
      <path id="Tracé_1871" data-name="Tracé 1871" d="M53.561,213.969a.265.265,0,0,0-.129.023c-2.094.06-4.151.47-5.642,2.093a6.554,6.554,0,0,0-.913,1.283l-.04.076a7.7,7.7,0,0,0-.579,1.449c-.076.261-.136.529-.189.8a15.142,15.142,0,0,0-.241,1.948c-.01.155-.02.311-.026.47-.007.189-.013.38-.02.569-.007.222-.01.443-.013.661,0,.278-.01.556-.013.827l-.007.222c0,.149-.007.3-.013.45-.017.41-.043.827-.069,1.25-.013.2-.03.407-.043.609-.03.394-.06.787-.086,1.187-.017.255-.033.513-.046.771-.017.3-.033.609-.043.913-.007.241-.01.48-.013.721,0,.2,0,.4.007.605.007.179.013.357.023.536.02.367.05.734.1,1.095l.03.2c.026.185.056.367.093.549.023.122.046.245.073.364.056.235.116.466.189.694.04.126.089.248.136.374.026.073.05.149.079.222a3.933,3.933,0,0,0,.165.357c.06.119.126.232.2.344a4.13,4.13,0,0,0,.308.437c.063.083.132.155.2.232a4.449,4.449,0,0,0,.536.493c.1.076.2.152.3.222a5.193,5.193,0,0,0,.542.321c.1.053.2.1.3.152a7.413,7.413,0,0,0,.847.317c.116.036.232.07.351.1.268.069.539.126.814.172.162.027.324.046.489.066.245.026.489.046.731.056.284.013.572.017.857.026l.321.01c.4.01.807.017,1.21.017.132,0,.265,0,.4,0,.5,0,1.005,0,1.511-.01.126,0,.251,0,.38,0,.146,0,.291-.01.437-.013.278-.007.559-.013.84-.023l.136,0,.377-.013c.361-.013.721-.03,1.081-.046l.142,0c1.6-.076,3.192-.179,4.779-.288a6.679,6.679,0,0,0,3.618-1.2,5.076,5.076,0,0,0,1.5-1.826l.056-.106.053-.112c.06-.132.119-.268.172-.41a10.324,10.324,0,0,0,.433-1.535c.043-.208.083-.42.116-.632.02-.139.043-.278.06-.417.056-.43.093-.863.119-1.3l.017-.274c.023-.552.03-1.111.026-1.67,0-.152,0-.3,0-.453-.01-.456-.023-.913-.036-1.366l-.01-.357c-.013-.41-.026-.817-.036-1.214l0-.3c0-.156-.007-.314-.007-.466,0-.314,0-.632,0-.956,0-.139,0-.278,0-.417,0-.222,0-.443-.007-.665,0-.119-.007-.241-.01-.36,0-.169-.013-.337-.023-.509l-.013-.238c-.023-.327-.053-.652-.1-.972-.01-.07-.02-.139-.033-.208l-.017-.116a6.855,6.855,0,0,0-1.392-3.347,7.205,7.205,0,0,0-3.949-2.361c-.069-.02-.136-.036-.205-.053-.132-.03-.261-.056-.394-.083-.251-.046-.5-.089-.757-.122-.119-.017-.235-.033-.354-.043-.562-.063-1.138-.093-1.723-.1-.228-.007-.46-.007-.691,0-.357,0-.714.01-1.072.026l-.212.007-.3.017c-.347.017-.691.036-1.035.06l-.483.03-.324.023L57,213.83c-.218.016-.437.03-.652.043-.179.013-.357.023-.536.033l-.377.023c-.132.007-.261.013-.39.016-.159.007-.314.013-.47.017C54.229,213.972,53.888,213.976,53.561,213.969Zm-4.835,23.058c-.066-.033-.129-.063-.192-.1a4.1,4.1,0,0,1-.39-.241c-.1-.069-.2-.145-.291-.222a4.045,4.045,0,0,1-.509-.5c-.066-.076-.132-.155-.192-.235a5.182,5.182,0,0,1-.291-.463c-.063-.116-.119-.231-.172-.35a5.448,5.448,0,0,1-.228-.6c-.04-.132-.076-.265-.109-.4-.053-.232-.1-.47-.132-.711-.017-.116-.033-.235-.046-.357-.023-.2-.043-.4-.056-.609l-.013-.212c-.017-.347-.03-.695-.036-1.039l0-.069c0-.185,0-.37,0-.559,0-.212,0-.427,0-.642,0-.261.01-.523.017-.784s.017-.546.026-.817l.03-.784.01-.2c.033-.734.066-1.468.083-2.2a26.9,26.9,0,0,1,.347-5.384c.053-.222.116-.44.185-.658a7.456,7.456,0,0,1,.265-.7,5.909,5.909,0,0,1,3.615-3.4c.122-.036.241-.069.367-.1s.238-.046.357-.063a9.817,9.817,0,0,1,1.707-.01c.1,0,.2.007.3.007a5.26,5.26,0,0,0,.718-.03c.046,0,.089-.013.132-.02h.03c.132,0,.265.007.4.007h.073c.122,0,.248,0,.377,0s.245,0,.37-.007c.179-.007.361-.013.546-.023.2-.01.407-.02.615-.033l.347-.023.473-.03c.354-.026.708-.05,1.062-.076a26.224,26.224,0,0,1,5.07,0l.185.026c.149.02.294.043.44.069a10.132,10.132,0,0,1,1.062.255c.132.04.261.083.394.129a7.2,7.2,0,0,1,.738.3c.109.053.215.106.321.162a6.922,6.922,0,0,1,.833.529c.119.089.235.182.347.281s.238.212.354.324c.03.03.053.066.083.1.083.089.162.182.238.275a4.726,4.726,0,0,1,.513.787c.043.083.083.162.119.245l.036.073a7.342,7.342,0,0,1,.47,1.485l.023.129c.046.228.083.456.112.691l.026.225,0,.02a30.669,30.669,0,0,1,0,4.71l0,.069-.02.347c-.02.453-.036.886-.04,1.287v.384c0,.417.007.85.007,1.293v.48c0,.546-.013,1.1-.046,1.65-.007.1-.013.2-.02.3-.033.453-.086.9-.162,1.339-.03.152-.056.3-.089.456a6.779,6.779,0,0,1-.843,2.156,4.537,4.537,0,0,1-1.9,1.7,5.274,5.274,0,0,1-.86.334,7.469,7.469,0,0,1-1.081.228c-.218.033-.437.063-.658.083-.265.023-.536.046-.8.059-.152.007-.3.013-.456.017-.648.023-1.293.036-1.925.076-.132.01-.265.017-.394.03-.152.013-.3.02-.45.033-.377.03-.757.06-1.134.086h-.007c-.119.007-.241.01-.36.016l-.079,0q-.471.03-.943.05c-1.085.043-2.17.06-3.264.05a15.512,15.512,0,0,1-4.961-.44c-.119-.04-.235-.083-.347-.132S48.828,237.077,48.726,237.027Z" transform="translate(-42.831 -210.826)" fill="#fff"/>
      <path id="Tracé_1872" data-name="Tracé 1872" d="M74.761,233.82c.056-.668.1-1.346.142-2.027l.02-.427.02-.318q.074-1.563.073-3.132c0-.132,0-.265,0-.4,0-.579-.017-1.154-.04-1.73,0-.1-.013-.205-.017-.308-.017-.324-.036-.651-.056-.976-.083-1.171-.2-2.332-.38-3.469a9.783,9.783,0,0,0-6.307-7.488c-.215-.086-.433-.159-.655-.228l-.089-.03a10.767,10.767,0,0,0-1.4-.314q-.248-.04-.5-.069c-.3-.036-.605-.063-.91-.079-.142-.01-.284-.02-.427-.026-.4-.013-.79-.013-1.187-.007-.169,0-.337,0-.506.01l-.189.007-.132.007-.255.01-.215.007-.39.02-.764.036-.294.013-.132.007-.417.02c-.324.017-.645.036-.969.056-.162.01-.324.017-.483.026-.476.03-.949.069-1.422.109l-.278.02c-.685.06-1.366.129-2.051.215a18.279,18.279,0,0,0-5.391,1.382c-.152.073-.308.146-.456.228a7.019,7.019,0,0,0-1.482,1.062c-.053.05-.1.1-.155.155a5.374,5.374,0,0,0-.6.734,6.573,6.573,0,0,0-.714,1.015,6.846,6.846,0,0,0-.486,1.081c-.089.255-.162.509-.232.764s-.122.506-.169.757c-.03.149-.053.3-.076.45-.033.208-.063.417-.083.625-.036.351-.053.7-.063,1.055,0,.106-.007.212-.007.321,0,.314,0,.632.017.946.01.225.026.45.043.675.04.509.093,1.019.152,1.528.023.175.043.354.066.529l.046.37c.03.215.06.43.086.642.04.275.073.549.109.82l.02.142a28.1,28.1,0,0,1,.284,3.724,21.049,21.049,0,0,0,.324,4.61c.013.066.026.132.043.2a7.159,7.159,0,0,0,.228.757c.043.119.083.238.132.354a5.985,5.985,0,0,0,.278.589c.063.122.139.241.212.361.093.149.2.291.3.433.063.083.126.165.2.245a6.034,6.034,0,0,0,.559.569,3.923,3.923,0,0,0,.308.265c.1.083.212.159.324.238.05.033.093.07.142.106s.1.056.149.089q.367.228.744.427c.093.05.182.1.275.142q.337.164.685.308c.139.056.281.109.423.162a12.966,12.966,0,0,0,1.353.407c.1.023.2.05.3.069.275.06.552.116.83.159.129.02.258.036.387.053.43.056.867.1,1.3.126.149.01.3.02.45.023.38.017.764.02,1.144.017.152,0,.3,0,.453-.007.476-.01.952-.036,1.425-.066l.05,0,.489-.04c.331-.026.658-.056.986-.086l.122-.01c2.636-.241,5.732.142,8.43-.427.079-.017.159-.036.238-.056.321-.076.635-.162.943-.268.232-.083.463-.172.685-.271a6.086,6.086,0,0,0,.566-.294,6.2,6.2,0,0,0,1.511-1.273,7.255,7.255,0,0,0,.767-1.072,8.929,8.929,0,0,0,.552-1.095A14.1,14.1,0,0,0,74.761,233.82Zm-29.2-5.292c-.083-1.128-.268-2.232-.377-3.347-.033-.314-.056-.632-.069-.949-.013-.231-.017-.463-.017-.7,0-.185,0-.367.01-.552.01-.146.017-.291.03-.437.007-.109.017-.218.023-.324.017-.162.03-.324.05-.486a10.5,10.5,0,0,1,.794-3.125.208.208,0,0,0,.205-.152,4.523,4.523,0,0,1,.394-.91,5.665,5.665,0,0,1,.582-.714,7.874,7.874,0,0,1,1.561-1.227c.192-.119.387-.232.589-.341.1-.056.205-.106.308-.159.169-.069.337-.132.509-.192a14.411,14.411,0,0,1,1.6-.443q.253-.06.506-.109c.46-.089.916-.165,1.366-.232.152-.023.3-.046.453-.066.437-.063.857-.116,1.25-.165l.251-.033.582-.076c.516-.066,1.035-.132,1.564-.2l.159-.017a32.506,32.506,0,0,1,7.653-.162,10.371,10.371,0,0,1,1.035.2c.149.036.3.076.45.119l.275.089c.255.083.513.175.764.281.1.04.2.086.3.129.321.145.632.3.939.479.1.056.192.112.288.172.225.139.443.284.658.44.086.063.169.122.251.188a8.663,8.663,0,0,1,.731.615c.093.083.179.172.265.258.2.2.38.394.556.605.069.079.139.165.205.248a8.471,8.471,0,0,1,.542.784c.043.069.093.142.136.215a7.5,7.5,0,0,1,.8,1.961c.02.086.036.175.056.261l.033.149c.073.334.136.668.189,1.005l.02.136c.023.162.046.324.066.486.01.089.02.175.03.265.023.218.046.433.063.652l.02.248c.033.466.053.933.063,1.4l.007.251c0,.37.007.741,0,1.111l-.007.341c-.007.569-.023,1.138-.043,1.7l-.013.43c-.023.632-.046,1.263-.06,1.885l0,.162,0,.063c-.007.351-.017.711-.026,1.072l-.01.341c-.013.483-.036.972-.073,1.458-.01.129-.017.255-.03.38-.04.473-.1.946-.175,1.412-.023.146-.046.291-.076.433a10.684,10.684,0,0,1-.46,1.68c-.1.265-.2.522-.317.774a7.387,7.387,0,0,1-.642,1.1,6.722,6.722,0,0,1-.87,1.009,5.475,5.475,0,0,1-2.166,1.247,7.162,7.162,0,0,1-.751.2,10.993,10.993,0,0,1-1.564.208c-.2.013-.394.023-.589.03-.42.017-.84.02-1.257.017h-.509c-.38,0-.754-.007-1.124,0-.261,0-.523.007-.774.02h-.01c-.162.007-.327.017-.493.026-.208.013-.417.026-.628.043l-.337.026c-.559.046-1.124.1-1.693.155l-.367.036a22.38,22.38,0,0,1-6.962-.1,9.366,9.366,0,0,1-4.438-2.368,6.129,6.129,0,0,1-1.578-3.072l-.013-.056c-.033-.149-.063-.3-.093-.45s-.056-.324-.083-.486l-.03-.212c-.069-.48-.126-.966-.179-1.449-.03-.271-.056-.542-.076-.814-.01-.139-.017-.274-.023-.413-.02-.337-.036-.675-.046-1.009-.007-.212-.013-.42-.017-.632-.007-.344-.017-.688-.023-1.032-.007-.189-.01-.38-.017-.572l0-.083C45.611,229.293,45.591,228.912,45.565,228.529Z" transform="translate(-44.648 -212.782)" fill="#fff"/>
    </g>
    <path id="Tracé_1873" data-name="Tracé 1873" d="M84.875,221.2a21.123,21.123,0,0,0-5.636-5.874,22.706,22.706,0,0,0-7.9-4,18.492,18.492,0,0,0-7.058-.817,22.617,22.617,0,0,0-8.209,1.9,24.243,24.243,0,0,0-5.738,3.3.074.074,0,0,0-.063.013c-3.979,3.182-7.541,7.084-8.023,12.4a26.889,26.889,0,0,0,.255,6.373,22.6,22.6,0,0,0,3.347,10.676c1.541,3.3,3.628,6.671,6.876,8.182a29.71,29.71,0,0,0,16.083,2.7,24.067,24.067,0,0,0,6.3-1.773,16.1,16.1,0,0,0,4.405-3.327,23.039,23.039,0,0,0,4.032-4.21,22.294,22.294,0,0,0,5.3-11.079C89.505,230.655,87.534,225.409,84.875,221.2ZM49.067,248.514a33.414,33.414,0,0,0,8.427,5.146,21.328,21.328,0,0,0,4.782,1.611c-.546-.069-1.088-.152-1.63-.251A22.227,22.227,0,0,1,49.067,248.514Zm-5.93-22.562c.02-.069.04-.136.06-.205C43.177,225.816,43.157,225.885,43.137,225.952Zm.129-.42a15.108,15.108,0,0,1,.969-2.388A19.081,19.081,0,0,0,43.266,225.532Zm30.341,28.324c4.839-2.4,8.665-6.793,11.556-11.245.238-.37.483-.741.724-1.111A22.35,22.35,0,0,1,73.607,253.855Zm12.442-13.712c-2.709,4.528-6.066,8.93-10.454,11.969a17.551,17.551,0,0,1-15.571,2.206c-5-1.862-10.425-4.541-13.338-9.171-.2-.318-.39-.645-.572-.976a38.383,38.383,0,0,1-2.857-12.022,16.189,16.189,0,0,1-.079-1.779,22.244,22.244,0,0,1,8.506-14.747,31.949,31.949,0,0,1,7.637-3.542c4.63-1.465,10.051-.311,14.43,1.4,1.181.463,2.414.972,3.6,1.571a25.125,25.125,0,0,1,3.539,2.771,23.6,23.6,0,0,1,2.7,3.056,30.768,30.768,0,0,1,1.535,3.34,38.932,38.932,0,0,1,2.262,6.935c.063.688.1,1.389.1,2.1a22.3,22.3,0,0,1-.652,5.348A11.845,11.845,0,0,1,86.049,240.143ZM50.955,251.52a13.863,13.863,0,0,1-2.3-2.7,22.784,22.784,0,0,0,6.277,4.713A10.911,10.911,0,0,1,50.955,251.52ZM87.15,239.366c.086-.165.169-.331.248-.5-.155.48-.331.953-.523,1.419C86.975,239.981,87.064,239.677,87.15,239.366Z" transform="translate(-42.162 -210.461)" fill="#fff"/>
  </g>
</svg>
