<svg id="user_1_" data-name="user (1)" xmlns="http://www.w3.org/2000/svg" width="136.461" height="163.564" viewBox="0 0 136.461 163.564">
  <path id="Tracé_2682" data-name="Tracé 2682" d="M126.427,78.789a38.118,38.118,0,0,0,27.855-11.542,38.117,38.117,0,0,0,11.54-27.854,38.123,38.123,0,0,0-11.542-27.854,39.386,39.386,0,0,0-55.708,0A38.119,38.119,0,0,0,87.031,39.393,38.117,38.117,0,0,0,98.574,67.249,38.127,38.127,0,0,0,126.427,78.789Zm0,0" transform="translate(-59.228)" fill="#e4521b"/>
  <path id="Tracé_2683" data-name="Tracé 2683" d="M136.131,294.081a97.307,97.307,0,0,0-1.325-10.335,81.429,81.429,0,0,0-2.542-10.391,51.324,51.324,0,0,0-4.272-9.691,36.571,36.571,0,0,0-6.442-8.395,28.4,28.4,0,0,0-9.253-5.814,31.979,31.979,0,0,0-11.812-2.138c-1.67,0-3.284.685-6.4,2.715-1.919,1.252-4.164,2.7-6.67,4.3a38.22,38.22,0,0,1-8.63,3.8,33.513,33.513,0,0,1-21.112,0,38.13,38.13,0,0,1-8.624-3.8c-2.482-1.586-4.728-3.034-6.676-4.3-3.115-2.03-4.731-2.715-6.4-2.715a31.938,31.938,0,0,0-11.811,2.14A28.377,28.377,0,0,0,14.9,255.27a36.574,36.574,0,0,0-6.439,8.393,51.425,51.425,0,0,0-4.272,9.692,81.62,81.62,0,0,0-2.541,10.39A96.962,96.962,0,0,0,.327,294.085C.11,297.214,0,300.463,0,303.743c0,8.538,2.714,15.45,8.066,20.548,5.286,5.03,12.28,7.582,20.786,7.582h78.757c8.506,0,15.5-2.551,20.785-7.582,5.353-5.094,8.068-12.007,8.068-20.549C136.46,300.446,136.349,297.2,136.131,294.081Zm0,0" transform="translate(0 -168.309)" fill="#e4521b"/>
</svg>
